<mxfile host="app.diagrams.net" agent="Mozilla/5.0 (X11; Ubuntu; Linux x86_64; rv:130.0) Gecko/20100101 Firefox/130.0" version="26.2.14">
  <diagram name="Page-1" id="X_jQPj1vI_s_MG0ojzQs">
    <mxGraphModel dx="2846" dy="1160" grid="1" gridSize="10" guides="1" tooltips="1" connect="1" arrows="1" fold="1" page="1" pageScale="1" pageWidth="850" pageHeight="1100" math="0" shadow="0">
      <root>
        <mxCell id="0" />
        <mxCell id="1" parent="0" />
        <mxCell id="GLML2bX4jH7Xvej46Ww--1" value="" style="shape=image;verticalLabelPosition=bottom;labelBackgroundColor=default;verticalAlign=top;aspect=fixed;imageAspect=0;editableCssRules=.*;image=data:image/svg+xml,PHN2ZyB4bWxucz0iaHR0cDovL3d3dy53My5vcmcvMjAwMC9zdmciIHhtbG5zOnhsaW5rPSJodHRwOi8vd3d3LnczLm9yZy8xOTk5L3hsaW5rIiBpZD0ic3ZnMTA4MyIgdmVyc2lvbj0iMS4xIiB2aWV3Qm94PSIwIDAgODcyLjY3ODEyNSA3ODkuNjY2ODc1IiBoZWlnaHQ9Ijc4OS42NjY4NzVwdCIgd2lkdGg9Ijg3Mi42NzgxMjVwdCI+JiN4YTsgICYjeGE7ICA8ZGVmcyBpZD0iZGVmczM3MyI+JiN4YTsgICAgPGcgaWQ9ImczMzUiPiYjeGE7ICAgICAgPGcgaWQ9ImdseXBoLTAtMCI+JiN4YTsgICAgICAgIDxwYXRoIGlkPSJwYXRoMTQ4IiBkPSJNIDIuMzU1NDY5IC0xLjU3ODEyNSBMIDUuNDE0MDYyIC0xLjU3ODEyNSBMIDUuNDE0MDYyIC0xMi4xNDA2MjUgTCAyLjA4OTg0NCAtMTEuNDc2NTYyIEwgMi4wODk4NDQgLTEzLjE4NzUgTCA1LjM5NDUzMSAtMTMuODUxNTYyIEwgNy4yNzczNDQgLTEzLjg1MTU2MiBMIDcuMjc3MzQ0IC0xLjU3ODEyNSBMIDEwLjMzNTkzOCAtMS41NzgxMjUgTCAxMC4zMzU5MzggMCBMIDIuMzU1NDY5IDAgTCAyLjM1NTQ2OSAtMS41NzgxMjUiLz4mI3hhOyAgICAgIDwvZz4mI3hhOyAgICAgIDxnIGlkPSJnbHlwaC0wLTEiPiYjeGE7ICAgICAgICA8cGF0aCBpZD0icGF0aDE1MSIgZD0iTSA2LjA0Mjk2OSAtMTIuNjE3MTg4IEMgNS4wNzQyMTkgLTEyLjYxNzE4OCA0LjM1MTU2MiAtMTIuMTQwNjI1IDMuODU1NDY5IC0xMS4xOTE0MDYgQyAzLjM2MzI4MSAtMTAuMjQyMTg4IDMuMTM2NzE5IC04LjgxNjQwNiAzLjEzNjcxOSAtNi45MTQwNjIgQyAzLjEzNjcxOSAtNS4wMTU2MjUgMy4zNjMyODEgLTMuNTg5ODQ0IDMuODU1NDY5IC0yLjY0MDYyNSBDIDQuMzUxNTYyIC0xLjY5MTQwNiA1LjA3NDIxOSAtMS4yMTQ4NDQgNi4wNDI5NjkgLTEuMjE0ODQ0IEMgNy4wMTE3MTkgLTEuMjE0ODQ0IDcuNzM0Mzc1IC0xLjY5MTQwNiA4LjIyNjU2MiAtMi42NDA2MjUgQyA4LjcwMzEyNSAtMy41ODk4NDQgOC45NDkyMTkgLTUuMDE1NjI1IDguOTQ5MjE5IC02LjkxNDA2MiBDIDguOTQ5MjE5IC04LjgxNjQwNiA4LjcwMzEyNSAtMTAuMjQyMTg4IDguMjI2NTYyIC0xMS4xOTE0MDYgQyA3LjczNDM3NSAtMTIuMTQwNjI1IDcuMDExNzE5IC0xMi42MTcxODggNi4wNDI5NjkgLTEyLjYxNzE4OCBNIDYuMDQyOTY5IC0xNC4wOTc2NTYgQyA3LjU4MjAzMSAtMTQuMDk3NjU2IDguNzU3ODEyIC0xMy40NzI2NTYgOS41OTM3NSAtMTIuMjUzOTA2IEMgMTAuNDEwMTU2IC0xMS4wMTk1MzEgMTAuODI4MTI1IC05LjIzNDM3NSAxMC44MjgxMjUgLTYuOTE0MDYyIEMgMTAuODI4MTI1IC00LjU3ODEyNSAxMC40MTAxNTYgLTIuNzkyOTY5IDkuNTkzNzUgLTEuNTc4MTI1IEMgOC43NTc4MTIgLTAuMzU5Mzc1IDcuNTgyMDMxIDAuMjQ2MDk0IDYuMDQyOTY5IDAuMjQ2MDk0IEMgNC40ODQzNzUgMC4yNDYwOTQgMy4yODUxNTYgLTAuMzU5Mzc1IDIuNDY4NzUgLTEuNTc4MTI1IEMgMS42NTIzNDQgLTIuNzkyOTY5IDEuMjUzOTA2IC00LjU3ODEyNSAxLjI1MzkwNiAtNi45MTQwNjIgQyAxLjI1MzkwNiAtOS4yMzQzNzUgMS42NTIzNDQgLTExLjAxOTUzMSAyLjQ2ODc1IC0xMi4yNTM5MDYgQyAzLjI4NTE1NiAtMTMuNDcyNjU2IDQuNDg0Mzc1IC0xNC4wOTc2NTYgNi4wNDI5NjkgLTE0LjA5NzY1NiIvPiYjeGE7ICAgICAgPC9nPiYjeGE7ICAgICAgPGcgaWQ9ImdseXBoLTAtMiI+JiN4YTsgICAgICAgIDxwYXRoIGlkPSJwYXRoMTU0IiBkPSJNIDIuMDUwNzgxIC0xMy44NTE1NjIgTCA5LjQwNjI1IC0xMy44NTE1NjIgTCA5LjQwNjI1IC0xMi4yNzM0MzggTCAzLjc2MTcxOSAtMTIuMjczNDM4IEwgMy43NjE3MTkgLTguODcxMDk0IEMgNC4wMjczNDQgLTguOTY4NzUgNC4zMTI1IC05LjA0Mjk2OSA0LjU3ODEyNSAtOS4wODIwMzEgQyA0Ljg0Mzc1IC05LjEyMTA5NCA1LjEyODkwNiAtOS4xNTYyNSA1LjM5NDUzMSAtOS4xNTYyNSBDIDYuOTMzNTk0IC05LjE1NjI1IDguMTUyMzQ0IC04LjcyMjY1NiA5LjA2MjUgLTcuODg2NzE5IEMgOS45NzY1NjIgLTcuMDMxMjUgMTAuNDI5Njg4IC01Ljg5MDYyNSAxMC40Mjk2ODggLTQuNDQ1MzEyIEMgMTAuNDI5Njg4IC0yLjk0NTMxMiA5Ljk1NzAzMSAtMS43ODUxNTYgOS4wMjM0MzggLTAuOTY4NzUgQyA4LjA5Mzc1IC0wLjE1MjM0NCA2Ljc4MTI1IDAuMjQ2MDk0IDUuMTA5Mzc1IDAuMjQ2MDk0IEMgNC41MjM0MzggMC4yNDYwOTQgMy45MzM1OTQgMC4xOTE0MDYgMy4zMjQyMTkgMC4xMTMyODEgQyAyLjcxODc1IDAuMDE5NTMxMiAyLjEwOTM3NSAtMC4xMTMyODEgMS40NjQ4NDQgLTAuMzI0MjE5IEwgMS40NjQ4NDQgLTIuMjAzMTI1IEMgMi4wMTU2MjUgLTEuODk4NDM4IDIuNTg1OTM4IC0xLjY3MTg3NSAzLjE5MTQwNiAtMS41MTk1MzEgQyAzLjc4MTI1IC0xLjM2NzE4OCA0LjQwNjI1IC0xLjMxMjUgNS4wNzQyMTkgLTEuMzEyNSBDIDYuMTM2NzE5IC0xLjMxMjUgNi45OTIxODggLTEuNTc4MTI1IDcuNjE3MTg4IC0yLjE0ODQzOCBDIDguMjI2NTYyIC0yLjcxODc1IDguNTUwNzgxIC0zLjQ3NjU2MiA4LjU1MDc4MSAtNC40NDUzMTIgQyA4LjU1MDc4MSAtNS4zOTQ1MzEgOC4yMjY1NjIgLTYuMTU2MjUgNy42MTcxODggLTYuNzI2NTYyIEMgNi45OTIxODggLTcuMjk2ODc1IDYuMTM2NzE5IC03LjU4MjAzMSA1LjA3NDIxOSAtNy41ODIwMzEgQyA0LjU3ODEyNSAtNy41ODIwMzEgNC4wNjY0MDYgLTcuNTIzNDM4IDMuNTcwMzEyIC03LjQxMDE1NiBDIDMuMDc4MTI1IC03LjI5Njg3NSAyLjU2NjQwNiAtNy4xMjUgMi4wNTA3ODEgLTYuODk4NDM4IEwgMi4wNTA3ODEgLTEzLjg1MTU2MiIvPiYjeGE7ICAgICAgPC9nPiYjeGE7ICAgICAgPGcgaWQ9ImdseXBoLTAtMyI+JiN4YTsgICAgICAgIDxwYXRoIGlkPSJwYXRoMTU3IiBkPSJNIDMuNjQ4NDM4IC0xLjU3ODEyNSBMIDEwLjE4MzU5NCAtMS41NzgxMjUgTCAxMC4xODM1OTQgMCBMIDEuMzg2NzE5IDAgTCAxLjM4NjcxOSAtMS41NzgxMjUgQyAyLjA4OTg0NCAtMi4zMDA3ODEgMy4wNTg1OTQgLTMuMjg1MTU2IDQuMjkyOTY5IC00LjUzOTA2MiBDIDUuNTExNzE5IC01Ljc3NzM0NCA2LjI4OTA2MiAtNi41NzQyMTkgNi42MTMyODEgLTYuOTMzNTk0IEMgNy4yMTg3NSAtNy42MDE1NjIgNy42MzY3MTkgLTguMTcxODc1IDcuODY3MTg4IC04LjY0NDUzMSBDIDguMDkzNzUgLTkuMTAxNTYyIDguMjI2NTYyIC05LjU3NDIxOSA4LjIyNjU2MiAtMTAuMDMxMjUgQyA4LjIyNjU2MiAtMTAuNzUzOTA2IDcuOTYwOTM4IC0xMS4zNjMyODEgNy40NDkyMTkgLTExLjgxNjQwNiBDIDYuOTMzNTk0IC0xMi4yNzM0MzggNi4yNjk1MzEgLTEyLjUxOTUzMSA1LjQzMzU5NCAtMTIuNTE5NTMxIEMgNC44NDM3NSAtMTIuNTE5NTMxIDQuMjE4NzUgLTEyLjQwNjI1IDMuNTcwMzEyIC0xMi4yMTg3NSBDIDIuOTI1NzgxIC0xMi4wMDc4MTIgMi4yMjI2NTYgLTExLjcwMzEyNSAxLjQ4MDQ2OSAtMTEuMjg1MTU2IEwgMS40ODA0NjkgLTEzLjE4NzUgQyAyLjI0MjE4OCAtMTMuNDg4MjgxIDIuOTQ1MzEyIC0xMy43MTg3NSAzLjU4OTg0NCAtMTMuODcxMDk0IEMgNC4yMzgyODEgLTE0LjAyMzQzOCA0Ljg0Mzc1IC0xNC4wOTc2NTYgNS4zOTQ1MzEgLTE0LjA5NzY1NiBDIDYuODIwMzEyIC0xNC4wOTc2NTYgNy45NjA5MzggLTEzLjczODI4MSA4LjgxNjQwNiAtMTMuMDE1NjI1IEMgOS42NzE4NzUgLTEyLjI5Mjk2OSAxMC4xMDkzNzUgLTExLjM0Mzc1IDEwLjEwOTM3NSAtMTAuMTQ0NTMxIEMgMTAuMTA5Mzc1IC05LjU3NDIxOSA5Ljk5MjE4OCAtOS4wMjM0MzggOS43ODUxNTYgLTguNTMxMjUgQyA5LjU3NDIxOSAtOC4wMTk1MzEgOS4xOTUzMTIgLTcuNDEwMTU2IDguNjI1IC02LjcyNjU2MiBDIDguNDcyNjU2IC02LjUzNTE1NiA3Ljk4MDQ2OSAtNi4wMjM0MzggNy4xNDQ1MzEgLTUuMTY3OTY5IEMgNi4zMDg1OTQgLTQuMzEyNSA1LjE0ODQzOCAtMy4xMTcxODggMy42NDg0MzggLTEuNTc4MTI1Ii8+JiN4YTsgICAgICA8L2c+JiN4YTsgICAgICA8ZyBpZD0iZ2x5cGgtMC00Ij4mI3hhOyAgICAgICAgPHBhdGggaWQ9InBhdGgxNjAiIGQ9Ik0gNy43MTQ4NDQgLTcuNDY4NzUgQyA4LjYwNTQ2OSAtNy4yNzczNDQgOS4zMDg1OTQgLTYuODc4OTA2IDkuODA0Njg4IC02LjI2OTUzMSBDIDEwLjI5Njg3NSAtNS42NjAxNTYgMTAuNTYyNSAtNC45MDIzNDQgMTAuNTYyNSAtNC4wMjczNDQgQyAxMC41NjI1IC0yLjY2MDE1NiAxMC4wODk4NDQgLTEuNTk3NjU2IDkuMTU2MjUgLTAuODU1NDY5IEMgOC4yMDcwMzEgLTAuMTEzMjgxIDYuODc4OTA2IDAuMjQ2MDk0IDUuMTQ4NDM4IDAuMjQ2MDk0IEMgNC41NTg1OTQgMC4yNDYwOTQgMy45NTMxMjUgMC4xOTE0MDYgMy4zNDM3NSAwLjA3NDIxODggQyAyLjczNDM3NSAtMC4wMTk1MzEyIDIuMDg5ODQ0IC0wLjE5MTQwNiAxLjQ0NTMxMiAtMC40MTc5NjkgTCAxLjQ0NTMxMiAtMi4yMjI2NTYgQyAxLjk1NzAzMSAtMS45MTc5NjkgMi41MjczNDQgLTEuNjkxNDA2IDMuMTUyMzQ0IC0xLjUzOTA2MiBDIDMuNzYxNzE5IC0xLjM4NjcxOSA0LjQwNjI1IC0xLjMxMjUgNS4wOTM3NSAtMS4zMTI1IEMgNi4yNjk1MzEgLTEuMzEyNSA3LjE2NDA2MiAtMS41MzkwNjIgNy43Njk1MzEgLTEuOTk2MDk0IEMgOC4zNzg5MDYgLTIuNDQ5MjE5IDguNzAzMTI1IC0zLjEzNjcxOSA4LjcwMzEyNSAtNC4wMjczNDQgQyA4LjcwMzEyNSAtNC44MjQyMTkgOC40MTc5NjkgLTUuNDcyNjU2IDcuODQ3NjU2IC01LjkyOTY4OCBDIDcuMjc3MzQ0IC02LjM4MjgxMiA2LjQ4MDQ2OSAtNi42MzI4MTIgNS40NTMxMjUgLTYuNjMyODEyIEwgMy44Mzk4NDQgLTYuNjMyODEyIEwgMy44Mzk4NDQgLTguMTcxODc1IEwgNS41MjczNDQgLTguMTcxODc1IEMgNi40NDE0MDYgLTguMTcxODc1IDcuMTQ0NTMxIC04LjMzOTg0NCA3LjYzNjcxOSAtOC43MjI2NTYgQyA4LjEzMjgxMiAtOS4wODIwMzEgOC4zNzg5MDYgLTkuNjEzMjgxIDguMzc4OTA2IC0xMC4zMTY0MDYgQyA4LjM3ODkwNiAtMTEuMDE5NTMxIDguMTEzMjgxIC0xMS41NzAzMTIgNy42MTcxODggLTExLjk0OTIxOSBDIDcuMTA1NDY5IC0xMi4zMzIwMzEgNi4zODI4MTIgLTEyLjUxOTUzMSA1LjQ1MzEyNSAtMTIuNTE5NTMxIEMgNC45NDE0MDYgLTEyLjUxOTUzMSA0LjM5MDYyNSAtMTIuNDY0ODQ0IDMuODAwNzgxIC0xMi4zNTE1NjIgQyAzLjIxMDkzOCAtMTIuMjM0Mzc1IDIuNTY2NDA2IC0xMi4wNjY0MDYgMS44NjMyODEgLTExLjgzNTkzOCBMIDEuODYzMjgxIC0xMy41MDc4MTIgQyAyLjU2NjQwNiAtMTMuNjk5MjE5IDMuMjMwNDY5IC0xMy44NTE1NjIgMy44NTU0NjkgLTEzLjk0NTMxMiBDIDQuNDY0ODQ0IC0xNC4wMzkwNjIgNS4wNTQ2ODggLTE0LjA5NzY1NiA1LjYyNSAtMTQuMDk3NjU2IEMgNy4wMzEyNSAtMTQuMDk3NjU2IDguMTUyMzQ0IC0xMy43NzM0MzggOC45ODgyODEgLTEzLjEyODkwNiBDIDkuODI0MjE5IC0xMi40ODQzNzUgMTAuMjQyMTg4IC0xMS42MDkzNzUgMTAuMjQyMTg4IC0xMC41MDc4MTIgQyAxMC4yNDIxODggLTkuNzQ2MDk0IDEwLjAxMTcxOSAtOS4xMDE1NjIgOS41NzQyMTkgLTguNTcwMzEyIEMgOS4xNDA2MjUgLTguMDM1MTU2IDguNTExNzE5IC03LjY1NjI1IDcuNzE0ODQ0IC03LjQ2ODc1Ii8+JiN4YTsgICAgICA8L2c+JiN4YTsgICAgICA8ZyBpZD0iZ2x5cGgtMS0wIi8+JiN4YTsgICAgICA8ZyBpZD0iZ2x5cGgtMS0xIj4mI3hhOyAgICAgICAgPHBhdGggaWQ9InBhdGgxNjQiIGQ9Ik0gMi41NDY4NzUgLTE4Ljk1MzEyNSBMIDEzLjQ0MTQwNiAtMTguOTUzMTI1IEwgMTMuNDQxNDA2IC0xNi43OTY4NzUgTCA1LjEyMTA5NCAtMTYuNzk2ODc1IEwgNS4xMjEwOTQgLTExLjIwNzAzMSBMIDEyLjYzNjcxOSAtMTEuMjA3MDMxIEwgMTIuNjM2NzE5IC05LjA0Njg3NSBMIDUuMTIxMDk0IC05LjA0Njg3NSBMIDUuMTIxMDk0IDAgTCAyLjU0Njg3NSAwIEwgMi41NDY4NzUgLTE4Ljk1MzEyNSIvPiYjeGE7ICAgICAgPC9nPiYjeGE7ICAgICAgPGcgaWQ9ImdseXBoLTEtMiI+JiN4YTsgICAgICAgIDxwYXRoIGlkPSJwYXRoMTY3IiBkPSJNIDUuMTIxMDk0IC0xNi44NDc2NTYgTCA1LjEyMTA5NCAtOS43MjI2NTYgTCA4LjM0NzY1NiAtOS43MjI2NTYgQyA5LjU0Mjk2OSAtOS43MjI2NTYgMTAuNDUzMTI1IC0xMC4wMTE3MTkgMTEuMTAxNTYyIC0xMC42MzI4MTIgQyAxMS43NTM5MDYgLTExLjI1NzgxMiAxMi4wODk4NDQgLTEyLjE0MDYyNSAxMi4wODk4NDQgLTEzLjI4NTE1NiBDIDEyLjA4OTg0NCAtMTQuNDI5Njg4IDExLjc1MzkwNiAtMTUuMjg5MDYyIDExLjEwMTU2MiAtMTUuOTEwMTU2IEMgMTAuNDUzMTI1IC0xNi41MzUxNTYgOS41NDI5NjkgLTE2Ljg0NzY1NiA4LjM0NzY1NiAtMTYuODQ3NjU2IEwgNS4xMjEwOTQgLTE2Ljg0NzY1NiBNIDIuNTQ2ODc1IC0xOC45NTMxMjUgTCA4LjM0NzY1NiAtMTguOTUzMTI1IEMgMTAuNDUzMTI1IC0xOC45NTMxMjUgMTIuMDYyNSAtMTguNDYwOTM4IDEzLjE1NjI1IC0xNy40OTYwOTQgQyAxNC4yNDYwOTQgLTE2LjUzNTE1NiAxNC43OTI5NjkgLTE1LjEzMjgxMiAxNC43OTI5NjkgLTEzLjI4NTE1NiBDIDE0Ljc5Mjk2OSAtMTEuNDE0MDYyIDE0LjI0NjA5NCAtOS45ODQzNzUgMTMuMTU2MjUgLTkuMDQ2ODc1IEMgMTIuMDYyNSAtOC4wODU5MzggMTAuNDUzMTI1IC03LjYxNzE4OCA4LjM0NzY1NiAtNy42MTcxODggTCA1LjEyMTA5NCAtNy42MTcxODggTCA1LjEyMTA5NCAwIEwgMi41NDY4NzUgMCBMIDIuNTQ2ODc1IC0xOC45NTMxMjUiLz4mI3hhOyAgICAgIDwvZz4mI3hhOyAgICAgIDxnIGlkPSJnbHlwaC0xLTMiPiYjeGE7ICAgICAgICA8cGF0aCBpZD0icGF0aDE3MCIgZD0iTSAxMy45MTAxNTYgLTE4LjMyODEyNSBMIDEzLjkxMDE1NiAtMTUuODM1OTM4IEMgMTIuOTIxODc1IC0xNi4zMDA3ODEgMTIuMDExNzE5IC0xNi42NDA2MjUgMTEuMTUyMzQ0IC0xNi44NzUgQyAxMC4yNjk1MzEgLTE3LjA4MjAzMSA5LjQzNzUgLTE3LjIxMDkzOCA4LjY1NjI1IC0xNy4yMTA5MzggQyA3LjI1MzkwNiAtMTcuMjEwOTM4IDYuMTYwMTU2IC0xNi45MjU3ODEgNS40MDYyNSAtMTYuNDA2MjUgQyA0LjY1MjM0NCAtMTUuODU5Mzc1IDQuMjg5MDYyIC0xNS4wNzgxMjUgNC4yODkwNjIgLTE0LjA5Mzc1IEMgNC4yODkwNjIgLTEzLjI2MTcxOSA0LjUyMzQzOCAtMTIuNjA5Mzc1IDUuMDQyOTY5IC0xMi4xOTUzMTIgQyA1LjUzOTA2MiAtMTEuNzUzOTA2IDYuNSAtMTEuNDE0MDYyIDcuOTAyMzQ0IC0xMS4xNTIzNDQgTCA5LjQ2NDg0NCAtMTAuODQzNzUgQyAxMS4zNjMyODEgLTEwLjQ3NjU2MiAxMi43NjU2MjUgLTkuODI4MTI1IDEzLjY3NTc4MSAtOC45MTc5NjkgQyAxNC41ODU5MzggLTcuOTgwNDY5IDE1LjA1NDY4OCAtNi43NjE3MTkgMTUuMDU0Njg4IC01LjIyNjU2MiBDIDE1LjA1NDY4OCAtMy4zNzg5MDYgMTQuNDI5Njg4IC0yLjAwMzkwNiAxMy4yMDcwMzEgLTEuMDY2NDA2IEMgMTEuOTYwOTM4IC0wLjEyODkwNiAxMC4xNjQwNjIgMC4zMzk4NDQgNy44MDA3ODEgMC4zMzk4NDQgQyA2Ljg5MDYyNSAwLjMzOTg0NCA1LjkyOTY4OCAwLjIzNDM3NSA0LjkxNDA2MiAwLjA1MDc4MTIgQyAzLjg5ODQzOCAtMC4xMjg5MDYgMi44NTkzNzUgLTAuNDE0MDYyIDEuNzkyOTY5IC0wLjgzMjAzMSBMIDEuNzkyOTY5IC0zLjQ4NDM3NSBDIDIuODM1OTM4IC0yLjg4NjcxOSAzLjg0NzY1NiAtMi40NDUzMTIgNC44MzU5MzggLTIuMTU2MjUgQyA1LjgyNDIxOSAtMS44NDc2NTYgNi44MTI1IC0xLjcxNDg0NCA3LjgwMDc4MSAtMS43MTQ4NDQgQyA5LjI1NzgxMiAtMS43MTQ4NDQgMTAuMzc1IC0yLjAwMzkwNiAxMS4xNzk2ODggLTIuNTc0MjE5IEMgMTEuOTYwOTM4IC0zLjE0NDUzMSAxMi4zNzUgLTMuOTUzMTI1IDEyLjM3NSAtNS4wNDI5NjkgQyAxMi4zNzUgLTUuOTgwNDY5IDEyLjA4OTg0NCAtNi43MDcwMzEgMTEuNTE5NTMxIC03LjIyNjU2MiBDIDEwLjk0NTMxMiAtNy43NDYwOTQgMTAuMDExNzE5IC04LjEzNjcxOSA4LjcxMDkzOCAtOC4zOTg0MzggTCA3LjE0ODQzOCAtOC43MTA5MzggQyA1LjIyNjU2MiAtOS4wNzQyMTkgMy44NDc2NTYgLTkuNjcxODc1IDIuOTg4MjgxIC0xMC41MDM5MDYgQyAyLjEzMjgxMiAtMTEuMzA4NTk0IDEuNzE0ODQ0IC0xMi40Mjk2ODggMS43MTQ4NDQgLTEzLjg4MjgxMiBDIDEuNzE0ODQ0IC0xNS41NDY4NzUgMi4yODkwNjIgLTE2Ljg3NSAzLjQ4NDM3NSAtMTcuODM1OTM4IEMgNC42NTIzNDQgLTE4Ljc5Njg3NSA2LjI5Mjk2OSAtMTkuMjkyOTY5IDguMzcxMDk0IC0xOS4yOTI5NjkgQyA5LjI1NzgxMiAtMTkuMjkyOTY5IDEwLjE0MDYyNSAtMTkuMjE0ODQ0IDExLjA3NDIxOSAtMTkuMDU4NTk0IEMgMTEuOTg0Mzc1IC0xOC45MDIzNDQgMTIuOTIxODc1IC0xOC42NDA2MjUgMTMuOTEwMTU2IC0xOC4zMjgxMjUiLz4mI3hhOyAgICAgIDwvZz4mI3hhOyAgICAgIDxnIGlkPSJnbHlwaC0yLTAiPiYjeGE7ICAgICAgICA8cGF0aCBpZD0icGF0aDE3MyIgZD0iTSA1LjcyMjY1NiAtMTEuOTUzMTI1IEMgNC44MDQ2ODggLTExLjk1MzEyNSA0LjEyMTA5NCAtMTEuNTAzOTA2IDMuNjUyMzQ0IC0xMC42MDE1NjIgQyAzLjE4NzUgLTkuNzAzMTI1IDIuOTY4NzUgLTguMzUxNTYyIDIuOTY4NzUgLTYuNTUwNzgxIEMgMi45Njg3NSAtNC43NTM5MDYgMy4xODc1IC0zLjQwMjM0NCAzLjY1MjM0NCAtMi41MDM5MDYgQyA0LjEyMTA5NCAtMS42MDE1NjIgNC44MDQ2ODggLTEuMTUyMzQ0IDUuNzIyNjU2IC0xLjE1MjM0NCBDIDYuNjQwNjI1IC0xLjE1MjM0NCA3LjMyNDIxOSAtMS42MDE1NjIgNy43OTI5NjkgLTIuNTAzOTA2IEMgOC4yNDIxODggLTMuNDAyMzQ0IDguNDc2NTYyIC00Ljc1MzkwNiA4LjQ3NjU2MiAtNi41NTA3ODEgQyA4LjQ3NjU2MiAtOC4zNTE1NjIgOC4yNDIxODggLTkuNzAzMTI1IDcuNzkyOTY5IC0xMC42MDE1NjIgQyA3LjMyNDIxOSAtMTEuNTAzOTA2IDYuNjQwNjI1IC0xMS45NTMxMjUgNS43MjI2NTYgLTExLjk1MzEyNSBNIDUuNzIyNjU2IC0xMy4zNTU0NjkgQyA3LjE4MzU5NCAtMTMuMzU1NDY5IDguMjk2ODc1IC0xMi43NjE3MTkgOS4wODk4NDQgLTExLjYwOTM3NSBDIDkuODYzMjgxIC0xMC40NDE0MDYgMTAuMjYxNzE5IC04Ljc0NjA5NCAxMC4yNjE3MTkgLTYuNTUwNzgxIEMgMTAuMjYxNzE5IC00LjMzOTg0NCA5Ljg2MzI4MSAtMi42NDQ1MzEgOS4wODk4NDQgLTEuNDkyMTg4IEMgOC4yOTY4NzUgLTAuMzQzNzUgNy4xODM1OTQgMC4yMzQzNzUgNS43MjI2NTYgMC4yMzQzNzUgQyA0LjI0NjA5NCAwLjIzNDM3NSAzLjExMzI4MSAtMC4zNDM3NSAyLjMzOTg0NCAtMS40OTIxODggQyAxLjU2NjQwNiAtMi42NDQ1MzEgMS4xODc1IC00LjMzOTg0NCAxLjE4NzUgLTYuNTUwNzgxIEMgMS4xODc1IC04Ljc0NjA5NCAxLjU2NjQwNiAtMTAuNDQxNDA2IDIuMzM5ODQ0IC0xMS42MDkzNzUgQyAzLjExMzI4MSAtMTIuNzYxNzE5IDQuMjQ2MDk0IC0xMy4zNTU0NjkgNS43MjI2NTYgLTEzLjM1NTQ2OSIvPiYjeGE7ICAgICAgPC9nPiYjeGE7ICAgICAgPGcgaWQ9ImdseXBoLTItMSI+JiN4YTsgICAgICAgIDxwYXRoIGlkPSJwYXRoMTc2IiBkPSJNIDEuOTI1NzgxIC0yLjIzMDQ2OSBMIDMuNzgxMjUgLTIuMjMwNDY5IEwgMy43ODEyNSAwIEwgMS45MjU3ODEgMCBMIDEuOTI1NzgxIC0yLjIzMDQ2OSIvPiYjeGE7ICAgICAgPC9nPiYjeGE7ICAgICAgPGcgaWQ9ImdseXBoLTItMiI+JiN4YTsgICAgICAgIDxwYXRoIGlkPSJwYXRoMTc5IiBkPSJNIDEuOTQ1MzEyIC0xMy4xMjEwOTQgTCA4LjkxMDE1NiAtMTMuMTIxMDk0IEwgOC45MTAxNTYgLTExLjYyODkwNiBMIDMuNTYyNSAtMTEuNjI4OTA2IEwgMy41NjI1IC04LjQwNjI1IEMgMy44MTY0MDYgLTguNDk2MDk0IDQuMDg1OTM4IC04LjU2NjQwNiA0LjMzOTg0NCAtOC42MDU0NjkgQyA0LjU4OTg0NCAtOC42NDA2MjUgNC44NTkzNzUgLTguNjc1NzgxIDUuMTEzMjgxIC04LjY3NTc4MSBDIDYuNTcwMzEyIC04LjY3NTc4MSA3LjcyMjY1NiAtOC4yNjE3MTkgOC41ODU5MzggLTcuNDY4NzUgQyA5LjQ0OTIxOSAtNi42NjAxNTYgOS44ODI4MTIgLTUuNTc4MTI1IDkuODgyODEyIC00LjIxMDkzOCBDIDkuODgyODEyIC0yLjc4OTA2MiA5LjQzMzU5NCAtMS42OTE0MDYgOC41NTA3ODEgLTAuOTE3OTY5IEMgNy42Njc5NjkgLTAuMTQ0NTMxIDYuNDI1NzgxIDAuMjM0Mzc1IDQuODQzNzUgMC4yMzQzNzUgQyA0LjI4NTE1NiAwLjIzNDM3NSAzLjcyNjU2MiAwLjE3OTY4OCAzLjE0ODQzOCAwLjEwOTM3NSBDIDIuNTc0MjE5IDAuMDE5NTMxMiAxLjk5NjA5NCAtMC4xMDkzNzUgMS4zODY3MTkgLTAuMzA0Njg4IEwgMS4zODY3MTkgLTIuMDg5ODQ0IEMgMS45MDYyNSAtMS44MDA3ODEgMi40NDkyMTkgLTEuNTg1OTM4IDMuMDIzNDM4IC0xLjQ0MTQwNiBDIDMuNTgyMDMxIC0xLjI5Njg3NSA0LjE3NTc4MSAtMS4yNDIxODggNC44MDQ2ODggLTEuMjQyMTg4IEMgNS44MTI1IC0xLjI0MjE4OCA2LjYyNSAtMS40OTIxODggNy4yMTg3NSAtMi4wMzUxNTYgQyA3Ljc5Mjk2OSAtMi41NzQyMTkgOC4xMDE1NjIgLTMuMjkyOTY5IDguMTAxNTYyIC00LjIxMDkzOCBDIDguMTAxNTYyIC01LjExMzI4MSA3Ljc5Mjk2OSAtNS44MzIwMzEgNy4yMTg3NSAtNi4zNzEwOTQgQyA2LjYyNSAtNi45MTAxNTYgNS44MTI1IC03LjE4MzU5NCA0LjgwNDY4OCAtNy4xODM1OTQgQyA0LjMzOTg0NCAtNy4xODM1OTQgMy44NTE1NjIgLTcuMTI4OTA2IDMuMzgyODEyIC03LjAxOTUzMSBDIDIuOTE0MDYyIC02LjkxMDE1NiAyLjQyOTY4OCAtNi43NSAxLjk0NTMxMiAtNi41MzUxNTYgTCAxLjk0NTMxMiAtMTMuMTIxMDk0Ii8+JiN4YTsgICAgICA8L2c+JiN4YTsgICAgICA8ZyBpZD0iZ2x5cGgtMi0zIj4mI3hhOyAgICAgICAgPHBhdGggaWQ9InBhdGgxODIiIGQ9Ik0gNS43MjI2NTYgLTYuMjI2NTYyIEMgNC44Nzg5MDYgLTYuMjI2NTYyIDQuMjEwOTM4IC01Ljk5MjE4OCAzLjcyNjU2MiAtNS41NDI5NjkgQyAzLjIzODI4MSAtNS4wOTM3NSAzLjAwNzgxMiAtNC40ODA0NjkgMy4wMDc4MTIgLTMuNjkxNDA2IEMgMy4wMDc4MTIgLTIuODk4NDM4IDMuMjM4MjgxIC0yLjI2OTUzMSAzLjcyNjU2MiAtMS44MTY0MDYgQyA0LjIxMDkzOCAtMS4zNjcxODggNC44Nzg5MDYgLTEuMTUyMzQ0IDUuNzIyNjU2IC0xLjE1MjM0NCBDIDYuNTUwNzgxIC0xLjE1MjM0NCA3LjIxODc1IC0xLjM2NzE4OCA3LjcwMzEyNSAtMS44MzU5MzggQyA4LjE5MTQwNiAtMi4yODUxNTYgOC40NDE0MDYgLTIuODk4NDM4IDguNDQxNDA2IC0zLjY5MTQwNiBDIDguNDQxNDA2IC00LjQ4MDQ2OSA4LjE5MTQwNiAtNS4wOTM3NSA3LjcyMjY1NiAtNS41NDI5NjkgQyA3LjIzNDM3NSAtNS45OTIxODggNi41NzAzMTIgLTYuMjI2NTYyIDUuNzIyNjU2IC02LjIyNjU2MiBNIDMuOTQxNDA2IC02Ljk4NDM3NSBDIDMuMTg3NSAtNy4xNjQwNjIgMi41OTM3NSAtNy41MjM0MzggMi4xNjAxNTYgLTguMDQ2ODc1IEMgMS43MjY1NjIgLTguNTY2NDA2IDEuNTMxMjUgLTkuMTk5MjE5IDEuNTMxMjUgLTkuOTUzMTI1IEMgMS41MzEyNSAtMTAuOTk2MDk0IDEuODkwNjI1IC0xMS44MjQyMTkgMi42NDQ1MzEgLTEyLjQzNzUgQyAzLjM4MjgxMiAtMTMuMDUwNzgxIDQuNDEwMTU2IC0xMy4zNTU0NjkgNS43MjI2NTYgLTEzLjM1NTQ2OSBDIDcuMDE5NTMxIC0xMy4zNTU0NjkgOC4wNDY4NzUgLTEzLjA1MDc4MSA4LjgwMDc4MSAtMTIuNDM3NSBDIDkuNTM5MDYyIC0xMS44MjQyMTkgOS45MTc5NjkgLTEwLjk5NjA5NCA5LjkxNzk2OSAtOS45NTMxMjUgQyA5LjkxNzk2OSAtOS4xOTkyMTkgOS43MDMxMjUgLTguNTY2NDA2IDkuMjY5NTMxIC04LjA0Njg3NSBDIDguODM5ODQ0IC03LjUyMzQzOCA4LjI2MTcxOSAtNy4xNjQwNjIgNy41MDc4MTIgLTYuOTg0Mzc1IEMgOC4zNTE1NjIgLTYuNzg1MTU2IDkuMDE5NTMxIC02LjM5MDYyNSA5LjUwMzkwNiAtNS44MTI1IEMgOS45NzI2NTYgLTUuMjM4MjgxIDEwLjIyMjY1NiAtNC41MTk1MzEgMTAuMjIyNjU2IC0zLjY5MTQwNiBDIDEwLjIyMjY1NiAtMi40MTAxNTYgOS44MjgxMjUgLTEuNDQxNDA2IDkuMDU0Njg4IC0wLjc3MzQzOCBDIDguMjYxNzE5IC0wLjA4OTg0MzggNy4xNjQwNjIgMC4yMzQzNzUgNS43MjI2NTYgMC4yMzQzNzUgQyA0LjI2NTYyNSAwLjIzNDM3NSAzLjE0ODQzOCAtMC4wODk4NDM4IDIuMzc1IC0wLjc3MzQzOCBDIDEuNjAxNTYyIC0xLjQ0MTQwNiAxLjIyMjY1NiAtMi40MTAxNTYgMS4yMjI2NTYgLTMuNjkxNDA2IEMgMS4yMjI2NTYgLTQuNTE5NTMxIDEuNDU3MDMxIC01LjIzODI4MSAxLjk0NTMxMiAtNS44MTI1IEMgMi40MTAxNTYgLTYuMzkwNjI1IDMuMDc4MTI1IC02Ljc4NTE1NiAzLjk0MTQwNiAtNi45ODQzNzUgTSAzLjI5Mjk2OSAtOS43OTI5NjkgQyAzLjI5Mjk2OSAtOS4xMDkzNzUgMy40OTIxODggLTguNTY2NDA2IDMuOTI1NzgxIC04LjE5MTQwNiBDIDQuMzU1NDY5IC03LjgxMjUgNC45NDkyMTkgLTcuNjMyODEyIDUuNzIyNjU2IC03LjYzMjgxMiBDIDYuNDgwNDY5IC03LjYzMjgxMiA3LjA3NDIxOSAtNy44MTI1IDcuNTA3ODEyIC04LjE5MTQwNiBDIDcuOTM3NSAtOC41NjY0MDYgOC4xNTIzNDQgLTkuMTA5Mzc1IDguMTUyMzQ0IC05Ljc5Mjk2OSBDIDguMTUyMzQ0IC0xMC40NzY1NjIgNy45Mzc1IC0xMC45OTYwOTQgNy41MDc4MTIgLTExLjM3NSBDIDcuMDc0MjE5IC0xMS43NTM5MDYgNi40ODA0NjkgLTExLjk1MzEyNSA1LjcyMjY1NiAtMTEuOTUzMTI1IEMgNC45NDkyMTkgLTExLjk1MzEyNSA0LjM1NTQ2OSAtMTEuNzUzOTA2IDMuOTI1NzgxIC0xMS4zNzUgQyAzLjQ5MjE4OCAtMTAuOTk2MDk0IDMuMjkyOTY5IC0xMC40NzY1NjIgMy4yOTI5NjkgLTkuNzkyOTY5Ii8+JiN4YTsgICAgICA8L2c+JiN4YTsgICAgICA8ZyBpZD0iZ2x5cGgtMi00Ij4mI3hhOyAgICAgICAgPHBhdGggaWQ9InBhdGgxODUiIGQ9Ik0gNS45NDE0MDYgLTcuMjczNDM4IEMgNS4xNDg0MzggLTcuMjczNDM4IDQuNTE5NTMxIC02Ljk4NDM3NSA0LjA1MDc4MSAtNi40NDUzMTIgQyAzLjU4MjAzMSAtNS45MDIzNDQgMy4zNDc2NTYgLTUuMTQ4NDM4IDMuMzQ3NjU2IC00LjIxMDkzOCBDIDMuMzQ3NjU2IC0zLjI1NzgxMiAzLjU4MjAzMSAtMi41MDM5MDYgNC4wNTA3ODEgLTEuOTYwOTM4IEMgNC41MTk1MzEgLTEuNDIxODc1IDUuMTQ4NDM4IC0xLjE1MjM0NCA1Ljk0MTQwNiAtMS4xNTIzNDQgQyA2LjczMDQ2OSAtMS4xNTIzNDQgNy4zNjMyODEgLTEuNDIxODc1IDcuODI4MTI1IC0xLjk2MDkzOCBDIDguMjk2ODc1IC0yLjUwMzkwNiA4LjUzMTI1IC0zLjI1NzgxMiA4LjUzMTI1IC00LjIxMDkzOCBDIDguNTMxMjUgLTUuMTQ4NDM4IDguMjk2ODc1IC01LjkwMjM0NCA3LjgyODEyNSAtNi40NDUzMTIgQyA3LjM2MzI4MSAtNi45ODQzNzUgNi43MzA0NjkgLTcuMjczNDM4IDUuOTQxNDA2IC03LjI3MzQzOCBNIDkuNDY4NzUgLTEyLjgzNTkzOCBMIDkuNDY4NzUgLTExLjIxNDg0NCBDIDkuMDE5NTMxIC0xMS40Mjk2ODggOC41NjY0MDYgLTExLjU5Mzc1IDguMTE3MTg4IC0xMS42OTkyMTkgQyA3LjY0ODQzOCAtMTEuODA4NTk0IDcuMTk5MjE5IC0xMS44NjMyODEgNi43Njk1MzEgLTExLjg2MzI4MSBDIDUuNTc4MTI1IC0xMS44NjMyODEgNC42Nzk2ODggLTExLjQ2NDg0NCA0LjA2NjQwNiAtMTAuNjc1NzgxIEMgMy40NTcwMzEgLTkuODgyODEyIDMuMDk3NjU2IC04LjY3NTc4MSAzLjAyMzQzOCAtNy4wOTM3NSBDIDMuMzY3MTg4IC03LjU5NzY1NiAzLjc5Njg3NSAtNy45OTIxODggNC4zMjAzMTIgLTguMjYxNzE5IEMgNC44NDM3NSAtOC41MzEyNSA1LjQxNzk2OSAtOC42NzU3ODEgNi4wNDY4NzUgLTguNjc1NzgxIEMgNy4zNjMyODEgLTguNjc1NzgxIDguNDA2MjUgLTguMjYxNzE5IDkuMTYwMTU2IC03LjQ2ODc1IEMgOS45MTc5NjkgLTYuNjc5Njg4IDEwLjMxMjUgLTUuNTc4MTI1IDEwLjMxMjUgLTQuMjEwOTM4IEMgMTAuMzEyNSAtMi44NjMyODEgOS44OTg0MzggLTEuNzgxMjUgOS4xMDkzNzUgLTAuOTcyNjU2IEMgOC4zMTY0MDYgLTAuMTYwMTU2IDcuMjUzOTA2IDAuMjM0Mzc1IDUuOTQxNDA2IDAuMjM0Mzc1IEMgNC40Mjk2ODggMC4yMzQzNzUgMy4yNTc4MTIgLTAuMzQzNzUgMi40NjQ4NDQgLTEuNDkyMTg4IEMgMS42NTYyNSAtMi42NDQ1MzEgMS4yNjE3MTkgLTQuMzM5ODQ0IDEuMjYxNzE5IC02LjU1MDc4MSBDIDEuMjYxNzE5IC04LjYyMTA5NCAxLjc0NjA5NCAtMTAuMjc3MzQ0IDIuNzM0Mzc1IC0xMS41MDM5MDYgQyAzLjcwNzAzMSAtMTIuNzI2NTYyIDUuMDM5MDYyIC0xMy4zNTU0NjkgNi42OTUzMTIgLTEzLjM1NTQ2OSBDIDcuMTI4OTA2IC0xMy4zNTU0NjkgNy41NzgxMjUgLTEzLjMwMDc4MSA4LjA0Njg3NSAtMTMuMjMwNDY5IEMgOC40OTYwOTQgLTEzLjE0MDYyNSA4Ljk2NDg0NCAtMTMuMDE1NjI1IDkuNDY4NzUgLTEyLjgzNTkzOCIvPiYjeGE7ICAgICAgPC9nPiYjeGE7ICAgICAgPGcgaWQ9ImdseXBoLTItNSI+JiN4YTsgICAgICAgIDxwYXRoIGlkPSJwYXRoMTg4IiBkPSJNIDMuNDU3MDMxIC0xLjQ5MjE4OCBMIDkuNjQ4NDM4IC0xLjQ5MjE4OCBMIDkuNjQ4NDM4IDAgTCAxLjMxMjUgMCBMIDEuMzEyNSAtMS40OTIxODggQyAxLjk4MDQ2OSAtMi4xNzk2ODggMi44OTg0MzggLTMuMTEzMjgxIDQuMDY2NDA2IC00LjMwMDc4MSBDIDUuMjE4NzUgLTUuNDcyNjU2IDUuOTU3MDMxIC02LjIyNjU2MiA2LjI2NTYyNSAtNi41NzAzMTIgQyA2LjgzOTg0NCAtNy4xOTkyMTkgNy4yMzQzNzUgLTcuNzM4MjgxIDcuNDUzMTI1IC04LjE5MTQwNiBDIDcuNjY3OTY5IC04LjYyMTA5NCA3Ljc5Mjk2OSAtOS4wNzAzMTIgNy43OTI5NjkgLTkuNTAzOTA2IEMgNy43OTI5NjkgLTEwLjE4NzUgNy41NDI5NjkgLTEwLjc2NTYyNSA3LjA1NDY4OCAtMTEuMTk1MzEyIEMgNi41NzAzMTIgLTExLjYyODkwNiA1Ljk0MTQwNiAtMTEuODYzMjgxIDUuMTQ4NDM4IC0xMS44NjMyODEgQyA0LjU4OTg0NCAtMTEuODYzMjgxIDMuOTk2MDk0IC0xMS43NTM5MDYgMy4zODI4MTIgLTExLjU3NDIxOSBDIDIuNzczNDM4IC0xMS4zNzUgMi4xMDU0NjkgLTExLjA4OTg0NCAxLjQwMjM0NCAtMTAuNjkxNDA2IEwgMS40MDIzNDQgLTEyLjQ5MjE4OCBDIDIuMTI1IC0xMi43ODEyNSAyLjc4OTA2MiAtMTIuOTk2MDk0IDMuNDAyMzQ0IC0xMy4xNDA2MjUgQyA0LjAxNTYyNSAtMTMuMjg1MTU2IDQuNTg5ODQ0IC0xMy4zNTU0NjkgNS4xMTMyODEgLTEzLjM1NTQ2OSBDIDYuNDYwOTM4IC0xMy4zNTU0NjkgNy41NDI5NjkgLTEzLjAxNTYyNSA4LjM1MTU2MiAtMTIuMzI4MTI1IEMgOS4xNjAxNTYgLTExLjY0NDUzMSA5LjU3NDIxOSAtMTAuNzQ2MDk0IDkuNTc0MjE5IC05LjYxMzI4MSBDIDkuNTc0MjE5IC05LjA3MDMxMiA5LjQ2ODc1IC04LjU1MDc4MSA5LjI2OTUzMSAtOC4wODIwMzEgQyA5LjA3MDMxMiAtNy41OTc2NTYgOC43MTA5MzggLTcuMDE5NTMxIDguMTcxODc1IC02LjM3MTA5NCBDIDguMDI3MzQ0IC02LjE5MTQwNiA3LjU1ODU5NCAtNS43MDcwMzEgNi43Njk1MzEgLTQuODk0NTMxIEMgNS45NzY1NjIgLTQuMDg1OTM4IDQuODc4OTA2IC0yLjk1MzEyNSAzLjQ1NzAzMSAtMS40OTIxODgiLz4mI3hhOyAgICAgIDwvZz4mI3hhOyAgICAgIDxnIGlkPSJnbHlwaC0yLTYiPiYjeGE7ICAgICAgICA8cGF0aCBpZD0icGF0aDE5MSIgZD0iTSA2LjgwNDY4OCAtMTEuNTc0MjE5IEwgMi4zMjAzMTIgLTQuNTcwMzEyIEwgNi44MDQ2ODggLTQuNTcwMzEyIEwgNi44MDQ2ODggLTExLjU3NDIxOSBNIDYuMzM1OTM4IC0xMy4xMjEwOTQgTCA4LjU2NjQwNiAtMTMuMTIxMDk0IEwgOC41NjY0MDYgLTQuNTcwMzEyIEwgMTAuNDQxNDA2IC00LjU3MDMxMiBMIDEwLjQ0MTQwNiAtMy4wOTc2NTYgTCA4LjU2NjQwNiAtMy4wOTc2NTYgTCA4LjU2NjQwNiAwIEwgNi44MDQ2ODggMCBMIDYuODA0Njg4IC0zLjA5NzY1NiBMIDAuODgyODEyIC0zLjA5NzY1NiBMIDAuODgyODEyIC00LjgwNDY4OCBMIDYuMzM1OTM4IC0xMy4xMjEwOTQiLz4mI3hhOyAgICAgIDwvZz4mI3hhOyAgICAgIDxnIGlkPSJnbHlwaC0yLTciPiYjeGE7ICAgICAgICA8cGF0aCBpZD0icGF0aDE5NCIgZD0iTSA5LjYyODkwNiAtMTIuNjkxNDA2IEwgOS42Mjg5MDYgLTEwLjk2MDkzOCBDIDguOTQ1MzEyIC0xMS4yODUxNTYgOC4zMTY0MDYgLTExLjUxOTUzMSA3LjcyMjY1NiAtMTEuNjgzNTk0IEMgNy4xMDkzNzUgLTExLjgyNDIxOSA2LjUzNTE1NiAtMTEuOTE0MDYyIDUuOTkyMTg4IC0xMS45MTQwNjIgQyA1LjAyMzQzOCAtMTEuOTE0MDYyIDQuMjY1NjI1IC0xMS43MTg3NSAzLjc0MjE4OCAtMTEuMzU5Mzc1IEMgMy4yMjI2NTYgLTEwLjk4MDQ2OSAyLjk2ODc1IC0xMC40NDE0MDYgMi45Njg3NSAtOS43NTc4MTIgQyAyLjk2ODc1IC05LjE3OTY4OCAzLjEzMjgxMiAtOC43MzA0NjkgMy40OTIxODggLTguNDQxNDA2IEMgMy44MzU5MzggLTguMTM2NzE5IDQuNSAtNy45MDIzNDQgNS40NzI2NTYgLTcuNzIyNjU2IEwgNi41NTA3ODEgLTcuNTA3ODEyIEMgNy44NjcxODggLTcuMjUzOTA2IDguODM5ODQ0IC02LjgwNDY4OCA5LjQ2ODc1IC02LjE3NTc4MSBDIDEwLjA5NzY1NiAtNS41MjczNDQgMTAuNDIxODc1IC00LjY3OTY4OCAxMC40MjE4NzUgLTMuNjE3MTg4IEMgMTAuNDIxODc1IC0yLjMzOTg0NCA5Ljk4ODI4MSAtMS4zODY3MTkgOS4xNDQ1MzEgLTAuNzM4MjgxIEMgOC4yODEyNSAtMC4wODk4NDM4IDcuMDM5MDYyIDAuMjM0Mzc1IDUuMzk4NDM4IDAuMjM0Mzc1IEMgNC43Njk1MzEgMC4yMzQzNzUgNC4xMDU0NjkgMC4xNjAxNTYgMy40MDIzNDQgMC4wMzUxNTYyIEMgMi42OTkyMTkgLTAuMDg5ODQzOCAxLjk4MDQ2OSAtMC4yODkwNjIgMS4yNDIxODggLTAuNTc0MjE5IEwgMS4yNDIxODggLTIuNDEwMTU2IEMgMS45NjA5MzggLTEuOTk2MDk0IDIuNjY0MDYyIC0xLjY5MTQwNiAzLjM0NzY1NiAtMS40OTIxODggQyA0LjAzMTI1IC0xLjI3NzM0NCA0LjcxNDg0NCAtMS4xODc1IDUuMzk4NDM4IC0xLjE4NzUgQyA2LjQwNjI1IC0xLjE4NzUgNy4xODM1OTQgLTEuMzg2NzE5IDcuNzM4MjgxIC0xLjc4MTI1IEMgOC4yODEyNSAtMi4xNzk2ODggOC41NjY0MDYgLTIuNzM0Mzc1IDguNTY2NDA2IC0zLjQ5MjE4OCBDIDguNTY2NDA2IC00LjE0MDYyNSA4LjM3MTA5NCAtNC42NDQ1MzEgNy45NzI2NTYgLTUuMDAzOTA2IEMgNy41NzgxMjUgLTUuMzYzMjgxIDYuOTI5Njg4IC01LjYzMjgxMiA2LjAzMTI1IC01LjgxMjUgTCA0Ljk0OTIxOSAtNi4wMzEyNSBDIDMuNjE3MTg4IC02LjI4MTI1IDIuNjY0MDYyIC02LjY5NTMxMiAyLjA3MDMxMiAtNy4yNzM0MzggQyAxLjQ3NjU2MiAtNy44MjgxMjUgMS4xODc1IC04LjYwNTQ2OSAxLjE4NzUgLTkuNjEzMjgxIEMgMS4xODc1IC0xMC43NjU2MjUgMS41ODU5MzggLTExLjY4MzU5NCAyLjQxMDE1NiAtMTIuMzQ3NjU2IEMgMy4yMjI2NTYgLTEzLjAxNTYyNSA0LjM1NTQ2OSAtMTMuMzU1NDY5IDUuNzk2ODc1IC0xMy4zNTU0NjkgQyA2LjQwNjI1IC0xMy4zNTU0NjkgNy4wMTk1MzEgLTEzLjMwMDc4MSA3LjY2Nzk2OSAtMTMuMTk1MzEyIEMgOC4yOTY4NzUgLTEzLjA4NTkzOCA4Ljk0NTMxMiAtMTIuOTA2MjUgOS42Mjg5MDYgLTEyLjY5MTQwNiIvPiYjeGE7ICAgICAgPC9nPiYjeGE7ICAgICAgPGcgaWQ9ImdseXBoLTItOCI+JiN4YTsgICAgICAgIDxwYXRoIGlkPSJwYXRoMTk3IiBkPSJNIDkuODgyODEyIC01Ljk0MTQwNiBMIDkuODgyODEyIDAgTCA4LjI2MTcxOSAwIEwgOC4yNjE3MTkgLTUuODg2NzE5IEMgOC4yNjE3MTkgLTYuODIwMzEyIDguMDYyNSAtNy41MDc4MTIgNy43MDMxMjUgLTcuOTcyNjU2IEMgNy4zNDM3NSAtOC40NDE0MDYgNi44MDQ2ODggLTguNjc1NzgxIDYuMDg1OTM4IC04LjY3NTc4MSBDIDUuMjAzMTI1IC04LjY3NTc4MSA0LjUxOTUzMSAtOC4zODY3MTkgNC4wMTU2MjUgLTcuODI4MTI1IEMgMy41MTE3MTkgLTcuMjczNDM4IDMuMjU3ODEyIC02LjUxNTYyNSAzLjI1NzgxMiAtNS41NjI1IEwgMy4yNTc4MTIgMCBMIDEuNjM2NzE5IDAgTCAxLjYzNjcxOSAtMTMuNjc5Njg4IEwgMy4yNTc4MTIgLTEzLjY3OTY4OCBMIDMuMjU3ODEyIC04LjMxNjQwNiBDIDMuNjM2NzE5IC04Ljg5MDYyNSA0LjA4NTkzOCAtOS4zNDM3NSA0LjYyNSAtOS42Mjg5MDYgQyA1LjE0ODQzOCAtOS45MTc5NjkgNS43NjE3MTkgLTEwLjA3ODEyNSA2LjQ0NTMxMiAtMTAuMDc4MTI1IEMgNy41NTg1OTQgLTEwLjA3ODEyNSA4LjQyNTc4MSAtOS43MTg3NSA5IC05LjAxOTUzMSBDIDkuNTc0MjE5IC04LjMxNjQwNiA5Ljg4MjgxMiAtNy4yODkwNjIgOS44ODI4MTIgLTUuOTQxNDA2Ii8+JiN4YTsgICAgICA8L2c+JiN4YTsgICAgICA8ZyBpZD0iZ2x5cGgtMi05Ij4mI3hhOyAgICAgICAgPHBhdGggaWQ9InBhdGgyMDAiIGQ9Ik0gNi4xNzU3ODEgLTQuOTQ5MjE5IEMgNC44NTkzNzUgLTQuOTQ5MjE5IDMuOTYwOTM4IC00Ljc4OTA2MiAzLjQ1NzAzMSAtNC41IEMgMi45NTMxMjUgLTQuMTk1MzEyIDIuNjk5MjE5IC0zLjY5MTQwNiAyLjY5OTIxOSAtMi45Njg3NSBDIDIuNjk5MjE5IC0yLjM5NDUzMSAyLjg3ODkwNiAtMS45MjU3ODEgMy4yNTc4MTIgLTEuNjAxNTYyIEMgMy42MzY3MTkgLTEuMjYxNzE5IDQuMTU2MjUgLTEuMDk3NjU2IDQuODA0Njg4IC0xLjA5NzY1NiBDIDUuNzA3MDMxIC0xLjA5NzY1NiA2LjQyNTc4MSAtMS40MDIzNDQgNi45NjQ4NDQgLTIuMDUwNzgxIEMgNy41MDc4MTIgLTIuNjgzNTk0IDcuNzc3MzQ0IC0zLjUyNzM0NCA3Ljc3NzM0NCAtNC41ODk4NDQgTCA3Ljc3NzM0NCAtNC45NDkyMTkgTCA2LjE3NTc4MSAtNC45NDkyMTkgTSA5LjM5NDUzMSAtNS42MTcxODggTCA5LjM5NDUzMSAwIEwgNy43NzczNDQgMCBMIDcuNzc3MzQ0IC0xLjQ5MjE4OCBDIDcuMzk4NDM4IC0wLjg4MjgxMiA2LjkyOTY4OCAtMC40NDkyMTkgNi4zOTA2MjUgLTAuMTc5Njg4IEMgNS44NTE1NjIgMC4wODk4NDM4IDUuMTY0MDYyIDAuMjM0Mzc1IDQuMzc1IDAuMjM0Mzc1IEMgMy4zNjcxODggMC4yMzQzNzUgMi41NTQ2ODggLTAuMDM1MTU2MiAxLjk2MDkzOCAtMC41OTM3NSBDIDEuMzY3MTg4IC0xLjE1MjM0NCAxLjA3ODEyNSAtMS45MDYyNSAxLjA3ODEyNSAtMi44NjMyODEgQyAxLjA3ODEyNSAtMy45NjA5MzggMS40NDE0MDYgLTQuNzg5MDYyIDIuMTk1MzEyIC01LjM2MzI4MSBDIDIuOTMzNTk0IC01LjkyMTg3NSA0LjAzMTI1IC02LjIxMDkzOCA1LjUwNzgxMiAtNi4yMTA5MzggTCA3Ljc3NzM0NCAtNi4yMTA5MzggTCA3Ljc3NzM0NCAtNi4zNzEwOTQgQyA3Ljc3NzM0NCAtNy4xMDkzNzUgNy41MjM0MzggLTcuNjg3NSA3LjAzOTA2MiAtOC4xMDE1NjIgQyA2LjU1MDc4MSAtOC40OTYwOTQgNS44NjcxODggLTguNzEwOTM4IDQuOTg0Mzc1IC04LjcxMDkzOCBDIDQuNDEwMTU2IC04LjcxMDkzOCAzLjg3MTA5NCAtOC42NDA2MjUgMy4zMjgxMjUgLTguNDk2MDk0IEMgMi43ODkwNjIgLTguMzUxNTYyIDIuMjg1MTU2IC04LjE1MjM0NCAxLjgwMDc4MSAtNy45MDIzNDQgTCAxLjgwMDc4MSAtOS4zOTQ1MzEgQyAyLjM3NSAtOS42MTMyODEgMi45NTMxMjUgLTkuNzkyOTY5IDMuNTExNzE5IC05Ljg5ODQzOCBDIDQuMDY2NDA2IC0xMC4wMDc4MTIgNC42MDkzNzUgLTEwLjA3ODEyNSA1LjE0ODQzOCAtMTAuMDc4MTI1IEMgNi41NzAzMTIgLTEwLjA3ODEyNSA3LjYzMjgxMiAtOS43MDMxMjUgOC4zMzU5MzggLTguOTY0ODQ0IEMgOS4wMzUxNTYgLTguMjI2NTYyIDkuMzk0NTMxIC03LjEwOTM3NSA5LjM5NDUzMSAtNS42MTcxODgiLz4mI3hhOyAgICAgIDwvZz4mI3hhOyAgICAgIDxnIGlkPSJnbHlwaC0yLTEwIj4mI3hhOyAgICAgICAgPHBhdGggaWQ9InBhdGgyMDMiIGQ9Ik0gMy4yNTc4MTIgLTEuNDc2NTYyIEwgMy4yNTc4MTIgMy43MjY1NjIgTCAxLjYzNjcxOSAzLjcyNjU2MiBMIDEuNjM2NzE5IC05Ljg0NzY1NiBMIDMuMjU3ODEyIC05Ljg0NzY1NiBMIDMuMjU3ODEyIC04LjM1MTU2MiBDIDMuNTgyMDMxIC04LjkyOTY4OCA0LjAxNTYyNSAtOS4zNTkzNzUgNC41MzUxNTYgLTkuNjQ4NDM4IEMgNS4wNTg1OTQgLTkuOTM3NSA1LjY4NzUgLTEwLjA3ODEyNSA2LjQwNjI1IC0xMC4wNzgxMjUgQyA3LjU5NzY1NiAtMTAuMDc4MTI1IDguNTY2NDA2IC05LjU5Mzc1IDkuMzI0MjE5IC04LjY1NjI1IEMgMTAuMDYyNSAtNy43MDMxMjUgMTAuNDQxNDA2IC02LjQ2MDkzOCAxMC40NDE0MDYgLTQuOTE0MDYyIEMgMTAuNDQxNDA2IC0zLjM2NzE4OCAxMC4wNjI1IC0yLjEwNTQ2OSA5LjMyNDIxOSAtMS4xNzE4NzUgQyA4LjU2NjQwNiAtMC4yMzQzNzUgNy41OTc2NTYgMC4yMzQzNzUgNi40MDYyNSAwLjIzNDM3NSBDIDUuNjg3NSAwLjIzNDM3NSA1LjA1ODU5NCAwLjA4OTg0MzggNC41MzUxNTYgLTAuMTc5Njg4IEMgNC4wMTU2MjUgLTAuNDQ5MjE5IDMuNTgyMDMxIC0wLjg4MjgxMiAzLjI1NzgxMiAtMS40NzY1NjIgTSA4Ljc2NTYyNSAtNC45MTQwNjIgQyA4Ljc2NTYyNSAtNi4xMDE1NjIgOC41MTU2MjUgLTcuMDE5NTMxIDguMDI3MzQ0IC03LjcwMzEyNSBDIDcuNTIzNDM4IC04LjM4NjcxOSA2Ljg1OTM3NSAtOC43MzA0NjkgNi4wMTE3MTkgLTguNzMwNDY5IEMgNS4xNDg0MzggLTguNzMwNDY5IDQuNDgwNDY5IC04LjM4NjcxOSAzLjk5NjA5NCAtNy43MDMxMjUgQyAzLjQ5MjE4OCAtNy4wMTk1MzEgMy4yNTc4MTIgLTYuMTAxNTYyIDMuMjU3ODEyIC00LjkxNDA2MiBDIDMuMjU3ODEyIC0zLjcyNjU2MiAzLjQ5MjE4OCAtMi43ODkwNjIgMy45OTYwOTQgLTIuMTA1NDY5IEMgNC40ODA0NjkgLTEuNDIxODc1IDUuMTQ4NDM4IC0xLjA5NzY1NiA2LjAxMTcxOSAtMS4wOTc2NTYgQyA2Ljg1OTM3NSAtMS4wOTc2NTYgNy41MjM0MzggLTEuNDIxODc1IDguMDI3MzQ0IC0yLjEwNTQ2OSBDIDguNTE1NjI1IC0yLjc4OTA2MiA4Ljc2NTYyNSAtMy43MjY1NjIgOC43NjU2MjUgLTQuOTE0MDYyIi8+JiN4YTsgICAgICA8L2c+JiN4YTsgICAgICA8ZyBpZD0iZ2x5cGgtMi0xMSI+JiN4YTsgICAgICAgIDxwYXRoIGlkPSJwYXRoMjA2IiBkPSJNIDEwLjExNzE4OCAtNS4zMjgxMjUgTCAxMC4xMTcxODggLTQuNTM1MTU2IEwgMi42ODM1OTQgLTQuNTM1MTU2IEMgMi43NTM5MDYgLTMuNDIxODc1IDMuMDc4MTI1IC0yLjU1NDY4OCAzLjY5MTQwNiAtMS45ODA0NjkgQyA0LjI4NTE1NiAtMS40MDIzNDQgNS4xMTMyODEgLTEuMTE3MTg4IDYuMTkxNDA2IC0xLjExNzE4OCBDIDYuODA0Njg4IC0xLjExNzE4OCA3LjQxNDA2MiAtMS4xODc1IDcuOTkyMTg4IC0xLjMzMjAzMSBDIDguNTY2NDA2IC0xLjQ3NjU2MiA5LjE2MDE1NiAtMS43MTA5MzggOS43MzgyODEgLTIuMDM1MTU2IEwgOS43MzgyODEgLTAuNTAzOTA2IEMgOS4xNjAxNTYgLTAuMjUzOTA2IDguNTY2NDA2IC0wLjA1NDY4NzUgNy45NTcwMzEgMC4wNTQ2ODc1IEMgNy4zNDM3NSAwLjE2MDE1NiA2LjcxNDg0NCAwLjIzNDM3NSA2LjEwMTU2MiAwLjIzNDM3NSBDIDQuNTE5NTMxIDAuMjM0Mzc1IDMuMjc3MzQ0IC0wLjIxNDg0NCAyLjM1OTM3NSAtMS4xMTcxODggQyAxLjQ0MTQwNiAtMi4wMTU2MjUgMC45ODgyODEgLTMuMjU3ODEyIDAuOTg4MjgxIC00LjgyNDIxOSBDIDAuOTg4MjgxIC02LjQyNTc4MSAxLjQyMTg3NSAtNy43MDMxMjUgMi4yODUxNTYgLTguNjU2MjUgQyAzLjE0ODQzOCAtOS41OTM3NSA0LjMzOTg0NCAtMTAuMDc4MTI1IDUuODEyNSAtMTAuMDc4MTI1IEMgNy4xNDQ1MzEgLTEwLjA3ODEyNSA4LjE5MTQwNiAtOS42NDg0MzggOC45NjQ4NDQgLTguODAwNzgxIEMgOS43MTg3NSAtNy45Mzc1IDEwLjExNzE4OCAtNi43ODUxNTYgMTAuMTE3MTg4IC01LjMyODEyNSBNIDguNDk2MDk0IC01Ljc5Njg3NSBDIDguNDc2NTYyIC02LjY3OTY4OCA4LjIyNjU2MiAtNy4zNzg5MDYgNy43NTc4MTIgLTcuOTIxODc1IEMgNy4yNzM0MzggLTguNDQxNDA2IDYuNjI1IC04LjcxMDkzOCA1LjgzMjAzMSAtOC43MTA5MzggQyA0LjkzMzU5NCAtOC43MTA5MzggNC4yMTA5MzggLTguNDQxNDA2IDMuNjcxODc1IC03LjkzNzUgQyAzLjEzMjgxMiAtNy40MzM1OTQgMi44MDg1OTQgLTYuNzE0ODQ0IDIuNzM0Mzc1IC01Ljc5Njg3NSBMIDguNDk2MDk0IC01Ljc5Njg3NSIvPiYjeGE7ICAgICAgPC9nPiYjeGE7ICAgICAgPGcgaWQ9ImdseXBoLTItMTIiPiYjeGE7ICAgICAgICA8cGF0aCBpZD0icGF0aDIwOSIgZD0iTSA3Ljk3MjY1NiAtOS41NTg1OTQgTCA3Ljk3MjY1NiAtOC4wMjczNDQgQyA3LjUwNzgxMiAtOC4yNDIxODggNy4wMzkwNjIgLTguNDI1NzgxIDYuNTUwNzgxIC04LjU1MDc4MSBDIDYuMDQ2ODc1IC04LjY1NjI1IDUuNTQyOTY5IC04LjczMDQ2OSA1LjAyMzQzOCAtOC43MzA0NjkgQyA0LjIxMDkzOCAtOC43MzA0NjkgMy42MDE1NjIgLTguNjA1NDY5IDMuMjAzMTI1IC04LjM1MTU2MiBDIDIuODA4NTk0IC04LjEwMTU2MiAyLjYwOTM3NSAtNy43MzgyODEgMi42MDkzNzUgLTcuMjUzOTA2IEMgMi42MDkzNzUgLTYuODc1IDIuNzUzOTA2IC02LjU4OTg0NCAzLjA0Mjk2OSAtNi4zNzEwOTQgQyAzLjMyODEyNSAtNi4xNTYyNSAzLjkwNjI1IC01Ljk0MTQwNiA0Ljc2OTUzMSAtNS43NjE3MTkgTCA1LjMyODEyNSAtNS42MzI4MTIgQyA2LjQ4MDQ2OSAtNS4zODI4MTIgNy4yODkwNjIgLTUuMDIzNDM4IDcuNzc3MzQ0IC00LjU4OTg0NCBDIDguMjQyMTg4IC00LjE0MDYyNSA4LjQ5NjA5NCAtMy41MTE3MTkgOC40OTYwOTQgLTIuNzE4NzUgQyA4LjQ5NjA5NCAtMS44MDA3ODEgOC4xMzY3MTkgLTEuMDc4MTI1IDcuNDE0MDYyIC0wLjU1ODU5NCBDIDYuNjk1MzEyIC0wLjAxOTUzMTIgNS42ODc1IDAuMjM0Mzc1IDQuNDI5Njg4IDAuMjM0Mzc1IEMgMy44ODY3MTkgMC4yMzQzNzUgMy4zNDc2NTYgMC4xNzk2ODggMi43NzM0MzggMC4wODk4NDM4IEMgMi4xOTUzMTIgMCAxLjYwMTU2MiAtMC4xNDQ1MzEgMC45NzI2NTYgLTAuMzU5Mzc1IEwgMC45NzI2NTYgLTIuMDM1MTU2IEMgMS41NjY0MDYgLTEuNzEwOTM4IDIuMTYwMTU2IC0xLjQ3NjU2MiAyLjczNDM3NSAtMS4zMzIwMzEgQyAzLjMxMjUgLTEuMTcxODc1IDMuODg2NzE5IC0xLjA5NzY1NiA0LjQ2NDg0NCAtMS4wOTc2NTYgQyA1LjIxODc1IC0xLjA5NzY1NiA1LjgxMjUgLTEuMjIyNjU2IDYuMjI2NTYyIC0xLjQ3NjU2MiBDIDYuNjI1IC0xLjcyNjU2MiA2LjgzOTg0NCAtMi4xMDU0NjkgNi44Mzk4NDQgLTIuNTkzNzUgQyA2LjgzOTg0NCAtMy4wMjM0MzggNi42Nzk2ODggLTMuMzY3MTg4IDYuMzkwNjI1IC0zLjYwMTU2MiBDIDYuMTAxNTYyIC0zLjgzNTkzOCA1LjQ1MzEyNSAtNC4wNjY0MDYgNC40NDUzMTIgLTQuMjg1MTU2IEwgMy44ODY3MTkgLTQuNDEwMTU2IEMgMi44Nzg5MDYgLTQuNjI1IDIuMTQwNjI1IC00Ljk0OTIxOSAxLjcxMDkzOCAtNS4zODI4MTIgQyAxLjI2MTcxOSAtNS44MTI1IDEuMDQyOTY5IC02LjQwNjI1IDEuMDQyOTY5IC03LjE4MzU5NCBDIDEuMDQyOTY5IC04LjEwMTU2MiAxLjM2NzE4OCAtOC44MjAzMTIgMi4wMTU2MjUgLTkuMzI0MjE5IEMgMi42NjQwNjIgLTkuODI4MTI1IDMuNjAxNTYyIC0xMC4wNzgxMjUgNC44MjQyMTkgLTEwLjA3ODEyNSBDIDUuNDE3OTY5IC0xMC4wNzgxMjUgNS45NzY1NjIgLTEwLjAyNzM0NCA2LjUxNTYyNSAtOS45Mzc1IEMgNy4wMzkwNjIgLTkuODQ3NjU2IDcuNTIzNDM4IC05LjcxODc1IDcuOTcyNjU2IC05LjU1ODU5NCIvPiYjeGE7ICAgICAgPC9nPiYjeGE7ICAgICAgPGcgaWQ9ImdseXBoLTItMTMiLz4mI3hhOyAgICAgIDxnIGlkPSJnbHlwaC0yLTE0Ij4mI3hhOyAgICAgICAgPHBhdGggaWQ9InBhdGgyMTMiIGQ9Ik0gNS41NzgxMjUgLTEzLjY2MDE1NiBDIDQuNzg5MDYyIC0xMi4yOTI5NjkgNC4yMTA5MzggLTEwLjk2MDkzOCAzLjgzNTkzOCAtOS42NDg0MzggQyAzLjQzNzUgLTguMzM1OTM4IDMuMjU3ODEyIC03LjAwMzkwNiAzLjI1NzgxMiAtNS42NTIzNDQgQyAzLjI1NzgxMiAtNC4yODUxNTYgMy40Mzc1IC0yLjk1MzEyNSAzLjgzNTkzOCAtMS42MzY3MTkgQyA0LjIxMDkzOCAtMC4zMDQ2ODggNC43ODkwNjIgMS4wMDc4MTIgNS41NzgxMjUgMi4zNTkzNzUgTCA0LjE3NTc4MSAyLjM1OTM3NSBDIDMuMjkyOTY5IDAuOTcyNjU2IDIuNjI4OTA2IC0wLjM1OTM3NSAyLjE5NTMxMiAtMS42OTE0MDYgQyAxLjc2NTYyNSAtMy4wMjM0MzggMS41NDY4NzUgLTQuMzM5ODQ0IDEuNTQ2ODc1IC01LjY1MjM0NCBDIDEuNTQ2ODc1IC02Ljk0OTIxOSAxLjc2NTYyNSAtOC4yNjE3MTkgMi4xOTUzMTIgLTkuNTkzNzUgQyAyLjYyODkwNiAtMTAuOTI1NzgxIDMuMjc3MzQ0IC0xMi4yNzczNDQgNC4xNzU3ODEgLTEzLjY2MDE1NiBMIDUuNTc4MTI1IC0xMy42NjAxNTYiLz4mI3hhOyAgICAgIDwvZz4mI3hhOyAgICAgIDxnIGlkPSJnbHlwaC0yLTE1Ij4mI3hhOyAgICAgICAgPHBhdGggaWQ9InBhdGgyMTYiIGQ9Ik0gOS4zNTkzNzUgLTcuOTU3MDMxIEMgOS43NTc4MTIgLTguNjc1NzgxIDEwLjI0MjE4OCAtOS4xOTkyMTkgMTAuODAwNzgxIC05LjU1ODU5NCBDIDExLjM1OTM3NSAtOS44OTg0MzggMTIuMDIzNDM4IC0xMC4wNzgxMjUgMTIuNzk2ODc1IC0xMC4wNzgxMjUgQyAxMy44MDQ2ODggLTEwLjA3ODEyNSAxNC41OTc2NTYgLTkuNzE4NzUgMTUuMTU2MjUgLTkgQyAxNS43MTQ4NDQgLTguMjgxMjUgMTYuMDAzOTA2IC03LjI1MzkwNiAxNi4wMDM5MDYgLTUuOTQxNDA2IEwgMTYuMDAzOTA2IDAgTCAxNC4zODI4MTIgMCBMIDE0LjM4MjgxMiAtNS44ODY3MTkgQyAxNC4zODI4MTIgLTYuODIwMzEyIDE0LjIwMzEyNSAtNy41MjM0MzggMTMuODc4OTA2IC03Ljk5MjE4OCBDIDEzLjUzNTE1NiAtOC40NDE0MDYgMTMuMDMxMjUgLTguNjc1NzgxIDEyLjM0NzY1NiAtOC42NzU3ODEgQyAxMS41MDM5MDYgLTguNjc1NzgxIDEwLjgzNTkzOCAtOC4zODY3MTkgMTAuMzUxNTYyIC03LjgyODEyNSBDIDkuODYzMjgxIC03LjI3MzQzOCA5LjYyODkwNiAtNi41MTU2MjUgOS42Mjg5MDYgLTUuNTYyNSBMIDkuNjI4OTA2IDAgTCA4LjAxMTcxOSAwIEwgOC4wMTE3MTkgLTUuODg2NzE5IEMgOC4wMTE3MTkgLTYuODIwMzEyIDcuODI4MTI1IC03LjUyMzQzOCA3LjUwNzgxMiAtNy45OTIxODggQyA3LjE2NDA2MiAtOC40NDE0MDYgNi42NDA2MjUgLTguNjc1NzgxIDUuOTU3MDMxIC04LjY3NTc4MSBDIDUuMTI4OTA2IC04LjY3NTc4MSA0LjQ2NDg0NCAtOC4zODY3MTkgMy45NzY1NjIgLTcuODI4MTI1IEMgMy40OTIxODggLTcuMjczNDM4IDMuMjU3ODEyIC02LjUxNTYyNSAzLjI1NzgxMiAtNS41NjI1IEwgMy4yNTc4MTIgMCBMIDEuNjM2NzE5IDAgTCAxLjYzNjcxOSAtOS44NDc2NTYgTCAzLjI1NzgxMiAtOS44NDc2NTYgTCAzLjI1NzgxMiAtOC4zMTY0MDYgQyAzLjYxNzE4OCAtOC45MTAxNTYgNC4wNjY0MDYgLTkuMzU5Mzc1IDQuNTg5ODQ0IC05LjY0ODQzOCBDIDUuMDkzNzUgLTkuOTM3NSA1LjcwNzAzMSAtMTAuMDc4MTI1IDYuNDI1NzgxIC0xMC4wNzgxMjUgQyA3LjE0NDUzMSAtMTAuMDc4MTI1IDcuNzM4MjgxIC05Ljg5ODQzOCA4LjI0MjE4OCAtOS41MzkwNjIgQyA4Ljc0NjA5NCAtOS4xNzk2ODggOS4xMDkzNzUgLTguNjQwNjI1IDkuMzU5Mzc1IC03Ljk1NzAzMSIvPiYjeGE7ICAgICAgPC9nPiYjeGE7ICAgICAgPGcgaWQ9ImdseXBoLTItMTYiPiYjeGE7ICAgICAgICA8cGF0aCBpZD0icGF0aDIxOSIgZD0iTSA1LjUwNzgxMiAtOC43MTA5MzggQyA0LjY0NDUzMSAtOC43MTA5MzggMy45NjA5MzggLTguMzcxMDk0IDMuNDU3MDMxIC03LjY4NzUgQyAyLjk1MzEyNSAtNy4wMDM5MDYgMi42OTkyMTkgLTYuMDg1OTM4IDIuNjk5MjE5IC00LjkxNDA2MiBDIDIuNjk5MjE5IC0zLjcyNjU2MiAyLjkzMzU5NCAtMi44MDg1OTQgMy40Mzc1IC0yLjEyNSBDIDMuOTQxNDA2IC0xLjQ0MTQwNiA0LjYyNSAtMS4xMTcxODggNS41MDc4MTIgLTEuMTE3MTg4IEMgNi4zNzEwOTQgLTEuMTE3MTg4IDcuMDU0Njg4IC0xLjQ0MTQwNiA3LjU1ODU5NCAtMi4xMjUgQyA4LjA2MjUgLTIuODA4NTk0IDguMzE2NDA2IC0zLjcyNjU2MiA4LjMxNjQwNiAtNC45MTQwNjIgQyA4LjMxNjQwNiAtNi4wNjY0MDYgOC4wNjI1IC03LjAwMzkwNiA3LjU1ODU5NCAtNy42ODc1IEMgNy4wNTQ2ODggLTguMzcxMDk0IDYuMzcxMDk0IC04LjcxMDkzOCA1LjUwNzgxMiAtOC43MTA5MzggTSA1LjUwNzgxMiAtMTAuMDc4MTI1IEMgNi45MTAxNTYgLTEwLjA3ODEyNSA4LjAxMTcxOSAtOS42MTMyODEgOC44MjAzMTIgLTguNzEwOTM4IEMgOS42MTMyODEgLTcuNzkyOTY5IDEwLjAyNzM0NCAtNi41MzUxNTYgMTAuMDI3MzQ0IC00LjkxNDA2MiBDIDEwLjAyNzM0NCAtMy4yOTI5NjkgOS42MTMyODEgLTIuMDM1MTU2IDguODIwMzEyIC0xLjEzMjgxMiBDIDguMDExNzE5IC0wLjIxNDg0NCA2LjkxMDE1NiAwLjIzNDM3NSA1LjUwNzgxMiAwLjIzNDM3NSBDIDQuMDg1OTM4IDAuMjM0Mzc1IDIuOTY4NzUgLTAuMjE0ODQ0IDIuMTc5Njg4IC0xLjEzMjgxMiBDIDEuMzg2NzE5IC0yLjAzNTE1NiAwLjk4ODI4MSAtMy4yOTI5NjkgMC45ODgyODEgLTQuOTE0MDYyIEMgMC45ODgyODEgLTYuNTM1MTU2IDEuMzg2NzE5IC03Ljc5Mjk2OSAyLjE3OTY4OCAtOC43MTA5MzggQyAyLjk2ODc1IC05LjYxMzI4MSA0LjA4NTkzOCAtMTAuMDc4MTI1IDUuNTA3ODEyIC0xMC4wNzgxMjUiLz4mI3hhOyAgICAgIDwvZz4mI3hhOyAgICAgIDxnIGlkPSJnbHlwaC0yLTE3Ij4mI3hhOyAgICAgICAgPHBhdGggaWQ9InBhdGgyMjIiIGQ9Ik0gOC4xNzE4NzUgLTguMzUxNTYyIEwgOC4xNzE4NzUgLTEzLjY3OTY4OCBMIDkuNzkyOTY5IC0xMy42Nzk2ODggTCA5Ljc5Mjk2OSAwIEwgOC4xNzE4NzUgMCBMIDguMTcxODc1IC0xLjQ3NjU2MiBDIDcuODI4MTI1IC0wLjg4MjgxMiA3LjM5ODQzOCAtMC40NDkyMTkgNi44NzUgLTAuMTc5Njg4IEMgNi4zNTU0NjkgMC4wODk4NDM4IDUuNzQyMTg4IDAuMjM0Mzc1IDUuMDIzNDM4IDAuMjM0Mzc1IEMgMy44MzU5MzggMC4yMzQzNzUgMi44NjMyODEgLTAuMjM0Mzc1IDIuMTA1NDY5IC0xLjE3MTg3NSBDIDEuMzUxNTYyIC0yLjEwNTQ2OSAwLjk4ODI4MSAtMy4zNjcxODggMC45ODgyODEgLTQuOTE0MDYyIEMgMC45ODgyODEgLTYuNDYwOTM4IDEuMzUxNTYyIC03LjcwMzEyNSAyLjEwNTQ2OSAtOC42NTYyNSBDIDIuODYzMjgxIC05LjU5Mzc1IDMuODM1OTM4IC0xMC4wNzgxMjUgNS4wMjM0MzggLTEwLjA3ODEyNSBDIDUuNzQyMTg4IC0xMC4wNzgxMjUgNi4zNTU0NjkgLTkuOTM3NSA2Ljg3NSAtOS42NDg0MzggQyA3LjM5ODQzOCAtOS4zNTkzNzUgNy44MjgxMjUgLTguOTI5Njg4IDguMTcxODc1IC04LjM1MTU2MiBNIDIuNjY0MDYyIC00LjkxNDA2MiBDIDIuNjY0MDYyIC0zLjcyNjU2MiAyLjg5ODQzOCAtMi43ODkwNjIgMy4zODI4MTIgLTIuMTA1NDY5IEMgMy44NzEwOTQgLTEuNDIxODc1IDQuNTU0Njg4IC0xLjA5NzY1NiA1LjQxNzk2OSAtMS4wOTc2NTYgQyA2LjI2NTYyNSAtMS4wOTc2NTYgNi45Mjk2ODggLTEuNDIxODc1IDcuNDMzNTk0IC0yLjEwNTQ2OSBDIDcuOTIxODc1IC0yLjc4OTA2MiA4LjE3MTg3NSAtMy43MjY1NjIgOC4xNzE4NzUgLTQuOTE0MDYyIEMgOC4xNzE4NzUgLTYuMTAxNTYyIDcuOTIxODc1IC03LjAxOTUzMSA3LjQzMzU5NCAtNy43MDMxMjUgQyA2LjkyOTY4OCAtOC4zODY3MTkgNi4yNjU2MjUgLTguNzMwNDY5IDUuNDE3OTY5IC04LjczMDQ2OSBDIDQuNTU0Njg4IC04LjczMDQ2OSAzLjg3MTA5NCAtOC4zODY3MTkgMy4zODI4MTIgLTcuNzAzMTI1IEMgMi44OTg0MzggLTcuMDE5NTMxIDIuNjY0MDYyIC02LjEwMTU2MiAyLjY2NDA2MiAtNC45MTQwNjIiLz4mI3hhOyAgICAgIDwvZz4mI3hhOyAgICAgIDxnIGlkPSJnbHlwaC0yLTE4Ij4mI3hhOyAgICAgICAgPHBhdGggaWQ9InBhdGgyMjUiIGQ9Ik0gMS42OTE0MDYgLTEzLjY3OTY4OCBMIDMuMzEyNSAtMTMuNjc5Njg4IEwgMy4zMTI1IDAgTCAxLjY5MTQwNiAwIEwgMS42OTE0MDYgLTEzLjY3OTY4OCIvPiYjeGE7ICAgICAgPC9nPiYjeGE7ICAgICAgPGcgaWQ9ImdseXBoLTItMTkiPiYjeGE7ICAgICAgICA8cGF0aCBpZD0icGF0aDIyOCIgZD0iTSA5LjE3OTY4OCAyLjk2ODc1IEwgOS4xNzk2ODggNC4yMzA0NjkgTCAtMC4xNjAxNTYgNC4yMzA0NjkgTCAtMC4xNjAxNTYgMi45Njg3NSBMIDkuMTc5Njg4IDIuOTY4NzUiLz4mI3hhOyAgICAgIDwvZz4mI3hhOyAgICAgIDxnIGlkPSJnbHlwaC0yLTIwIj4mI3hhOyAgICAgICAgPHBhdGggaWQ9InBhdGgyMzEiIGQ9Ik0gMS42OTE0MDYgLTkuODQ3NjU2IEwgMy4zMTI1IC05Ljg0NzY1NiBMIDMuMzEyNSAwIEwgMS42OTE0MDYgMCBMIDEuNjkxNDA2IC05Ljg0NzY1NiBNIDEuNjkxNDA2IC0xMy42Nzk2ODggTCAzLjMxMjUgLTEzLjY3OTY4OCBMIDMuMzEyNSAtMTEuNjI4OTA2IEwgMS42OTE0MDYgLTExLjYyODkwNiBMIDEuNjkxNDA2IC0xMy42Nzk2ODgiLz4mI3hhOyAgICAgIDwvZz4mI3hhOyAgICAgIDxnIGlkPSJnbHlwaC0yLTIxIj4mI3hhOyAgICAgICAgPHBhdGggaWQ9InBhdGgyMzQiIGQ9Ik0gMC45ODgyODEgLTkuODQ3NjU2IEwgOC42NzU3ODEgLTkuODQ3NjU2IEwgOC42NzU3ODEgLTguMzcxMDk0IEwgMi41OTM3NSAtMS4yOTY4NzUgTCA4LjY3NTc4MSAtMS4yOTY4NzUgTCA4LjY3NTc4MSAwIEwgMC43NzM0MzggMCBMIDAuNzczNDM4IC0xLjQ3NjU2MiBMIDYuODU5Mzc1IC04LjU1MDc4MSBMIDAuOTg4MjgxIC04LjU1MDc4MSBMIDAuOTg4MjgxIC05Ljg0NzY1NiIvPiYjeGE7ICAgICAgPC9nPiYjeGE7ICAgICAgPGcgaWQ9ImdseXBoLTItMjIiPiYjeGE7ICAgICAgICA8cGF0aCBpZD0icGF0aDIzNyIgZD0iTSAxLjQ0MTQwNiAtMTMuNjYwMTU2IEwgMi44NDM3NSAtMTMuNjYwMTU2IEMgMy43MDcwMzEgLTEyLjI3NzM0NCA0LjM3NSAtMTAuOTI1NzgxIDQuODA0Njg4IC05LjU5Mzc1IEMgNS4yMzgyODEgLTguMjYxNzE5IDUuNDcyNjU2IC02Ljk0OTIxOSA1LjQ3MjY1NiAtNS42NTIzNDQgQyA1LjQ3MjY1NiAtNC4zMzk4NDQgNS4yMzgyODEgLTMuMDIzNDM4IDQuODA0Njg4IC0xLjY5MTQwNiBDIDQuMzc1IC0wLjM1OTM3NSAzLjcwNzAzMSAwLjk3MjY1NiAyLjg0Mzc1IDIuMzU5Mzc1IEwgMS40NDE0MDYgMi4zNTkzNzUgQyAyLjIxNDg0NCAxLjAwNzgxMiAyLjc4OTA2MiAtMC4zMDQ2ODggMy4xODc1IC0xLjYzNjcxOSBDIDMuNTYyNSAtMi45NTMxMjUgMy43NjE3MTkgLTQuMjg1MTU2IDMuNzYxNzE5IC01LjY1MjM0NCBDIDMuNzYxNzE5IC03LjAwMzkwNiAzLjU2MjUgLTguMzM1OTM4IDMuMTg3NSAtOS42NDg0MzggQyAyLjc4OTA2MiAtMTAuOTYwOTM4IDIuMjE0ODQ0IC0xMi4yOTI5NjkgMS40NDE0MDYgLTEzLjY2MDE1NiIvPiYjeGE7ICAgICAgPC9nPiYjeGE7ICAgICAgPGcgaWQ9ImdseXBoLTItMjMiPiYjeGE7ICAgICAgICA8cGF0aCBpZD0icGF0aDI0MCIgZD0iTSAxMS41OTM3NSAtMTIuMTEzMjgxIEwgMTEuNTkzNzUgLTEwLjI0MjE4OCBDIDEwLjk4MDQ2OSAtMTAuNzgxMjUgMTAuMzUxNTYyIC0xMS4xOTUzMTIgOS42NjQwNjIgLTExLjQ4NDM3NSBDIDguOTgwNDY5IC0xMS43NTM5MDYgOC4yODEyNSAtMTEuODk4NDM4IDcuNTIzNDM4IC0xMS44OTg0MzggQyA2LjAxMTcxOSAtMTEuODk4NDM4IDQuODU5Mzc1IC0xMS40Mjk2ODggNC4wNjY0MDYgLTEwLjUxMTcxOSBDIDMuMjc3MzQ0IC05LjU5Mzc1IDIuODc4OTA2IC04LjI4MTI1IDIuODc4OTA2IC02LjU1MDc4MSBDIDIuODc4OTA2IC00LjgyNDIxOSAzLjI3NzM0NCAtMy40OTIxODggNC4wNjY0MDYgLTIuNTc0MjE5IEMgNC44NTkzNzUgLTEuNjU2MjUgNi4wMTE3MTkgLTEuMjA3MDMxIDcuNTIzNDM4IC0xLjIwNzAzMSBDIDguMjgxMjUgLTEuMjA3MDMxIDguOTgwNDY5IC0xLjMzMjAzMSA5LjY2NDA2MiAtMS42MjEwOTQgQyAxMC4zNTE1NjIgLTEuODkwNjI1IDEwLjk4MDQ2OSAtMi4zMDQ2ODggMTEuNTkzNzUgLTIuODYzMjgxIEwgMTEuNTkzNzUgLTEuMDA3ODEyIEMgMTAuOTYwOTM4IC0wLjU3NDIxOSAxMC4yOTY4NzUgLTAuMjY5NTMxIDkuNjEzMjgxIC0wLjA3MDMxMjUgQyA4LjkyOTY4OCAwLjEyNSA4LjE5MTQwNiAwLjIzNDM3NSA3LjQxNDA2MiAwLjIzNDM3NSBDIDUuNDM3NSAwLjIzNDM3NSAzLjg3MTA5NCAtMC4zNTkzNzUgMi43MTg3NSAtMS41NjY0MDYgQyAxLjU2NjQwNiAtMi43NzM0MzggMS4wMDc4MTIgLTQuNDI5Njg4IDEuMDA3ODEyIC02LjU1MDc4MSBDIDEuMDA3ODEyIC04LjY1NjI1IDEuNTY2NDA2IC0xMC4zMTI1IDIuNzE4NzUgLTExLjUzOTA2MiBDIDMuODcxMDk0IC0xMi43NDIxODggNS40Mzc1IC0xMy4zNTU0NjkgNy40MTQwNjIgLTEzLjM1NTQ2OSBDIDguMjA3MDMxIC0xMy4zNTU0NjkgOC45NDUzMTIgLTEzLjI0NjA5NCA5LjYyODkwNiAtMTMuMDUwNzgxIEMgMTAuMzEyNSAtMTIuODM1OTM4IDEwLjk4MDQ2OSAtMTIuNTI3MzQ0IDExLjU5Mzc1IC0xMi4xMTMyODEiLz4mI3hhOyAgICAgIDwvZz4mI3hhOyAgICAgIDxnIGlkPSJnbHlwaC0yLTI0Ij4mI3hhOyAgICAgICAgPHBhdGggaWQ9InBhdGgyNDMiIGQ9Ik0gNy4zOTg0MzggLTguMzM1OTM4IEMgNy4yMTg3NSAtOC40NDE0MDYgNy4wMTk1MzEgLTguNTE1NjI1IDYuODA0Njg4IC04LjU2NjQwNiBDIDYuNTg5ODQ0IC04LjYwNTQ2OSA2LjM1NTQ2OSAtOC42NDA2MjUgNi4xMDE1NjIgLTguNjQwNjI1IEMgNS4xODM1OTQgLTguNjQwNjI1IDQuNDgwNDY5IC04LjMzNTkzOCAzLjk5NjA5NCAtNy43MzgyODEgQyAzLjQ5MjE4OCAtNy4xNDQ1MzEgMy4yNTc4MTIgLTYuMzAwNzgxIDMuMjU3ODEyIC01LjE4MzU5NCBMIDMuMjU3ODEyIDAgTCAxLjYzNjcxOSAwIEwgMS42MzY3MTkgLTkuODQ3NjU2IEwgMy4yNTc4MTIgLTkuODQ3NjU2IEwgMy4yNTc4MTIgLTguMzE2NDA2IEMgMy41ODIwMzEgLTguOTEwMTU2IDQuMDMxMjUgLTkuMzU5Mzc1IDQuNTcwMzEyIC05LjY0ODQzOCBDIDUuMTEzMjgxIC05LjkzNzUgNS43NzczNDQgLTEwLjA3ODEyNSA2LjU3MDMxMiAtMTAuMDc4MTI1IEMgNi42Nzk2ODggLTEwLjA3ODEyNSA2LjgwNDY4OCAtMTAuMDYyNSA2Ljk0OTIxOSAtMTAuMDYyNSBDIDcuMDc0MjE5IC0xMC4wNDI5NjkgNy4yMTg3NSAtMTAuMDI3MzQ0IDcuMzk4NDM4IC05Ljk4ODI4MSBMIDcuMzk4NDM4IC04LjMzNTkzOCIvPiYjeGE7ICAgICAgPC9nPiYjeGE7ICAgICAgPGcgaWQ9ImdseXBoLTItMjUiPiYjeGE7ICAgICAgICA8cGF0aCBpZD0icGF0aDI0NiIgZD0iTSAzLjI5Mjk2OSAtMTIuNjM2NzE5IEwgMy4yOTI5NjkgLTkuODQ3NjU2IEwgNi42MjUgLTkuODQ3NjU2IEwgNi42MjUgLTguNTg1OTM4IEwgMy4yOTI5NjkgLTguNTg1OTM4IEwgMy4yOTI5NjkgLTMuMjM4MjgxIEMgMy4yOTI5NjkgLTIuNDI5Njg4IDMuNDAyMzQ0IC0xLjkwNjI1IDMuNjE3MTg4IC0xLjY5MTQwNiBDIDMuODM1OTM4IC0xLjQ1NzAzMSA0LjI4NTE1NiAtMS4zNTE1NjIgNC45Njg3NSAtMS4zNTE1NjIgTCA2LjYyNSAtMS4zNTE1NjIgTCA2LjYyNSAwIEwgNC45Njg3NSAwIEMgMy43MDcwMzEgMCAyLjg0Mzc1IC0wLjIzNDM3NSAyLjM3NSAtMC43MDMxMjUgQyAxLjkwNjI1IC0xLjE3MTg3NSAxLjY3NTc4MSAtMi4wMTU2MjUgMS42NzU3ODEgLTMuMjM4MjgxIEwgMS42NzU3ODEgLTguNTg1OTM4IEwgMC40ODQzNzUgLTguNTg1OTM4IEwgMC40ODQzNzUgLTkuODQ3NjU2IEwgMS42NzU3ODEgLTkuODQ3NjU2IEwgMS42NzU3ODEgLTEyLjYzNjcxOSBMIDMuMjkyOTY5IC0xMi42MzY3MTkiLz4mI3hhOyAgICAgIDwvZz4mI3hhOyAgICAgIDxnIGlkPSJnbHlwaC0yLTI2Ij4mI3hhOyAgICAgICAgPHBhdGggaWQ9InBhdGgyNDkiIGQ9Ik0gNS43OTY4NzUgMC44OTg0MzggQyA1LjMyODEyNSAyLjA1MDc4MSA0Ljg3ODkwNiAyLjgyNDIxOSA0LjQ0NTMxMiAzLjE4NzUgQyA0LjAxNTYyNSAzLjU0Njg3NSAzLjQzNzUgMy43MjY1NjIgMi43MTg3NSAzLjcyNjU2MiBMIDEuNDIxODc1IDMuNzI2NTYyIEwgMS40MjE4NzUgMi4zNzUgTCAyLjM3NSAyLjM3NSBDIDIuODA4NTk0IDIuMzc1IDMuMTQ4NDM4IDIuMjY5NTMxIDMuNDAyMzQ0IDIuMDUwNzgxIEMgMy42NTIzNDQgMS44MzU5MzggMy45MjU3ODEgMS4zNTE1NjIgNC4yMzA0NjkgMC41NTg1OTQgTCA0LjUxOTUzMSAtMC4xNjAxNTYgTCAwLjUzOTA2MiAtOS44NDc2NTYgTCAyLjI1IC05Ljg0NzY1NiBMIDUuMzI4MTI1IC0yLjE0MDYyNSBMIDguNDA2MjUgLTkuODQ3NjU2IEwgMTAuMTE3MTg4IC05Ljg0NzY1NiBMIDUuNzk2ODc1IDAuODk4NDM4Ii8+JiN4YTsgICAgICA8L2c+JiN4YTsgICAgICA8ZyBpZD0iZ2x5cGgtMy0wIi8+JiN4YTsgICAgICA8ZyBpZD0iZ2x5cGgtMy0xIj4mI3hhOyAgICAgICAgPHBhdGggaWQ9InBhdGgyNTMiIGQ9Ik0gLTE4LjMyODEyNSAtMTMuOTEwMTU2IEwgLTE1LjgzNTkzOCAtMTMuOTEwMTU2IEMgLTE2LjMwMDc4MSAtMTIuOTIxODc1IC0xNi42NDA2MjUgLTEyLjAxMTcxOSAtMTYuODc1IC0xMS4xNTIzNDQgQyAtMTcuMDgyMDMxIC0xMC4yNjk1MzEgLTE3LjIxMDkzOCAtOS40Mzc1IC0xNy4yMTA5MzggLTguNjU2MjUgQyAtMTcuMjEwOTM4IC03LjI1MzkwNiAtMTYuOTI1NzgxIC02LjE2MDE1NiAtMTYuNDA2MjUgLTUuNDA2MjUgQyAtMTUuODU5Mzc1IC00LjY1MjM0NCAtMTUuMDc4MTI1IC00LjI4OTA2MiAtMTQuMDkzNzUgLTQuMjg5MDYyIEMgLTEzLjI2MTcxOSAtNC4yODkwNjIgLTEyLjYwOTM3NSAtNC41MjM0MzggLTEyLjE5NTMxMiAtNS4wNDI5NjkgQyAtMTEuNzUzOTA2IC01LjUzOTA2MiAtMTEuNDE0MDYyIC02LjUgLTExLjE1MjM0NCAtNy45MDIzNDQgTCAtMTAuODQzNzUgLTkuNDY0ODQ0IEMgLTEwLjQ3NjU2MiAtMTEuMzYzMjgxIC05LjgyODEyNSAtMTIuNzY1NjI1IC04LjkxNzk2OSAtMTMuNjc1NzgxIEMgLTcuOTgwNDY5IC0xNC41ODU5MzggLTYuNzYxNzE5IC0xNS4wNTQ2ODggLTUuMjI2NTYyIC0xNS4wNTQ2ODggQyAtMy4zNzg5MDYgLTE1LjA1NDY4OCAtMi4wMDM5MDYgLTE0LjQyOTY4OCAtMS4wNjY0MDYgLTEzLjIwNzAzMSBDIC0wLjEyODkwNiAtMTEuOTYwOTM4IDAuMzM5ODQ0IC0xMC4xNjQwNjIgMC4zMzk4NDQgLTcuODAwNzgxIEMgMC4zMzk4NDQgLTYuODkwNjI1IDAuMjM0Mzc1IC01LjkyOTY4OCAwLjA1MDc4MTIgLTQuOTE0MDYyIEMgLTAuMTI4OTA2IC0zLjg5ODQzOCAtMC40MTQwNjIgLTIuODU5Mzc1IC0wLjgzMjAzMSAtMS43OTI5NjkgTCAtMy40ODQzNzUgLTEuNzkyOTY5IEMgLTIuODg2NzE5IC0yLjgzNTkzOCAtMi40NDUzMTIgLTMuODQ3NjU2IC0yLjE1NjI1IC00LjgzNTkzOCBDIC0xLjg0NzY1NiAtNS44MjQyMTkgLTEuNzE0ODQ0IC02LjgxMjUgLTEuNzE0ODQ0IC03LjgwMDc4MSBDIC0xLjcxNDg0NCAtOS4yNTc4MTIgLTIuMDAzOTA2IC0xMC4zNzUgLTIuNTc0MjE5IC0xMS4xNzk2ODggQyAtMy4xNDQ1MzEgLTExLjk2MDkzOCAtMy45NTMxMjUgLTEyLjM3NSAtNS4wNDI5NjkgLTEyLjM3NSBDIC01Ljk4MDQ2OSAtMTIuMzc1IC02LjcwNzAzMSAtMTIuMDg5ODQ0IC03LjIyNjU2MiAtMTEuNTE5NTMxIEMgLTcuNzQ2MDk0IC0xMC45NDUzMTIgLTguMTM2NzE5IC0xMC4wMTE3MTkgLTguMzk4NDM4IC04LjcxMDkzOCBMIC04LjcxMDkzOCAtNy4xNDg0MzggQyAtOS4wNzQyMTkgLTUuMjI2NTYyIC05LjY3MTg3NSAtMy44NDc2NTYgLTEwLjUwMzkwNiAtMi45ODgyODEgQyAtMTEuMzA4NTk0IC0yLjEzMjgxMiAtMTIuNDI5Njg4IC0xLjcxNDg0NCAtMTMuODgyODEyIC0xLjcxNDg0NCBDIC0xNS41NDY4NzUgLTEuNzE0ODQ0IC0xNi44NzUgLTIuMjg5MDYyIC0xNy44MzU5MzggLTMuNDg0Mzc1IEMgLTE4Ljc5Njg3NSAtNC42NTIzNDQgLTE5LjI5Mjk2OSAtNi4yOTI5NjkgLTE5LjI5Mjk2OSAtOC4zNzEwOTQgQyAtMTkuMjkyOTY5IC05LjI1NzgxMiAtMTkuMjE0ODQ0IC0xMC4xNDA2MjUgLTE5LjA1ODU5NCAtMTEuMDc0MjE5IEMgLTE4LjkwMjM0NCAtMTEuOTg0Mzc1IC0xOC42NDA2MjUgLTEyLjkyMTg3NSAtMTguMzI4MTI1IC0xMy45MTAxNTYiLz4mI3hhOyAgICAgIDwvZz4mI3hhOyAgICAgIDxnIGlkPSJnbHlwaC0zLTIiPiYjeGE7ICAgICAgICA8cGF0aCBpZD0icGF0aDI1NiIgZD0iTSAtMi4xMzI4MTIgLTQuNzA3MDMxIEwgNS4zODI4MTIgLTQuNzA3MDMxIEwgNS4zODI4MTIgLTIuMzY3MTg4IEwgLTE0LjIyMjY1NiAtMi4zNjcxODggTCAtMTQuMjIyNjU2IC00LjcwNzAzMSBMIC0xMi4wNjI1IC00LjcwNzAzMSBDIC0xMi44OTQ1MzEgLTUuMTc1NzgxIC0xMy41MTk1MzEgLTUuNzk2ODc1IC0xMy45Mzc1IC02LjU1MDc4MSBDIC0xNC4zNTE1NjIgLTcuMzA0Njg4IC0xNC41NTg1OTQgLTguMjE0ODQ0IC0xNC41NTg1OTQgLTkuMjU3ODEyIEMgLTE0LjU1ODU5NCAtMTAuOTcyNjU2IC0xMy44NTkzNzUgLTEyLjM3NSAtMTIuNTA3ODEyIC0xMy40Njg3NSBDIC0xMS4xMjg5MDYgLTE0LjUzNTE1NiAtOS4zMzU5MzggLTE1LjA3ODEyNSAtNy4wOTc2NTYgLTE1LjA3ODEyNSBDIC00Ljg2MzI4MSAtMTUuMDc4MTI1IC0zLjA0Mjk2OSAtMTQuNTM1MTU2IC0xLjY5MTQwNiAtMTMuNDY4NzUgQyAtMC4zMzk4NDQgLTEyLjM3NSAwLjMzOTg0NCAtMTAuOTcyNjU2IDAuMzM5ODQ0IC05LjI1NzgxMiBDIDAuMzM5ODQ0IC04LjIxNDg0NCAwLjEyODkwNiAtNy4zMDQ2ODggLTAuMjYxNzE5IC02LjU1MDc4MSBDIC0wLjY0ODQzOCAtNS43OTY4NzUgLTEuMjczNDM4IC01LjE3NTc4MSAtMi4xMzI4MTIgLTQuNzA3MDMxIE0gLTcuMDk3NjU2IC0xMi42NjAxNTYgQyAtOC44MTI1IC0xMi42NjAxNTYgLTEwLjE0MDYyNSAtMTIuMjk2ODc1IC0xMS4xMjg5MDYgLTExLjU5NzY1NiBDIC0xMi4xMTcxODggLTEwLjg2NzE4OCAtMTIuNjA5Mzc1IC05LjkwNjI1IC0xMi42MDkzNzUgLTguNjgzNTk0IEMgLTEyLjYwOTM3NSAtNy40Mzc1IC0xMi4xMTcxODggLTYuNDcyNjU2IC0xMS4xMjg5MDYgLTUuNzczNDM4IEMgLTEwLjE0MDYyNSAtNS4wNDI5NjkgLTguODEyNSAtNC43MDcwMzEgLTcuMDk3NjU2IC00LjcwNzAzMSBDIC01LjM4MjgxMiAtNC43MDcwMzEgLTQuMDMxMjUgLTUuMDQyOTY5IC0zLjA0Mjk2OSAtNS43NzM0MzggQyAtMi4wNTQ2ODggLTYuNDcyNjU2IC0xLjU4NTkzOCAtNy40Mzc1IC0xLjU4NTkzOCAtOC42ODM1OTQgQyAtMS41ODU5MzggLTkuOTA2MjUgLTIuMDU0Njg4IC0xMC44NjcxODggLTMuMDQyOTY5IC0xMS41OTc2NTYgQyAtNC4wMzEyNSAtMTIuMjk2ODc1IC01LjM4MjgxMiAtMTIuNjYwMTU2IC03LjA5NzY1NiAtMTIuNjYwMTU2Ii8+JiN4YTsgICAgICA8L2c+JiN4YTsgICAgICA8ZyBpZD0iZ2x5cGgtMy0zIj4mI3hhOyAgICAgICAgPHBhdGggaWQ9InBhdGgyNTkiIGQ9Ik0gLTcuNjk1MzEyIC0xNC42MTMyODEgTCAtNi41NTA3ODEgLTE0LjYxMzI4MSBMIC02LjU1MDc4MSAtMy44NzUgQyAtNC45NDE0MDYgLTMuOTc2NTYyIC0zLjY5MTQwNiAtNC40NDUzMTIgLTIuODU5Mzc1IC01LjMyODEyNSBDIC0yLjAyNzM0NCAtNi4xODc1IC0xLjYxMzI4MSAtNy4zODI4MTIgLTEuNjEzMjgxIC04Ljk0NTMxMiBDIC0xLjYxMzI4MSAtOS44MjgxMjUgLTEuNzE0ODQ0IC0xMC43MTA5MzggLTEuOTI1NzgxIC0xMS41NDI5NjkgQyAtMi4xMzI4MTIgLTEyLjM3NSAtMi40Njg3NSAtMTMuMjM0Mzc1IC0yLjkzNzUgLTE0LjA2NjQwNiBMIC0wLjcyNjU2MiAtMTQuMDY2NDA2IEMgLTAuMzYzMjgxIC0xMy4yMzQzNzUgLTAuMDc4MTI1IC0xMi4zNzUgMC4wNzgxMjUgLTExLjQ5MjE4OCBDIDAuMjM0Mzc1IC0xMC42MDkzNzUgMC4zMzk4NDQgLTkuNjk5MjE5IDAuMzM5ODQ0IC04LjgxMjUgQyAwLjMzOTg0NCAtNi41MjczNDQgLTAuMzEyNSAtNC43MzA0NjkgLTEuNjEzMjgxIC0zLjQwNjI1IEMgLTIuOTEwMTU2IC0yLjA3ODEyNSAtNC43MDcwMzEgLTEuNDI5Njg4IC02Ljk2ODc1IC0xLjQyOTY4OCBDIC05LjI4MTI1IC0xLjQyOTY4OCAtMTEuMTI4OTA2IC0yLjA1NDY4OCAtMTIuNTA3ODEyIC0zLjMwMDc4MSBDIC0xMy44NTkzNzUgLTQuNTUwNzgxIC0xNC41NTg1OTQgLTYuMjY1NjI1IC0xNC41NTg1OTQgLTguMzk4NDM4IEMgLTE0LjU1ODU5NCAtMTAuMzIwMzEyIC0xMy45Mzc1IC0xMS44MjgxMjUgLTEyLjcxNDg0NCAtMTIuOTQ5MjE5IEMgLTExLjQ2NDg0NCAtMTQuMDM5MDYyIC05LjgwMDc4MSAtMTQuNjEzMjgxIC03LjY5NTMxMiAtMTQuNjEzMjgxIE0gLTguMzcxMDk0IC0xMi4yNzM0MzggQyAtOS42NDQ1MzEgLTEyLjI0NjA5NCAtMTAuNjYwMTU2IC0xMS44ODI4MTIgLTExLjQ0MTQwNiAtMTEuMjA3MDMxIEMgLTEyLjE5NTMxMiAtMTAuNTAzOTA2IC0xMi41ODU5MzggLTkuNTY2NDA2IC0xMi41ODU5MzggLTguNDI1NzgxIEMgLTEyLjU4NTkzOCAtNy4xMjUgLTEyLjE5NTMxMiAtNi4wODU5MzggLTExLjQ2NDg0NCAtNS4zMDQ2ODggQyAtMTAuNzM4MjgxIC00LjUyMzQzOCAtOS42OTkyMTkgLTQuMDU0Njg4IC04LjM3MTA5NCAtMy45NTMxMjUgTCAtOC4zNzEwOTQgLTEyLjI3MzQzOCIvPiYjeGE7ICAgICAgPC9nPiYjeGE7ICAgICAgPGcgaWQ9ImdseXBoLTMtNCI+JiN4YTsgICAgICAgIDxwYXRoIGlkPSJwYXRoMjYyIiBkPSJNIC0xMi4wNjI1IC0xMS44MDQ2ODggTCAtMTkuNzYxNzE5IC0xMS44MDQ2ODggTCAtMTkuNzYxNzE5IC0xNC4xNDQ1MzEgTCAwIC0xNC4xNDQ1MzEgTCAwIC0xMS44MDQ2ODggTCAtMi4xMzI4MTIgLTExLjgwNDY4OCBDIC0xLjI3MzQzOCAtMTEuMzA4NTk0IC0wLjY0ODQzOCAtMTAuNjg3NSAtMC4yNjE3MTkgLTkuOTMzNTk0IEMgMC4xMjg5MDYgLTkuMTc5Njg4IDAuMzM5ODQ0IC04LjI5Mjk2OSAwLjMzOTg0NCAtNy4yNTM5MDYgQyAwLjMzOTg0NCAtNS41MzkwNjIgLTAuMzM5ODQ0IC00LjEzMjgxMiAtMS42OTE0MDYgLTMuMDQyOTY5IEMgLTMuMDQyOTY5IC0xLjk0OTIxOSAtNC44NjMyODEgLTEuNDI5Njg4IC03LjA5NzY1NiAtMS40Mjk2ODggQyAtOS4zMzU5MzggLTEuNDI5Njg4IC0xMS4xMjg5MDYgLTEuOTQ5MjE5IC0xMi41MDc4MTIgLTMuMDQyOTY5IEMgLTEzLjg1OTM3NSAtNC4xMzI4MTIgLTE0LjU1ODU5NCAtNS41MzkwNjIgLTE0LjU1ODU5NCAtNy4yNTM5MDYgQyAtMTQuNTU4NTk0IC04LjI5Mjk2OSAtMTQuMzUxNTYyIC05LjE3OTY4OCAtMTMuOTM3NSAtOS45MzM1OTQgQyAtMTMuNTE5NTMxIC0xMC42ODc1IC0xMi44OTQ1MzEgLTExLjMwODU5NCAtMTIuMDYyNSAtMTEuODA0Njg4IE0gLTcuMDk3NjU2IC0zLjg0NzY1NiBDIC01LjM4MjgxMiAtMy44NDc2NTYgLTQuMDMxMjUgLTQuMTg3NSAtMy4wNDI5NjkgLTQuODg2NzE5IEMgLTIuMDU0Njg4IC01LjU4OTg0NCAtMS41ODU5MzggLTYuNTc4MTI1IC0xLjU4NTkzOCAtNy44MjQyMTkgQyAtMS41ODU5MzggLTkuMDQ2ODc1IC0yLjA1NDY4OCAtMTAuMDExNzE5IC0zLjA0Mjk2OSAtMTAuNzM4MjgxIEMgLTQuMDMxMjUgLTExLjQ0MTQwNiAtNS4zODI4MTIgLTExLjgwNDY4OCAtNy4wOTc2NTYgLTExLjgwNDY4OCBDIC04LjgxMjUgLTExLjgwNDY4OCAtMTAuMTQwNjI1IC0xMS40NDE0MDYgLTExLjEyODkwNiAtMTAuNzM4MjgxIEMgLTEyLjExNzE4OCAtMTAuMDExNzE5IC0xMi42MDkzNzUgLTkuMDQ2ODc1IC0xMi42MDkzNzUgLTcuODI0MjE5IEMgLTEyLjYwOTM3NSAtNi41NzgxMjUgLTEyLjExNzE4OCAtNS41ODk4NDQgLTExLjEyODkwNiAtNC44ODY3MTkgQyAtMTAuMTQwNjI1IC00LjE4NzUgLTguODEyNSAtMy44NDc2NTYgLTcuMDk3NjU2IC0zLjg0NzY1NiIvPiYjeGE7ICAgICAgPC9nPiYjeGE7ICAgICAgPGcgaWQ9ImdseXBoLTMtNSI+JiN4YTsgICAgICAgIDxwYXRoIGlkPSJwYXRoMjY1IiBkPSJNIC0xOC45NTMxMjUgLTIuNTQ2ODc1IEwgLTE4Ljk1MzEyNSAtMTQuNTM1MTU2IEwgLTE2Ljc5Njg3NSAtMTQuNTM1MTU2IEwgLTE2Ljc5Njg3NSAtNS4xMjEwOTQgTCAtMTEuMTc5Njg4IC01LjEyMTA5NCBMIC0xMS4xNzk2ODggLTE0LjE0NDUzMSBMIC05LjAyMzQzOCAtMTQuMTQ0NTMxIEwgLTkuMDIzNDM4IC01LjEyMTA5NCBMIC0yLjE1NjI1IC01LjEyMTA5NCBMIC0yLjE1NjI1IC0xNC43Njk1MzEgTCAwIC0xNC43Njk1MzEgTCAwIC0yLjU0Njg3NSBMIC0xOC45NTMxMjUgLTIuNTQ2ODc1Ii8+JiN4YTsgICAgICA8L2c+JiN4YTsgICAgICA8ZyBpZD0iZ2x5cGgtMy02Ij4mI3hhOyAgICAgICAgPHBhdGggaWQ9InBhdGgyNjgiIGQ9Ik0gLTEyLjAzOTA2MiAtMTAuNjg3NSBDIC0xMi4xOTUzMTIgLTEwLjQyNTc4MSAtMTIuMjk2ODc1IC0xMC4xNDA2MjUgLTEyLjM3NSAtOS44MjgxMjUgQyAtMTIuNDI5Njg4IC05LjUxNTYyNSAtMTIuNDgwNDY5IC05LjE3OTY4OCAtMTIuNDgwNDY5IC04LjgxMjUgQyAtMTIuNDgwNDY5IC03LjQ4ODI4MSAtMTIuMDM5MDYyIC02LjQ3MjY1NiAtMTEuMTc5Njg4IC01Ljc3MzQzOCBDIC0xMC4zMjAzMTIgLTUuMDQyOTY5IC05LjEwMTU2MiAtNC43MDcwMzEgLTcuNDg4MjgxIC00LjcwNzAzMSBMIDAgLTQuNzA3MDMxIEwgMCAtMi4zNjcxODggTCAtMTQuMjIyNjU2IC0yLjM2NzE4OCBMIC0xNC4yMjI2NTYgLTQuNzA3MDMxIEwgLTEyLjAxMTcxOSAtNC43MDcwMzEgQyAtMTIuODcxMDk0IC01LjE3NTc4MSAtMTMuNTE5NTMxIC01LjgyNDIxOSAtMTMuOTM3NSAtNi42MDU0NjkgQyAtMTQuMzUxNTYyIC03LjM4MjgxMiAtMTQuNTU4NTk0IC04LjM0NzY1NiAtMTQuNTU4NTk0IC05LjQ4ODI4MSBDIC0xNC41NTg1OTQgLTkuNjQ0NTMxIC0xNC41MzUxNTYgLTkuODI4MTI1IC0xNC41MzUxNTYgLTEwLjAzNTE1NiBDIC0xNC41MDc4MTIgLTEwLjIxODc1IC0xNC40ODA0NjkgLTEwLjQyNTc4MSAtMTQuNDI5Njg4IC0xMC42ODc1IEwgLTEyLjAzOTA2MiAtMTAuNjg3NSIvPiYjeGE7ICAgICAgPC9nPiYjeGE7ICAgICAgPGcgaWQ9ImdseXBoLTMtNyI+JiN4YTsgICAgICAgIDxwYXRoIGlkPSJwYXRoMjcxIiBkPSJNIC0xMi41ODU5MzggLTcuOTU3MDMxIEMgLTEyLjU4NTkzOCAtNi43MDcwMzEgLTEyLjA4OTg0NCAtNS43MTg3NSAtMTEuMTAxNTYyIC00Ljk5MjE4OCBDIC0xMC4xMTMyODEgLTQuMjY1NjI1IC04Ljc4OTA2MiAtMy44OTg0MzggLTcuMDk3NjU2IC0zLjg5ODQzOCBDIC01LjM4MjgxMiAtMy44OTg0MzggLTQuMDU0Njg4IC00LjIzODI4MSAtMy4wNjY0MDYgLTQuOTY0ODQ0IEMgLTIuMDc4MTI1IC01LjY5NTMxMiAtMS42MTMyODEgLTYuNjgzNTk0IC0xLjYxMzI4MSAtNy45NTcwMzEgQyAtMS42MTMyODEgLTkuMjAzMTI1IC0yLjA3ODEyNSAtMTAuMTkxNDA2IC0zLjA2NjQwNiAtMTAuOTIxODc1IEMgLTQuMDU0Njg4IC0xMS42NDg0MzggLTUuMzgyODEyIC0xMi4wMTE3MTkgLTcuMDk3NjU2IC0xMi4wMTE3MTkgQyAtOC43NjE3MTkgLTEyLjAxMTcxOSAtMTAuMTEzMjgxIC0xMS42NDg0MzggLTExLjEwMTU2MiAtMTAuOTIxODc1IEMgLTEyLjA4OTg0NCAtMTAuMTkxNDA2IC0xMi41ODU5MzggLTkuMjAzMTI1IC0xMi41ODU5MzggLTcuOTU3MDMxIE0gLTE0LjU1ODU5NCAtNy45NTcwMzEgQyAtMTQuNTU4NTk0IC05Ljk4NDM3NSAtMTMuODgyODEyIC0xMS41NzAzMTIgLTEyLjU4NTkzOCAtMTIuNzM4MjgxIEMgLTExLjI1NzgxMiAtMTMuODgyODEyIC05LjQzNzUgLTE0LjQ4MDQ2OSAtNy4wOTc2NTYgLTE0LjQ4MDQ2OSBDIC00Ljc1NzgxMiAtMTQuNDgwNDY5IC0yLjkzNzUgLTEzLjg4MjgxMiAtMS42MzY3MTkgLTEyLjczODI4MSBDIC0wLjMxMjUgLTExLjU3MDMxMiAwLjMzOTg0NCAtOS45ODQzNzUgMC4zMzk4NDQgLTcuOTU3MDMxIEMgMC4zMzk4NDQgLTUuOTAyMzQ0IC0wLjMxMjUgLTQuMjg5MDYyIC0xLjYzNjcxOSAtMy4xNDQ1MzEgQyAtMi45Mzc1IC0yLjAwMzkwNiAtNC43NTc4MTIgLTEuNDI5Njg4IC03LjA5NzY1NiAtMS40Mjk2ODggQyAtOS40Mzc1IC0xLjQyOTY4OCAtMTEuMjU3ODEyIC0yLjAwMzkwNiAtMTIuNTg1OTM4IC0zLjE0NDUzMSBDIC0xMy44ODI4MTIgLTQuMjg5MDYyIC0xNC41NTg1OTQgLTUuOTAyMzQ0IC0xNC41NTg1OTQgLTcuOTU3MDMxIi8+JiN4YTsgICAgICA8L2c+JiN4YTsgICAgICA8ZyBpZD0iZ2x5cGgtNC0wIj4mI3hhOyAgICAgICAgPHBhdGggaWQ9InBhdGgyNzQiIGQ9Ik0gOC43MjI2NTYgLTUuNzYxNzE5IEwgOC43MjI2NTYgMCBMIDcuMTkxNDA2IDAgTCA3LjE5MTQwNiAtNS43NjE3MTkgQyA3LjE5MTQwNiAtNi41OTc2NTYgNy4wMzkwNjIgLTcuMjA3MDMxIDYuNzUgLTcuNTk3NjU2IEMgNi40NDE0MDYgLTcuOTg4MjgxIDUuOTg0Mzc1IC04LjE5NTMxMiA1LjM3MTA5NCAtOC4xOTUzMTIgQyA0LjY1NjI1IC04LjE5NTMxMiA0LjA5NzY1NiAtNy45Mzc1IDMuNzIyNjU2IC03LjQyOTY4OCBDIDMuMzMyMDMxIC02LjkxNzk2OSAzLjE0NDUzMSAtNi4yMDMxMjUgMy4xNDQ1MzEgLTUuMjUzOTA2IEwgMy4xNDQ1MzEgMCBMIDEuNjEzMjgxIDAgTCAxLjYxMzI4MSAtOS4zMDA3ODEgTCAzLjE0NDUzMSAtOS4zMDA3ODEgTCAzLjE0NDUzMSAtNy45MDYyNSBDIDMuNDE3OTY5IC04LjQzMzU5NCAzLjc3MzQzOCAtOC44Mzk4NDQgNC4yNSAtOS4xMTMyODEgQyA0LjcxMDkzOCAtOS4zODI4MTIgNS4yNTM5MDYgLTkuNTE5NTMxIDUuODk4NDM4IC05LjUxOTUzMSBDIDYuODUxNTYyIC05LjUxOTUzMSA3LjU0Njg3NSAtOS4xOTUzMTIgOC4wMjM0MzggLTguNTg1OTM4IEMgOC40ODQzNzUgLTcuOTU3MDMxIDguNzIyNjU2IC03LjAxOTUzMSA4LjcyMjY1NiAtNS43NjE3MTkiLz4mI3hhOyAgICAgIDwvZz4mI3hhOyAgICAgIDxnIGlkPSJnbHlwaC00LTEiPiYjeGE7ICAgICAgICA8cGF0aCBpZD0icGF0aDI3NyIgZD0iTSA1LjgzMjAzMSAtNC42NzU3ODEgTCA1LjMyMDMxMiAtNC42NzU3ODEgQyA0LjQyMTg3NSAtNC42NzU3ODEgMy43MzgyODEgLTQuNTAzOTA2IDMuMjk2ODc1IC00LjE5OTIxOSBDIDIuODU1NDY5IC0zLjg5NDUzMSAyLjYzNjcxOSAtMy40MTc5NjkgMi42MzY3MTkgLTIuODA0Njg4IEMgMi42MzY3MTkgLTIuMjQyMTg4IDIuNzg5MDYyIC0xLjgwMDc4MSAzLjEyODkwNiAtMS40OTYwOTQgQyAzLjQ2ODc1IC0xLjE5MTQwNiAzLjkyNTc4MSAtMS4wMzUxNTYgNC41MzkwNjIgLTEuMDM1MTU2IEMgNS4zNzEwOTQgLTEuMDM1MTU2IDYuMDM1MTU2IC0xLjMyNDIxOSA2LjUxMTcxOSAtMS45MDIzNDQgQyA2Ljk4ODI4MSAtMi40ODA0NjkgNy4yNDIxODggLTMuMjk2ODc1IDcuMjU3ODEyIC00LjMzNTkzOCBMIDcuMjU3ODEyIC00LjY3NTc4MSBMIDUuODMyMDMxIC00LjY3NTc4MSBNIDguNzg5MDYyIC01LjMwNDY4OCBMIDguNzg5MDYyIDAgTCA3LjI1NzgxMiAwIEwgNy4yNTc4MTIgLTEuMzc4OTA2IEMgNi45MTc5NjkgLTAuODE2NDA2IDYuNTExNzE5IC0wLjQwNjI1IDYuMDE5NTMxIC0wLjE1MjM0NCBDIDUuNTIzNDM4IDAuMDg1OTM3NSA0LjkyOTY4OCAwLjIyMjY1NiA0LjIxNDg0NCAwLjIyMjY1NiBDIDMuMjY1NjI1IDAuMjIyNjU2IDIuNTE1NjI1IC0wLjAzNTE1NjIgMS45NTMxMjUgLTAuNTYyNSBDIDEuMzc4OTA2IC0xLjA4OTg0NCAxLjEwNTQ2OSAtMS44MDA3ODEgMS4xMDU0NjkgLTIuNzAzMTI1IEMgMS4xMDU0NjkgLTMuNzIyNjU2IDEuNDQ1MzEyIC00LjUwMzkwNiAyLjE0MDYyNSAtNS4wNTA3ODEgQyAyLjgzOTg0NCAtNS41OTM3NSAzLjg1OTM3NSAtNS44NjMyODEgNS4yMDMxMjUgLTUuODYzMjgxIEwgNy4yNTc4MTIgLTUuODYzMjgxIEwgNy4yNTc4MTIgLTYuMTAxNTYyIEMgNy4yNDIxODggLTYuODUxNTYyIDcuMDU0Njg4IC03LjM3ODkwNiA2LjY3OTY4OCAtNy43MTg3NSBDIDYuMzA4NTk0IC04LjA1ODU5NCA1LjczMDQ2OSAtOC4yMjY1NjIgNC45MTQwNjIgLTguMjI2NTYyIEMgNC4zODY3MTkgLTguMjI2NTYyIDMuODU5Mzc1IC04LjE0NDUzMSAzLjMzMjAzMSAtOC4wMDc4MTIgQyAyLjc4OTA2MiAtNy44NTU0NjkgMi4yNzczNDQgLTcuNjMyODEyIDEuNzg1MTU2IC03LjM0Mzc1IEwgMS43ODUxNTYgLTguODc1IEMgMi4zNDc2NTYgLTkuMDc4MTI1IDIuODkwNjI1IC05LjI0NjA5NCAzLjM5ODQzOCAtOS4zNTE1NjIgQyAzLjkxMDE1NiAtOS40NTMxMjUgNC40MjE4NzUgLTkuNTE5NTMxIDQuOTE0MDYyIC05LjUxOTUzMSBDIDUuNjc5Njg4IC05LjUxOTUzMSA2LjMzOTg0NCAtOS40MDIzNDQgNi44ODY3MTkgLTkuMTc5Njg4IEMgNy40Mjk2ODggLTguOTQxNDA2IDcuODcxMDk0IC04LjYwMTU2MiA4LjIxMDkzOCAtOC4xNjAxNTYgQyA4LjQxNDA2MiAtNy44ODY3MTkgOC41NTA3ODEgLTcuNTQ2ODc1IDguNjUyMzQ0IC03LjE0MDYyNSBDIDguNzM4MjgxIC02LjczMDQ2OSA4Ljc4OTA2MiAtNi4xMjEwOTQgOC43ODkwNjIgLTUuMzA0Njg4Ii8+JiN4YTsgICAgICA8L2c+JiN4YTsgICAgICA8ZyBpZD0iZ2x5cGgtNC0yIj4mI3hhOyAgICAgICAgPHBhdGggaWQ9InBhdGgyODAiIGQ9Ik0gNS4xMTcxODggLTguMjI2NTYyIEMgNC4zMzU5MzggLTguMjI2NTYyIDMuNzM4MjgxIC03LjkyMTg3NSAzLjM0NzY1NiAtNy4zMDg1OTQgQyAyLjk0MTQwNiAtNi42OTkyMTkgMi43NTM5MDYgLTUuODEyNSAyLjc1MzkwNiAtNC42NDA2MjUgQyAyLjc1MzkwNiAtMy40NDkyMTkgMi45NDE0MDYgLTIuNTY2NDA2IDMuMzQ3NjU2IC0xLjk1MzEyNSBDIDMuNzM4MjgxIC0xLjM0Mzc1IDQuMzM1OTM4IC0xLjA1NDY4OCA1LjExNzE4OCAtMS4wNTQ2ODggQyA1Ljg5ODQzOCAtMS4wNTQ2ODggNi40NzY1NjIgLTEuMzQzNzUgNi44ODY3MTkgLTEuOTUzMTI1IEMgNy4yNzczNDQgLTIuNTY2NDA2IDcuNDgwNDY5IC0zLjQ0OTIxOSA3LjQ4MDQ2OSAtNC42NDA2MjUgQyA3LjQ4MDQ2OSAtNS44MTI1IDcuMjc3MzQ0IC02LjY5OTIxOSA2Ljg4NjcxOSAtNy4zMDg1OTQgQyA2LjQ3NjU2MiAtNy45MjE4NzUgNS44OTg0MzggLTguMjI2NTYyIDUuMTE3MTg4IC04LjIyNjU2MiBNIDUuMTE3MTg4IC05LjUxOTUzMSBDIDYuNDEwMTU2IC05LjUxOTUzMSA3LjM5NDUzMSAtOS4wOTM3NSA4LjA3NDIxOSAtOC4yNjE3MTkgQyA4Ljc1MzkwNiAtNy40Mjk2ODggOS4wOTM3NSAtNi4yMjI2NTYgOS4wOTM3NSAtNC42NDA2MjUgQyA5LjA5Mzc1IC0zLjA0Mjk2OSA4Ljc1MzkwNiAtMS44MzU5MzggOC4wNzQyMTkgLTEuMDE5NTMxIEMgNy4zOTQ1MzEgLTAuMTg3NSA2LjQxMDE1NiAwLjIyMjY1NiA1LjExNzE4OCAwLjIyMjY1NiBDIDMuODI0MjE5IDAuMjIyNjU2IDIuODM5ODQ0IC0wLjE4NzUgMi4xNjAxNTYgLTEuMDE5NTMxIEMgMS40ODA0NjkgLTEuODM1OTM4IDEuMTQwNjI1IC0zLjA0Mjk2OSAxLjE0MDYyNSAtNC42NDA2MjUgQyAxLjE0MDYyNSAtNi4yMjI2NTYgMS40ODA0NjkgLTcuNDI5Njg4IDIuMTYwMTU2IC04LjI2MTcxOSBDIDIuODM5ODQ0IC05LjA5Mzc1IDMuODI0MjE5IC05LjUxOTUzMSA1LjExNzE4OCAtOS41MTk1MzEiLz4mI3hhOyAgICAgIDwvZz4mI3hhOyAgICAgIDxnIGlkPSJnbHlwaC00LTMiLz4mI3hhOyAgICAgIDxnIGlkPSJnbHlwaC00LTQiPiYjeGE7ICAgICAgICA8cGF0aCBpZD0icGF0aDI4NCIgZD0iTSAyLjI0MjE4OCAtMS40MTAxNTYgTCA0Ljg0Mzc1IC0xLjQxMDE1NiBMIDQuODQzNzUgLTEwLjg3ODkwNiBMIDIuMDM5MDYyIC0xMC4yNSBMIDIuMDM5MDYyIC0xMS43ODEyNSBMIDQuODI4MTI1IC0xMi4zOTQ1MzEgTCA2LjUxMTcxOSAtMTIuMzk0NTMxIEwgNi41MTE3MTkgLTEuNDEwMTU2IEwgOS4wNzgxMjUgLTEuNDEwMTU2IEwgOS4wNzgxMjUgMCBMIDIuMjQyMTg4IDAgTCAyLjI0MjE4OCAtMS40MTAxNTYiLz4mI3hhOyAgICAgIDwvZz4mI3hhOyAgICAgIDxnIGlkPSJnbHlwaC00LTUiPiYjeGE7ICAgICAgICA8cGF0aCBpZD0icGF0aDI4NyIgZD0iTSAyLjEyNSAtOS4zMDA3ODEgTCA2LjAzNTE1NiAtOS4zMDA3ODEgTCA2LjAzNTE1NiAtMS4xOTE0MDYgTCA5LjA2MjUgLTEuMTkxNDA2IEwgOS4wNjI1IDAgTCAxLjQ4MDQ2OSAwIEwgMS40ODA0NjkgLTEuMTkxNDA2IEwgNC41MDM5MDYgLTEuMTkxNDA2IEwgNC41MDM5MDYgLTguMTA5Mzc1IEwgMi4xMjUgLTguMTA5Mzc1IEwgMi4xMjUgLTkuMzAwNzgxIE0gNC41MDM5MDYgLTEyLjkyMTg3NSBMIDYuMDM1MTU2IC0xMi45MjE4NzUgTCA2LjAzNTE1NiAtMTAuOTgwNDY5IEwgNC41MDM5MDYgLTEwLjk4MDQ2OSBMIDQuNTAzOTA2IC0xMi45MjE4NzUiLz4mI3hhOyAgICAgIDwvZz4mI3hhOyAgICAgIDxnIGlkPSJnbHlwaC00LTYiPiYjeGE7ICAgICAgICA8cGF0aCBpZD0icGF0aDI5MCIgZD0iTSA1LjEwMTU2MiAtMTEuOTMzNTk0IEwgNS4xMDE1NjIgLTkuMzAwNzgxIEwgOC41NjY0MDYgLTkuMzAwNzgxIEwgOC41NjY0MDYgLTguMTA5Mzc1IEwgNS4xMDE1NjIgLTguMTA5Mzc1IEwgNS4xMDE1NjIgLTMuMDU4NTk0IEMgNS4xMDE1NjIgLTIuMzc4OTA2IDUuMjE4NzUgLTEuOTAyMzQ0IDUuNDkyMTg4IC0xLjYzMjgxMiBDIDUuNzQ2MDk0IC0xLjM1OTM3NSA2LjIwMzEyNSAtMS4yMjI2NTYgNi44NTE1NjIgLTEuMjIyNjU2IEwgOC41NjY0MDYgLTEuMjIyNjU2IEwgOC41NjY0MDYgMCBMIDYuNjk5MjE5IDAgQyA1LjU0Mjk2OSAwIDQuNzQyMTg4IC0wLjIyMjY1NiA0LjI2NTYyNSAtMC42Nzk2ODggQyAzLjc4OTA2MiAtMS4xNDA2MjUgMy41NzAzMTIgLTEuOTM3NSAzLjU3MDMxMiAtMy4wNTg1OTQgTCAzLjU3MDMxMiAtOC4xMDkzNzUgTCAxLjA4OTg0NCAtOC4xMDkzNzUgTCAxLjA4OTg0NCAtOS4zMDA3ODEgTCAzLjU3MDMxMiAtOS4zMDA3ODEgTCAzLjU3MDMxMiAtMTEuOTMzNTk0IEwgNS4xMDE1NjIgLTExLjkzMzU5NCIvPiYjeGE7ICAgICAgPC9nPiYjeGE7ICAgICAgPGcgaWQ9ImdseXBoLTQtNyI+JiN4YTsgICAgICAgIDxwYXRoIGlkPSJwYXRoMjkzIiBkPSJNIDUuMTE3MTg4IC01Ljg4MjgxMiBDIDQuMzY3MTg4IC01Ljg4MjgxMiAzLjc4OTA2MiAtNS42NjAxNTYgMy4zODI4MTIgLTUuMjUzOTA2IEMgMi45NzY1NjIgLTQuODI4MTI1IDIuNzY5NTMxIC00LjIzNDM3NSAyLjc2OTUzMSAtMy40ODQzNzUgQyAyLjc2OTUzMSAtMi43MTg3NSAyLjk3NjU2MiAtMi4xMjUgMy4zODI4MTIgLTEuNjk5MjE5IEMgMy43ODkwNjIgLTEuMjczNDM4IDQuMzY3MTg4IC0xLjA3MDMxMiA1LjExNzE4OCAtMS4wNzAzMTIgQyA1Ljg2MzI4MSAtMS4wNzAzMTIgNi40NDE0MDYgLTEuMjczNDM4IDYuODUxNTYyIC0xLjY5OTIxOSBDIDcuMjU3ODEyIC0yLjEwOTM3NSA3LjQ2NDg0NCAtMi43MDMxMjUgNy40NjQ4NDQgLTMuNDg0Mzc1IEMgNy40NjQ4NDQgLTQuMjM0Mzc1IDcuMjQyMTg4IC00LjgyODEyNSA2LjgzNTkzOCAtNS4yNTM5MDYgQyA2LjQyNTc4MSAtNS42NjAxNTYgNS44NDc2NTYgLTUuODgyODEyIDUuMTE3MTg4IC01Ljg4MjgxMiBNIDMuNjU2MjUgLTYuNTc4MTI1IEMgMi45NDE0MDYgLTYuNzUgMi4zNzg5MDYgLTcuMDg5ODQ0IDEuOTcyNjU2IC03LjU5NzY1NiBDIDEuNTYyNSAtOC4wOTM3NSAxLjM3ODkwNiAtOC42ODc1IDEuMzc4OTA2IC05LjQwMjM0NCBDIDEuMzc4OTA2IC0xMC4zODY3MTkgMS42OTkyMTkgLTExLjE2Nzk2OSAyLjM3ODkwNiAtMTEuNzQ2MDk0IEMgMy4wNDI5NjkgLTEyLjMyNDIxOSAzLjk2MDkzOCAtMTIuNjEzMjgxIDUuMTE3MTg4IC0xMi42MTMyODEgQyA2LjI3MzQzOCAtMTIuNjEzMjgxIDcuMTc1NzgxIC0xMi4zMjQyMTkgNy44NTU0NjkgLTExLjc0NjA5NCBDIDguNTE1NjI1IC0xMS4xNjc5NjkgOC44NTU0NjkgLTEwLjM4NjcxOSA4Ljg1NTQ2OSAtOS40MDIzNDQgQyA4Ljg1NTQ2OSAtOC42ODc1IDguNjUyMzQ0IC04LjA5Mzc1IDguMjQ2MDk0IC03LjU5NzY1NiBDIDcuODM1OTM4IC03LjA4OTg0NCA3LjI5Mjk2OSAtNi43NSA2LjU3ODEyNSAtNi41NzgxMjUgQyA3LjM5NDUzMSAtNi4zOTA2MjUgOC4wMzkwNjIgLTYuMDE5NTMxIDguNDg0Mzc1IC01LjQ3MjY1NiBDIDguOTI1NzgxIC00LjkxNDA2MiA5LjE0NDUzMSAtNC4xOTkyMTkgOS4xNDQ1MzEgLTMuMzMyMDMxIEMgOS4xNDQ1MzEgLTIuMjEwOTM4IDguNzg5MDYyIC0xLjMyNDIxOSA4LjA3NDIxOSAtMC43MTQ4NDQgQyA3LjM1OTM3NSAtMC4wODU5Mzc1IDYuMzc1IDAuMjIyNjU2IDUuMTE3MTg4IDAuMjIyNjU2IEMgMy44NDM3NSAwLjIyMjY1NiAyLjg1NTQ2OSAtMC4wODU5Mzc1IDIuMTQwNjI1IC0wLjcxNDg0NCBDIDEuNDI5Njg4IC0xLjMyNDIxOSAxLjA4OTg0NCAtMi4xOTE0MDYgMS4wODk4NDQgLTMuMzE2NDA2IEMgMS4wODk4NDQgLTQuMTk5MjE5IDEuMzA4NTk0IC00LjkxNDA2MiAxLjc1IC01LjQ3MjY1NiBDIDIuMTkxNDA2IC02LjAxOTUzMSAyLjgyMDMxMiAtNi4zOTA2MjUgMy42NTYyNSAtNi41NzgxMjUgTSAzLjA0Mjk2OSAtOS4yNDYwOTQgQyAzLjA0Mjk2OSAtOC41NjY0MDYgMy4yMTQ4NDQgLTguMDU4NTk0IDMuNTcwMzEyIC03LjcxODc1IEMgMy45MjU3ODEgLTcuMzc4OTA2IDQuNDM3NSAtNy4yMDcwMzEgNS4xMTcxODggLTcuMjA3MDMxIEMgNS43ODEyNSAtNy4yMDcwMzEgNi4yODkwNjIgLTcuMzc4OTA2IDYuNjQ4NDM4IC03LjcxODc1IEMgNy4wMDM5MDYgLTguMDU4NTk0IDcuMTkxNDA2IC04LjU2NjQwNiA3LjE5MTQwNiAtOS4yNDYwOTQgQyA3LjE5MTQwNiAtOS45Mjk2ODggNy4wMDM5MDYgLTEwLjQzNzUgNi42NjQwNjIgLTEwLjc5Njg3NSBDIDYuMzA4NTk0IC0xMS4xMzY3MTkgNS43OTY4NzUgLTExLjMyMDMxMiA1LjExNzE4OCAtMTEuMzIwMzEyIEMgNC40Mzc1IC0xMS4zMjAzMTIgMy45MjU3ODEgLTExLjEzNjcxOSAzLjU3MDMxMiAtMTAuNzc3MzQ0IEMgMy4yMTQ4NDQgLTEwLjQyMTg3NSAzLjA0Mjk2OSAtOS45MTAxNTYgMy4wNDI5NjkgLTkuMjQ2MDk0Ii8+JiN4YTsgICAgICA8L2c+JiN4YTsgICAgICA8ZyBpZD0iZ2x5cGgtNC04Ij4mI3hhOyAgICAgICAgPHBhdGggaWQ9InBhdGgyOTYiIGQ9Ik0gMy4wOTM3NSAtMS40MTAxNTYgTCA4Ljc4OTA2MiAtMS40MTAxNTYgTCA4Ljc4OTA2MiAwIEwgMS4yNTc4MTIgMCBMIDEuMjU3ODEyIC0xLjQxMDE1NiBDIDIuMjk2ODc1IC0yLjUgMy4xOTUzMTIgLTMuNDQ5MjE5IDMuOTc2NTYyIC00LjMwMDc4MSBDIDQuNzQyMTg4IC01LjEzMjgxMiA1LjI2OTUzMSAtNS43MzA0NjkgNS41NzQyMTkgLTYuMDcwMzEyIEMgNi4xMjEwOTQgLTYuNzUgNi40OTIxODggLTcuMjkyOTY5IDYuNjk5MjE5IC03LjY5OTIxOSBDIDYuODg2NzE5IC04LjEwOTM3NSA2Ljk4ODI4MSAtOC41NTA3ODEgNi45ODgyODEgLTguOTkyMTg4IEMgNi45ODgyODEgLTkuNjcxODc1IDYuNzgxMjUgLTEwLjIxODc1IDYuMzc1IC0xMC42MDkzNzUgQyA1Ljk2ODc1IC0xMSA1LjQwNjI1IC0xMS4yMDMxMjUgNC43MTA5MzggLTExLjIwMzEyNSBDIDQuMTk5MjE5IC0xMS4yMDMxMjUgMy42NTYyNSAtMTEuMTAxNTYyIDMuMTA5Mzc1IC0xMC45Mjk2ODggQyAyLjU2NjQwNiAtMTAuNzQyMTg4IDEuOTcyNjU2IC0xMC40NzI2NTYgMS4zNTkzNzUgLTEwLjA5NzY1NiBMIDEuMzU5Mzc1IC0xMS43OTY4NzUgQyAxLjkyMTg3NSAtMTIuMDcwMzEyIDIuNDgwNDY5IC0xMi4yNzM0MzggMy4wNDI5NjkgLTEyLjQxMDE1NiBDIDMuNTg1OTM4IC0xMi41NDY4NzUgNC4xMzI4MTIgLTEyLjYxMzI4MSA0LjY3NTc4MSAtMTIuNjEzMjgxIEMgNS44ODI4MTIgLTEyLjYxMzI4MSA2Ljg1MTU2MiAtMTIuMjg5MDYyIDcuNTk3NjU2IC0xMS42NDQ1MzEgQyA4LjMyODEyNSAtMTEgOC43MDMxMjUgLTEwLjE0ODQzOCA4LjcwMzEyNSAtOS4xMTMyODEgQyA4LjcwMzEyNSAtOC41NjY0MDYgOC41NjY0MDYgLTguMDM5MDYyIDguMzI4MTI1IC03LjUxNTYyNSBDIDguMDkzNzUgLTYuOTg4MjgxIDcuNjgzNTk0IC02LjQxMDE1NiA3LjE0MDYyNSAtNS43NjE3MTkgQyA2LjgzNTkzOCAtNS4zOTA2MjUgNi4zNzUgLTQuODk0NTMxIDUuNzk2ODc1IC00LjI2NTYyNSBDIDUuMjAzMTI1IC0zLjYyMTA5NCA0LjMwMDc4MSAtMi42Njc5NjkgMy4wOTM3NSAtMS40MTAxNTYiLz4mI3hhOyAgICAgIDwvZz4mI3hhOyAgICAgIDxnIGlkPSJnbHlwaC00LTkiPiYjeGE7ICAgICAgICA8cGF0aCBpZD0icGF0aDI5OSIgZD0iTSA4LjgyNDIxOSAtMTIuOTIxODc1IEwgOC44MjQyMTkgLTExLjY0NDUzMSBMIDcuMDg5ODQ0IC0xMS42NDQ1MzEgQyA2LjU0Njg3NSAtMTEuNjQ0NTMxIDYuMTUyMzQ0IC0xMS41MjczNDQgNS45NDkyMTkgLTExLjMwNDY4OCBDIDUuNzMwNDY5IC0xMS4wODU5MzggNS42Mjg5MDYgLTEwLjY5MTQwNiA1LjYyODkwNiAtMTAuMTEzMjgxIEwgNS42Mjg5MDYgLTkuMzAwNzgxIEwgOC44MjQyMTkgLTkuMzAwNzgxIEwgOC44MjQyMTkgLTguMTA5Mzc1IEwgNS42Mjg5MDYgLTguMTA5Mzc1IEwgNS42Mjg5MDYgMCBMIDQuMDk3NjU2IDAgTCA0LjA5NzY1NiAtOC4xMDkzNzUgTCAxLjYxMzI4MSAtOC4xMDkzNzUgTCAxLjYxMzI4MSAtOS4zMDA3ODEgTCA0LjA5NzY1NiAtOS4zMDA3ODEgTCA0LjA5NzY1NiAtOS45NDUzMTIgQyA0LjA5NzY1NiAtMTAuOTY0ODQ0IDQuMzE2NDA2IC0xMS43MTQ4NDQgNC43OTI5NjkgLTEyLjE4NzUgQyA1LjI2OTUzMSAtMTIuNjY0MDYyIDYgLTEyLjkyMTg3NSA2Ljk4ODI4MSAtMTIuOTIxODc1IEwgOC44MjQyMTkgLTEyLjkyMTg3NSIvPiYjeGE7ICAgICAgPC9nPiYjeGE7ICAgICAgPGcgaWQ9ImdseXBoLTQtMTAiPiYjeGE7ICAgICAgICA8cGF0aCBpZD0icGF0aDMwMiIgZD0iTSAzLjEwOTM3NSAtMS4xNzE4NzUgTCAzLjEwOTM3NSAzLjUxOTUzMSBMIDEuNTgyMDMxIDMuNTE5NTMxIEwgMS41ODIwMzEgLTkuMzAwNzgxIEwgMy4xMDkzNzUgLTkuMzAwNzgxIEwgMy4xMDkzNzUgLTguMTA5Mzc1IEMgMy4zNjcxODggLTguNTY2NDA2IDMuNzA3MDMxIC04LjkyNTc4MSA0LjEzMjgxMiAtOS4xNjQwNjIgQyA0LjUzOTA2MiAtOS40MDIzNDQgNS4wMzEyNSAtOS41MTk1MzEgNS41OTM3NSAtOS41MTk1MzEgQyA2LjcxNDg0NCAtOS41MTk1MzEgNy41ODIwMzEgLTkuMDc4MTI1IDguMjI2NTYyIC04LjIxMDkzOCBDIDguODc1IC03LjM0Mzc1IDkuMTk1MzEyIC02LjEzNjcxOSA5LjE5NTMxMiAtNC42MDU0NjkgQyA5LjE5NTMxMiAtMy4wOTM3NSA4Ljg3NSAtMS45MDIzNDQgOC4yMjY1NjIgLTEuMDU0Njg4IEMgNy41ODIwMzEgLTAuMjAzMTI1IDYuNzE0ODQ0IDAuMjIyNjU2IDUuNTkzNzUgMC4yMjI2NTYgQyA1LjAxNTYyNSAwLjIyMjY1NiA0LjUyMzQzOCAwLjEwMTU2MiA0LjExMzI4MSAtMC4xMTcxODggQyAzLjY4NzUgLTAuMzU1NDY5IDMuMzQ3NjU2IC0wLjY5NTMxMiAzLjEwOTM3NSAtMS4xNzE4NzUgTSA3LjU5NzY1NiAtNC42NDA2MjUgQyA3LjU5NzY1NiAtNS44MTI1IDcuNDEwMTU2IC02LjY5OTIxOSA3LjAzOTA2MiAtNy4zMDg1OTQgQyA2LjY2NDA2MiAtNy45MjE4NzUgNi4xMDE1NjIgLTguMjI2NTYyIDUuMzcxMDk0IC04LjIyNjU2MiBDIDQuNjI1IC04LjIyNjU2MiA0LjA0Njg3NSAtNy45MjE4NzUgMy42NzE4NzUgLTcuMzA4NTk0IEMgMy4yOTY4NzUgLTYuNjk5MjE5IDMuMTA5Mzc1IC01LjgxMjUgMy4xMDkzNzUgLTQuNjQwNjI1IEMgMy4xMDkzNzUgLTMuNDQ5MjE5IDMuMjk2ODc1IC0yLjU2NjQwNiAzLjY3MTg3NSAtMS45NTMxMjUgQyA0LjA0Njg3NSAtMS4zNDM3NSA0LjYyNSAtMS4wNTQ2ODggNS4zNzEwOTQgLTEuMDU0Njg4IEMgNi4xMDE1NjIgLTEuMDU0Njg4IDYuNjY0MDYyIC0xLjM0Mzc1IDcuMDM5MDYyIC0xLjk1MzEyNSBDIDcuNDEwMTU2IC0yLjU1MDc4MSA3LjU5NzY1NiAtMy40NDkyMTkgNy41OTc2NTYgLTQuNjQwNjI1Ii8+JiN4YTsgICAgICA8L2c+JiN4YTsgICAgICA8ZyBpZD0iZ2x5cGgtNC0xMSI+JiN4YTsgICAgICAgIDxwYXRoIGlkPSJwYXRoMzA1IiBkPSJNIDguMjI2NTYyIC0xMi4xMjEwOTQgTCA4LjIyNjU2MiAtMTAuNTc0MjE5IEMgNy44NzEwOTQgLTEwLjc3NzM0NCA3LjQ5NjA5NCAtMTAuOTI5Njg4IDcuMTA1NDY5IC0xMS4wMzEyNSBDIDYuNzE0ODQ0IC0xMS4xMzY3MTkgNi4zMDg1OTQgLTExLjIwMzEyNSA1Ljg4MjgxMiAtMTEuMjAzMTI1IEMgNC44MTI1IC0xMS4yMDMxMjUgNC4wMTE3MTkgLTEwLjc5Njg3NSAzLjQ2ODc1IC05Ljk5NjA5NCBDIDIuOTI1NzgxIC05LjE5NTMxMiAyLjY1MjM0NCAtOC4wMjM0MzggMi42NTIzNDQgLTYuNDc2NTYyIEMgMi45MDYyNSAtNy4wMTk1MzEgMy4yNjU2MjUgLTcuNDQ1MzEyIDMuNzM4MjgxIC03Ljc1MzkwNiBDIDQuMjE0ODQ0IC04LjAzOTA2MiA0Ljc2MTcxOSAtOC4xOTUzMTIgNS4zNzEwOTQgLTguMTk1MzEyIEMgNi41NjI1IC04LjE5NTMxMiA3LjQ4MDQ2OSAtNy44MjAzMTIgOC4xNDQ1MzEgLTcuMDg5ODQ0IEMgOC43ODkwNjIgLTYuMzU5Mzc1IDkuMTI4OTA2IC01LjMyMDMxMiA5LjEyODkwNiAtMy45NzY1NjIgQyA5LjEyODkwNiAtMi42MzY3MTkgOC43ODkwNjIgLTEuNTk3NjU2IDguMTA5Mzc1IC0wLjg2NzE4OCBDIDcuNDI5Njg4IC0wLjEzNjcxOSA2LjQ5MjE4OCAwLjIyMjY1NiA1LjI2OTUzMSAwLjIyMjY1NiBDIDMuODI0MjE5IDAuMjIyNjU2IDIuNzY5NTMxIC0wLjI4OTA2MiAyLjEwOTM3NSAtMS4zMDg1OTQgQyAxLjQyOTY4OCAtMi4zMjgxMjUgMS4xMDU0NjkgLTMuOTYwOTM4IDEuMTA1NDY5IC02LjE4NzUgQyAxLjEwNTQ2OSAtOC4yNjE3MTkgMS40OTYwOTQgLTkuODU5Mzc1IDIuMzEyNSAtMTAuOTY0ODQ0IEMgMy4xMDkzNzUgLTEyLjA1NDY4OCA0LjI4NTE1NiAtMTIuNjEzMjgxIDUuODEyNSAtMTIuNjEzMjgxIEMgNi4yMjI2NTYgLTEyLjYxMzI4MSA2LjYyODkwNiAtMTIuNTYyNSA3LjAzOTA2MiAtMTIuNDc2NTYyIEMgNy40NDUzMTIgLTEyLjM5NDUzMSA3LjgzNTkzOCAtMTIuMjczNDM4IDguMjI2NTYyIC0xMi4xMjEwOTQgTSA1LjIzNDM3NSAtNi44ODY3MTkgQyA0LjUyMzQzOCAtNi44ODY3MTkgMy45NjA5MzggLTYuNjEzMjgxIDMuNTU0Njg4IC02LjEwMTU2MiBDIDMuMTQ0NTMxIC01LjU5Mzc1IDIuOTQxNDA2IC00Ljg3ODkwNiAyLjk0MTQwNiAtMy45NzY1NjIgQyAyLjk0MTQwNiAtMy4wNTg1OTQgMy4xNDQ1MzEgLTIuMzQ3NjU2IDMuNTU0Njg4IC0xLjgzNTkzOCBDIDMuOTYwOTM4IC0xLjMyNDIxOSA0LjUyMzQzOCAtMS4wNzAzMTIgNS4yMzQzNzUgLTEuMDcwMzEyIEMgNS45ODQzNzUgLTEuMDcwMzEyIDYuNTQ2ODc1IC0xLjMwODU5NCA2LjkxNzk2OSAtMS44MDA3ODEgQyA3LjI5Mjk2OSAtMi4yNzczNDQgNy40ODA0NjkgLTMuMDA3ODEyIDcuNDgwNDY5IC0zLjk3NjU2MiBDIDcuNDgwNDY5IC00LjkyOTY4OCA3LjI5Mjk2OSAtNS42NjAxNTYgNi45MTc5NjkgLTYuMTUyMzQ0IEMgNi41NDY4NzUgLTYuNjI4OTA2IDUuOTg0Mzc1IC02Ljg4NjcxOSA1LjIzNDM3NSAtNi44ODY3MTkiLz4mI3hhOyAgICAgIDwvZz4mI3hhOyAgICAgIDxnIGlkPSJnbHlwaC00LTEyIj4mI3hhOyAgICAgICAgPHBhdGggaWQ9InBhdGgzMDgiIGQ9Ik0gNi40NDE0MDYgLTYuNjI4OTA2IEMgNy4yNTc4MTIgLTYuNDEwMTU2IDcuODcxMDk0IC02LjAxOTUzMSA4LjMxMjUgLTUuNDcyNjU2IEMgOC43MzgyODEgLTQuOTI5Njg4IDguOTYwOTM4IC00LjIzNDM3NSA4Ljk2MDkzOCAtMy40MTc5NjkgQyA4Ljk2MDkzOCAtMi4yNzczNDQgOC41NjY0MDYgLTEuMzk0NTMxIDcuODA0Njg4IC0wLjc0NjA5NCBDIDcuMDM5MDYyIC0wLjEwMTU2MiA1Ljk4NDM3NSAwLjIyMjY1NiA0LjYyNSAwLjIyMjY1NiBDIDQuMDQ2ODc1IDAuMjIyNjU2IDMuNDY4NzUgMC4xNzE4NzUgMi44NzEwOTQgMC4wNjY0MDYyIEMgMi4yNzczNDQgLTAuMDE1NjI1IDEuNjk5MjE5IC0wLjE3MTg3NSAxLjE0MDYyNSAtMC4zNzUgTCAxLjE0MDYyNSAtMi4wMzkwNjIgQyAxLjY5OTIxOSAtMS43MzQzNzUgMi4yNjE3MTkgLTEuNTExNzE5IDIuODA0Njg4IC0xLjM3ODkwNiBDIDMuMzQ3NjU2IC0xLjI0MjE4OCAzLjg5NDUzMSAtMS4xNzE4NzUgNC40Mzc1IC0xLjE3MTg3NSBDIDUuMzU1NDY5IC0xLjE3MTg3NSA2LjA1MDc4MSAtMS4zNzg5MDYgNi41NDY4NzUgLTEuNzg1MTU2IEMgNy4wMzkwNjIgLTIuMTkxNDA2IDcuMjkyOTY5IC0yLjgwNDY4OCA3LjI5Mjk2OSAtMy41ODU5MzggQyA3LjI5Mjk2OSAtNC4zMDA3ODEgNy4wMzkwNjIgLTQuODYzMjgxIDYuNTQ2ODc1IC01LjI4NTE1NiBDIDYuMDUwNzgxIC01LjcxMDkzOCA1LjM5MDYyNSAtNS45MzM1OTQgNC41NTQ2ODggLTUuOTMzNTk0IEwgMy4yODEyNSAtNS45MzM1OTQgTCAzLjI4MTI1IC03LjMwODU5NCBMIDQuNTU0Njg4IC03LjMwODU5NCBDIDUuMzIwMzEyIC03LjMwODU5NCA1LjkxNDA2MiAtNy40ODA0NjkgNi4zNTkzNzUgLTcuODIwMzEyIEMgNi43ODEyNSAtOC4xNjAxNTYgNy4wMDM5MDYgLTguNjE3MTg4IDcuMDAzOTA2IC05LjIzMDQ2OSBDIDcuMDAzOTA2IC05Ljg1OTM3NSA2LjgwMDc4MSAtMTAuMzUxNTYyIDYuMzkwNjI1IC0xMC42OTE0MDYgQyA1Ljk4NDM3NSAtMTEuMDMxMjUgNS40MjE4NzUgLTExLjIwMzEyNSA0LjY5MTQwNiAtMTEuMjAzMTI1IEMgNC4xODM1OTQgLTExLjIwMzEyNSAzLjY3MTg3NSAtMTEuMTM2NzE5IDMuMTYwMTU2IC0xMS4wMzEyNSBDIDIuNjM2NzE5IC0xMC45Mjk2ODggMi4wODk4NDQgLTEwLjc2MTcxOSAxLjUxMTcxOSAtMTAuNTM5MDYyIEwgMS41MTE3MTkgLTEyLjA4NTkzOCBDIDIuMTc1NzgxIC0xMi4yNTc4MTIgMi43Njk1MzEgLTEyLjM5NDUzMSAzLjI5Njg3NSAtMTIuNDc2NTYyIEMgMy44MDg1OTQgLTEyLjU2MjUgNC4yODUxNTYgLTEyLjYxMzI4MSA0LjY5MTQwNiAtMTIuNjEzMjgxIEMgNS44ODI4MTIgLTEyLjYxMzI4MSA2Ljg1MTU2MiAtMTIuMzA4NTk0IDcuNTgyMDMxIC0xMS42OTUzMTIgQyA4LjI5Njg3NSAtMTEuMDg1OTM4IDguNjcxODc1IC0xMC4yODUxNTYgOC42NzE4NzUgLTkuMzAwNzgxIEMgOC42NzE4NzUgLTguNjE3MTg4IDguNDY0ODQ0IC04LjAzOTA2MiA4LjA5Mzc1IC03LjU5NzY1NiBDIDcuNzE4NzUgLTcuMTQwNjI1IDcuMTU2MjUgLTYuODE2NDA2IDYuNDQxNDA2IC02LjYyODkwNiIvPiYjeGE7ICAgICAgPC9nPiYjeGE7ICAgICAgPGcgaWQ9ImdseXBoLTQtMTMiPiYjeGE7ICAgICAgICA8cGF0aCBpZD0icGF0aDMxMSIgZD0iTSA4LjA3NDIxOSAtOC45NzY1NjIgTCA4LjA3NDIxOSAtNy40ODA0NjkgQyA3LjYzMjgxMiAtNy43MTg3NSA3LjE5MTQwNiAtNy45MDYyNSA2Ljc1IC04LjAzOTA2MiBDIDYuMzA4NTk0IC04LjE3NTc4MSA1Ljg0NzY1NiAtOC4yNDYwOTQgNS40MDYyNSAtOC4yNDYwOTQgQyA0LjcxMDkzOCAtOC4yNDYwOTQgNC4xOTkyMTkgLTguMTI1IDMuODU5Mzc1IC03LjkwNjI1IEMgMy41MTk1MzEgLTcuNjY3OTY5IDMuMzQ3NjU2IC03LjMyODEyNSAzLjM0NzY1NiAtNi44ODY3MTkgQyAzLjM0NzY1NiAtNi40NjA5MzggMy40Njg3NSAtNi4xNTIzNDQgMy43MjI2NTYgLTUuOTQ5MjE5IEMgMy45NzY1NjIgLTUuNzQ2MDk0IDQuNjA1NDY5IC01LjU0Mjk2OSA1LjYyODkwNiAtNS4zNTU0NjkgTCA2LjIzODI4MSAtNS4yMzQzNzUgQyA2Ljk4ODI4MSAtNS4wODIwMzEgNy41NjY0MDYgLTQuNzkyOTY5IDcuOTU3MDMxIC00LjM2NzE4OCBDIDguMzQ3NjU2IC0zLjkyNTc4MSA4LjU1MDc4MSAtMy4zNjcxODggOC41NTA3ODEgLTIuNjg3NSBDIDguNTUwNzgxIC0xLjc2OTUzMSA4LjIxMDkzOCAtMS4wNTQ2ODggNy41NjY0MDYgLTAuNTQyOTY5IEMgNi45MTc5NjkgLTAuMDM1MTU2MiA2IDAuMjIyNjU2IDQuODQzNzUgMC4yMjI2NTYgQyA0LjM4NjcxOSAwLjIyMjY1NiAzLjkxMDE1NiAwLjE3MTg3NSAzLjM5ODQzOCAwLjA4NTkzNzUgQyAyLjg5MDYyNSAwIDIuMzQ3NjU2IC0wLjEzNjcxOSAxLjc2OTUzMSAtMC4zMzk4NDQgTCAxLjc2OTUzMSAtMS45MjE4NzUgQyAyLjMyODEyNSAtMS42MTMyODEgMi44NzEwOTQgLTEuMzk0NTMxIDMuMzk4NDM4IC0xLjI1NzgxMiBDIDMuOTEwMTU2IC0xLjEwNTQ2OSA0LjQwMjM0NCAtMS4wMzUxNTYgNC44Nzg5MDYgLTEuMDM1MTU2IEMgNS41NTg1OTQgLTEuMDM1MTU2IDYuMDcwMzEyIC0xLjE3MTg3NSA2LjQ0MTQwNiAtMS40NDUzMTIgQyA2LjgxNjQwNiAtMS43MTg3NSA3LjAwMzkwNiAtMi4wODk4NDQgNy4wMDM5MDYgLTIuNjAxNTYyIEMgNy4wMDM5MDYgLTMuMjk2ODc1IDYuMzI0MjE5IC0zLjc4OTA2MiA0Ljk2NDg0NCAtNC4wNjI1IEwgNC45MTQwNjIgLTQuMDc4MTI1IEwgNC4zMzU5MzggLTQuMTk5MjE5IEMgMy40NDkyMTkgLTQuMzY3MTg4IDIuODA0Njg4IC00LjY1NjI1IDIuMzk4NDM4IC01LjA2NjQwNiBDIDEuOTg4MjgxIC01LjQ3MjY1NiAxLjgwMDc4MSAtNi4wMTk1MzEgMS44MDA3ODEgLTYuNzMwNDY5IEMgMS44MDA3ODEgLTcuNjE3MTg4IDIuMDg5ODQ0IC04LjMxMjUgMi43MDMxMjUgLTguNzg5MDYyIEMgMy4yOTY4NzUgLTkuMjY1NjI1IDQuMTY0MDYyIC05LjUxOTUzMSA1LjI4NTE1NiAtOS41MTk1MzEgQyA1Ljc4MTI1IC05LjUxOTUzMSA2LjI1NzgxMiAtOS40Njg3NSA2LjcxNDg0NCAtOS4zODI4MTIgQyA3LjE3NTc4MSAtOS4yODEyNSA3LjYzMjgxMiAtOS4xNDQ1MzEgOC4wNzQyMTkgLTguOTc2NTYyIi8+JiN4YTsgICAgICA8L2c+JiN4YTsgICAgICA8ZyBpZD0iZ2x5cGgtNC0xNCI+JiN4YTsgICAgICAgIDxwYXRoIGlkPSJwYXRoMzE0IiBkPSJNIDUuNjA5Mzc1IC04LjM0NzY1NiBDIDUuNzk2ODc1IC04LjczODI4MSA2LjAzNTE1NiAtOS4wMjczNDQgNi4zMjQyMTkgLTkuMjMwNDY5IEMgNi42MTMyODEgLTkuNDE3OTY5IDYuOTY4NzUgLTkuNTE5NTMxIDcuMzc4OTA2IC05LjUxOTUzMSBDIDguMTI1IC05LjUxOTUzMSA4LjY1MjM0NCAtOS4yMzA0NjkgOC45NjA5MzggLTguNjUyMzQ0IEMgOS4yNjU2MjUgLTguMDc0MjE5IDkuNDE3OTY5IC02Ljk4ODI4MSA5LjQxNzk2OSAtNS4zOTA2MjUgTCA5LjQxNzk2OSAwIEwgOC4wMjM0MzggMCBMIDguMDIzNDM4IC01LjMyMDMxMiBDIDguMDIzNDM4IC02LjYyODkwNiA3LjkzNzUgLTcuNDQ1MzEyIDcuODA0Njg4IC03Ljc2OTUzMSBDIDcuNjQ4NDM4IC04LjA3NDIxOSA3LjM3ODkwNiAtOC4yNDYwOTQgNy4wMDM5MDYgLTguMjQ2MDk0IEMgNi41NjI1IC04LjI0NjA5NCA2LjI1NzgxMiAtOC4wNzQyMTkgNi4wODU5MzggLTcuNzM0Mzc1IEMgNS45MTQwNjIgLTcuMzk0NTMxIDUuODQ3NjU2IC02LjU3ODEyNSA1Ljg0NzY1NiAtNS4zMjAzMTIgTCA1Ljg0NzY1NiAwIEwgNC40NTMxMjUgMCBMIDQuNDUzMTI1IC01LjMyMDMxMiBDIDQuNDUzMTI1IC02LjY0ODQzOCA0LjM2NzE4OCAtNy40NjQ4NDQgNC4yMTQ4NDQgLTcuNzY5NTMxIEMgNC4wNDY4NzUgLTguMDc0MjE5IDMuNzczNDM4IC04LjI0NjA5NCAzLjM2NzE4OCAtOC4yNDYwOTQgQyAyLjk1NzAzMSAtOC4yNDYwOTQgMi42ODc1IC04LjA3NDIxOSAyLjUzMTI1IC03LjczNDM3NSBDIDIuMzYzMjgxIC03LjM5NDUzMSAyLjI5Njg3NSAtNi41NzgxMjUgMi4yOTY4NzUgLTUuMzIwMzEyIEwgMi4yOTY4NzUgMCBMIDAuOTAyMzQ0IDAgTCAwLjkwMjM0NCAtOS4zMDA3ODEgTCAyLjI5Njg3NSAtOS4zMDA3ODEgTCAyLjI5Njg3NSAtOC41IEMgMi40NjQ4NDQgLTguODI0MjE5IDIuNzAzMTI1IC05LjA3ODEyNSAyLjk3NjU2MiAtOS4yNDYwOTQgQyAzLjI0NjA5NCAtOS40MTc5NjkgMy41NTQ2ODggLTkuNTE5NTMxIDMuOTEwMTU2IC05LjUxOTUzMSBDIDQuMzE2NDA2IC05LjUxOTUzMSA0LjY3NTc4MSAtOS40MTc5NjkgNC45NDUzMTIgLTkuMjMwNDY5IEMgNS4yMTg3NSAtOS4wMjczNDQgNS40NDE0MDYgLTguNzM4MjgxIDUuNjA5Mzc1IC04LjM0NzY1NiIvPiYjeGE7ICAgICAgPC9nPiYjeGE7ICAgICAgPGcgaWQ9ImdseXBoLTQtMTUiPiYjeGE7ICAgICAgICA8cGF0aCBpZD0icGF0aDMxNyIgZD0iTSA1LjMwNDY4OCAtMy4zNjcxODggQyA1LjMwNDY4OCAtMi42ODc1IDUuNDIxODc1IC0yLjE2MDE1NiA1LjY3OTY4OCAtMS44MjAzMTIgQyA1LjkxNDA2MiAtMS40NjA5MzggNi4yODkwNjIgLTEuMjkyOTY5IDYuODAwNzgxIC0xLjI5Mjk2OSBMIDguNTg1OTM4IC0xLjI5Mjk2OSBMIDguNTg1OTM4IDAgTCA2LjY0ODQzOCAwIEMgNS43MzA0NjkgMCA1LjAzMTI1IC0wLjI4OTA2MiA0LjUyMzQzOCAtMC44ODI4MTIgQyA0LjAxMTcxOSAtMS40NjA5MzggMy43NzM0MzggLTIuMjk2ODc1IDMuNzczNDM4IC0zLjM2NzE4OCBMIDMuNzczNDM4IC0xMS44MTY0MDYgTCAxLjMyNDIxOSAtMTEuODE2NDA2IEwgMS4zMjQyMTkgLTEzLjAwMzkwNiBMIDUuMzA0Njg4IC0xMy4wMDM5MDYgTCA1LjMwNDY4OCAtMy4zNjcxODgiLz4mI3hhOyAgICAgIDwvZz4mI3hhOyAgICAgIDxnIGlkPSJnbHlwaC00LTE2Ij4mI3hhOyAgICAgICAgPHBhdGggaWQ9InBhdGgzMjAiIGQ9Ik0gOS4yMzA0NjkgLTUuMDMxMjUgTCA5LjIzMDQ2OSAtNC4yODUxNTYgTCAyLjYxNzE4OCAtNC4yODUxNTYgTCAyLjYxNzE4OCAtNC4yMzQzNzUgQyAyLjYxNzE4OCAtMy4yMTQ4NDQgMi44NzEwOTQgLTIuNDI5Njg4IDMuMzk4NDM4IC0xLjg4NjcxOSBDIDMuOTI1NzgxIC0xLjMyNDIxOSA0LjY3NTc4MSAtMS4wNTQ2ODggNS42NDQ1MzEgLTEuMDU0Njg4IEMgNi4xMjEwOTQgLTEuMDU0Njg4IDYuNjI4OTA2IC0xLjEyMTA5NCA3LjE3NTc4MSAtMS4yNzM0MzggQyA3LjY5OTIxOSAtMS40Mjk2ODggOC4yNjE3MTkgLTEuNjY0MDYyIDguODc1IC0xLjk4ODI4MSBMIDguODc1IC0wLjQ3NjU2MiBDIDguMjk2ODc1IC0wLjIzODI4MSA3LjczNDM3NSAtMC4wNTA3ODEyIDcuMTkxNDA2IDAuMDUwNzgxMiBDIDYuNjQ4NDM4IDAuMTUyMzQ0IDYuMTIxMDk0IDAuMjIyNjU2IDUuNjI4OTA2IDAuMjIyNjU2IEMgNC4xODM1OTQgMC4yMjI2NTYgMy4wNTg1OTQgLTAuMjAzMTI1IDIuMjQyMTg4IC0xLjA3MDMxMiBDIDEuNDI5Njg4IC0xLjkyMTg3NSAxLjAxOTUzMSAtMy4xMDkzNzUgMS4wMTk1MzEgLTQuNjQwNjI1IEMgMS4wMTk1MzEgLTYuMTIxMDk0IDEuNDEwMTU2IC03LjMwODU5NCAyLjIxMDkzOCAtOC4xOTUzMTIgQyAzLjAwNzgxMiAtOS4wNzgxMjUgNC4wNzgxMjUgLTkuNTE5NTMxIDUuNDA2MjUgLTkuNTE5NTMxIEMgNi41NzgxMjUgLTkuNTE5NTMxIDcuNTE1NjI1IC05LjExMzI4MSA4LjE5NTMxMiAtOC4zMTI1IEMgOC44NzUgLTcuNDk2MDk0IDkuMjMwNDY5IC02LjQxMDE1NiA5LjIzMDQ2OSAtNS4wMzEyNSBNIDcuNjk5MjE5IC01LjQ3MjY1NiBDIDcuNjY3OTY5IC02LjM1OTM3NSA3LjQ2NDg0NCAtNy4wMzkwNjIgNy4wNTQ2ODggLTcuNTE1NjI1IEMgNi42NDg0MzggLTcuOTg4MjgxIDYuMDg1OTM4IC04LjIyNjU2MiA1LjMzOTg0NCAtOC4yMjY1NjIgQyA0LjU4OTg0NCAtOC4yMjY1NjIgMy45OTYwOTQgLTcuOTcyNjU2IDMuNTE5NTMxIC03LjQ5NjA5NCBDIDMuMDQyOTY5IC03LjAwMzkwNiAyLjc1MzkwNiAtNi4zMjQyMTkgMi42Njc5NjkgLTUuNDcyNjU2IEwgNy42OTkyMTkgLTUuNDcyNjU2Ii8+JiN4YTsgICAgICA8L2c+JiN4YTsgICAgICA8ZyBpZD0iZ2x5cGgtNC0xNyI+JiN4YTsgICAgICAgIDxwYXRoIGlkPSJwYXRoMzIzIiBkPSJNIDcuMTIxMDk0IC04LjEwOTM3NSBMIDcuMTIxMDk0IC0xMi45MjE4NzUgTCA4LjY1MjM0NCAtMTIuOTIxODc1IEwgOC42NTIzNDQgMCBMIDcuMTIxMDk0IDAgTCA3LjEyMTA5NCAtMS4xNzE4NzUgQyA2Ljg1MTU2MiAtMC42OTUzMTIgNi41MTE3MTkgLTAuMzU1NDY5IDYuMTAxNTYyIC0wLjExNzE4OCBDIDUuNjc5Njg4IDAuMTAxNTYyIDUuMTgzNTk0IDAuMjIyNjU2IDQuNjQwNjI1IDAuMjIyNjU2IEMgMy41MTk1MzEgMC4yMjI2NTYgMi42MzY3MTkgLTAuMjAzMTI1IDEuOTg4MjgxIC0xLjA3MDMxMiBDIDEuMzQzNzUgLTEuOTM3NSAxLjAxOTUzMSAtMy4xNDQ1MzEgMS4wMTk1MzEgLTQuNjc1NzgxIEMgMS4wMTk1MzEgLTYuMTcxODc1IDEuMzQzNzUgLTcuMzU5Mzc1IDEuOTg4MjgxIC04LjIyNjU2MiBDIDIuNjM2NzE5IC05LjA3ODEyNSAzLjUxOTUzMSAtOS41MTk1MzEgNC42NDA2MjUgLTkuNTE5NTMxIEMgNS4xODM1OTQgLTkuNTE5NTMxIDUuNjc5Njg4IC05LjQwMjM0NCA2LjEwMTU2MiAtOS4xNjQwNjIgQyA2LjUyNzM0NCAtOC45MjU3ODEgNi44NjcxODggLTguNTY2NDA2IDcuMTIxMDk0IC04LjEwOTM3NSBNIDIuNjM2NzE5IC00LjY0MDYyNSBDIDIuNjM2NzE5IC0zLjQ0OTIxOSAyLjgyMDMxMiAtMi41NTA3ODEgMy4xOTUzMTIgLTEuOTUzMTI1IEMgMy41NzAzMTIgLTEuMzQzNzUgNC4xMTMyODEgLTEuMDU0Njg4IDQuODYzMjgxIC0xLjA1NDY4OCBDIDUuNTkzNzUgLTEuMDU0Njg4IDYuMTUyMzQ0IC0xLjM0Mzc1IDYuNTQ2ODc1IC0xLjk1MzEyNSBDIDYuOTE3OTY5IC0yLjU2NjQwNiA3LjEyMTA5NCAtMy40NDkyMTkgNy4xMjEwOTQgLTQuNjQwNjI1IEMgNy4xMjEwOTQgLTUuODEyNSA2LjkxNzk2OSAtNi42OTkyMTkgNi41NDY4NzUgLTcuMzA4NTk0IEMgNi4xNTIzNDQgLTcuOTIxODc1IDUuNTkzNzUgLTguMjI2NTYyIDQuODYzMjgxIC04LjIyNjU2MiBDIDQuMTEzMjgxIC04LjIyNjU2MiAzLjU3MDMxMiAtNy45MjE4NzUgMy4xOTUzMTIgLTcuMzA4NTk0IEMgMi44MjAzMTIgLTYuNjk5MjE5IDIuNjM2NzE5IC01LjgxMjUgMi42MzY3MTkgLTQuNjQwNjI1Ii8+JiN4YTsgICAgICA8L2c+JiN4YTsgICAgICA8ZyBpZD0iZ2x5cGgtNC0xOCI+JiN4YTsgICAgICAgIDxwYXRoIGlkPSJwYXRoMzI2IiBkPSJNIDEuNjEzMjgxIC0zLjUxOTUzMSBMIDEuNjEzMjgxIC05LjI4MTI1IEwgMy4xNDQ1MzEgLTkuMjgxMjUgTCAzLjE0NDUzMSAtMy41MTk1MzEgQyAzLjE0NDUzMSAtMi42Njc5NjkgMy4yODEyNSAtMi4wNTg1OTQgMy41ODU5MzggLTEuNjY0MDYyIEMgMy44NzUgLTEuMjczNDM4IDQuMzM1OTM4IC0xLjA4OTg0NCA0Ljk2NDg0NCAtMS4wODk4NDQgQyA1LjY3OTY4OCAtMS4wODk4NDQgNi4yMjI2NTYgLTEuMzI0MjE5IDYuNjEzMjgxIC0xLjgzNTkzOCBDIDYuOTg4MjgxIC0yLjM0NzY1NiA3LjE5MTQwNiAtMy4wNzgxMjUgNy4xOTE0MDYgLTQuMDI3MzQ0IEwgNy4xOTE0MDYgLTkuMjgxMjUgTCA4LjcyMjY1NiAtOS4yODEyNSBMIDguNzIyNjU2IDAgTCA3LjE5MTQwNiAwIEwgNy4xOTE0MDYgLTEuMzk0NTMxIEMgNi45MTc5NjkgLTAuODUxNTYyIDYuNTQ2ODc1IC0wLjQ2MDkzOCA2LjA3MDMxMiAtMC4xODc1IEMgNS41OTM3NSAwLjA4NTkzNzUgNS4wNTA3ODEgMC4yMjI2NTYgNC40Mzc1IDAuMjIyNjU2IEMgMy40ODQzNzUgMC4yMjI2NTYgMi43Njk1MzEgLTAuMDg1OTM3NSAyLjMxMjUgLTAuNjk1MzEyIEMgMS44MzU5MzggLTEuMzA4NTk0IDEuNjEzMjgxIC0yLjI2MTcxOSAxLjYxMzI4MSAtMy41MTk1MzEiLz4mI3hhOyAgICAgIDwvZz4mI3hhOyAgICAgIDxnIGlkPSJnbHlwaC00LTE5Ij4mI3hhOyAgICAgICAgPHBhdGggaWQ9InBhdGgzMjkiIGQ9Ik0gOS41ODk4NDQgLTcuMzc4OTA2IEMgOS4yNDYwOTQgLTcuNjMyODEyIDguOTI1NzgxIC03LjgyMDMxMiA4LjU4NTkzOCAtNy45Mzc1IEMgOC4yNDYwOTQgLTguMDM5MDYyIDcuODg2NzE5IC04LjEwOTM3NSA3LjQ4MDQ2OSAtOC4xMDkzNzUgQyA2LjUyNzM0NCAtOC4xMDkzNzUgNS43OTY4NzUgLTcuODA0Njg4IDUuMjg1MTU2IC03LjIwNzAzMSBDIDQuNzc3MzQ0IC02LjYxMzI4MSA0LjUzOTA2MiAtNS43NDYwOTQgNC41MzkwNjIgLTQuNjI1IEwgNC41MzkwNjIgMCBMIDMuMDA3ODEyIDAgTCAzLjAwNzgxMiAtOS4zMDA3ODEgTCA0LjUzOTA2MiAtOS4zMDA3ODEgTCA0LjUzOTA2MiAtNy40ODA0NjkgQyA0Ljc5Mjk2OSAtOC4xMjUgNS4xODM1OTQgLTguNjM2NzE5IDUuNzEwOTM4IC04Ljk5MjE4OCBDIDYuMjM4MjgxIC05LjMzMjAzMSA2Ljg2NzE4OCAtOS41MTk1MzEgNy41OTc2NTYgLTkuNTE5NTMxIEMgNy45NzI2NTYgLTkuNTE5NTMxIDguMzEyNSAtOS40Njg3NSA4LjY1MjM0NCAtOS4zNjcxODggQyA4Ljk3NjU2MiAtOS4yNjU2MjUgOS4yODEyNSAtOS4xMjg5MDYgOS41ODk4NDQgLTguOTQxNDA2IEwgOS41ODk4NDQgLTcuMzc4OTA2Ii8+JiN4YTsgICAgICA8L2c+JiN4YTsgICAgICA8ZyBpZD0iZ2x5cGgtNC0yMCI+JiN4YTsgICAgICAgIDxwYXRoIGlkPSJwYXRoMzMyIiBkPSJNIDcuMTIxMDk0IC00LjcyNjU2MiBDIDcuMTIxMDk0IC01Ljg2MzI4MSA2LjkzNzUgLTYuNzMwNDY5IDYuNTYyNSAtNy4zMjgxMjUgQyA2LjE4NzUgLTcuOTIxODc1IDUuNjQ0NTMxIC04LjIyNjU2MiA0LjkyOTY4OCAtOC4yMjY1NjIgQyA0LjE4MzU5NCAtOC4yMjY1NjIgMy42MDU0NjkgLTcuOTIxODc1IDMuMjE0ODQ0IC03LjMyODEyNSBDIDIuODIwMzEyIC02LjczMDQ2OSAyLjYzNjcxOSAtNS44NjMyODEgMi42MzY3MTkgLTQuNzI2NTYyIEMgMi42MzY3MTkgLTMuNTcwMzEyIDIuODIwMzEyIC0yLjcwMzEyNSAzLjIzMDQ2OSAtMi4xMDkzNzUgQyAzLjYyMTA5NCAtMS40OTYwOTQgNC4xOTkyMTkgLTEuMjA3MDMxIDQuOTQ1MzEyIC0xLjIwNzAzMSBDIDUuNjQ0NTMxIC0xLjIwNzAzMSA2LjE4NzUgLTEuNDk2MDk0IDYuNTYyNSAtMi4xMDkzNzUgQyA2LjkzNzUgLTIuNzAzMTI1IDcuMTIxMDk0IC0zLjU3MDMxMiA3LjEyMTA5NCAtNC43MjY1NjIgTSA4LjY1MjM0NCAtMC41OTM3NSBDIDguNjUyMzQ0IDAuNzgxMjUgOC4zMTI1IDEuODM1OTM4IDcuNjY3OTY5IDIuNTUwNzgxIEMgNy4wMDM5MDYgMy4yNjU2MjUgNi4wMzUxNTYgMy42MzY3MTkgNC43NjE3MTkgMy42MzY3MTkgQyA0LjMzNTkzOCAzLjYzNjcxOSAzLjg5NDUzMSAzLjU4NTkzOCAzLjQzMzU5NCAzLjUxOTUzMSBDIDIuOTc2NTYyIDMuNDMzNTk0IDIuNTE1NjI1IDMuMzE2NDA2IDIuMDU4NTk0IDMuMTc5Njg4IEwgMi4wNTg1OTQgMS42NjQwNjIgQyAyLjYwMTU2MiAxLjkyMTg3NSAzLjA5Mzc1IDIuMTA5Mzc1IDMuNTM1MTU2IDIuMjI2NTYyIEMgMy45NzY1NjIgMi4zNDc2NTYgNC4zODY3MTkgMi40MTQwNjIgNC43NjE3MTkgMi40MTQwNjIgQyA1LjU3NDIxOSAyLjQxNDA2MiA2LjE4NzUgMi4xNzU3ODEgNi41NjI1IDEuNzM0Mzc1IEMgNi45Mzc1IDEuMjkyOTY5IDcuMTIxMDk0IDAuNTc4MTI1IDcuMTIxMDk0IC0wLjM3NSBMIDcuMTIxMDk0IC0xLjQ4MDQ2OSBDIDYuODY3MTg4IC0wLjk1MzEyNSA2LjUyNzM0NCAtMC41NjI1IDYuMTIxMDk0IC0wLjMyNDIxOSBDIDUuNjk1MzEyIC0wLjA2NjQwNjIgNS4xODM1OTQgMC4wNTA3ODEyIDQuNTg5ODQ0IDAuMDUwNzgxMiBDIDMuNTAzOTA2IDAuMDUwNzgxMiAyLjYzNjcxOSAtMC4zNzUgMS45ODgyODEgLTEuMjQyMTg4IEMgMS4zNDM3NSAtMi4wODk4NDQgMS4wMTk1MzEgLTMuMjY1NjI1IDEuMDE5NTMxIC00LjcyNjU2MiBDIDEuMDE5NTMxIC02LjE4NzUgMS4zNDM3NSAtNy4zNDM3NSAxLjk4ODI4MSAtOC4yMTA5MzggQyAyLjYzNjcxOSAtOS4wNzgxMjUgMy41MDM5MDYgLTkuNTE5NTMxIDQuNTg5ODQ0IC05LjUxOTUzMSBDIDUuMTgzNTk0IC05LjUxOTUzMSA1LjY5NTMxMiAtOS40MDIzNDQgNi4xMDE1NjIgLTkuMTY0MDYyIEMgNi41MTE3MTkgLTguOTI1NzgxIDYuODUxNTYyIC04LjU1MDc4MSA3LjEyMTA5NCAtOC4wNTg1OTQgTCA3LjEyMTA5NCAtOS4yNjU2MjUgTCA4LjY1MjM0NCAtOS4yNjU2MjUgTCA4LjY1MjM0NCAtMC41OTM3NSIvPiYjeGE7ICAgICAgPC9nPiYjeGE7ICAgIDwvZz4mI3hhOyAgICA8Y2xpcFBhdGggaWQ9ImNsaXAtMCI+JiN4YTsgICAgICA8cGF0aCBpZD0icGF0aDMzNyIgZD0iTSAxMzMgNy4xOTkyMTkgTCAxMzQgNy4xOTkyMTkgTCAxMzQgNzI3LjkyMTg3NSBMIDEzMyA3MjcuOTIxODc1IFogTSAxMzMgNy4xOTkyMTkiIGNsaXAtcnVsZT0ibm9uemVybyIvPiYjeGE7ICAgIDwvY2xpcFBhdGg+JiN4YTsgICAgPGNsaXBQYXRoIGlkPSJjbGlwLTEiPiYjeGE7ICAgICAgPHBhdGggaWQ9InBhdGgzNDAiIGQ9Ik0gMjY5IDcuMTk5MjE5IEwgMjcxIDcuMTk5MjE5IEwgMjcxIDcyNy45MjE4NzUgTCAyNjkgNzI3LjkyMTg3NSBaIE0gMjY5IDcuMTk5MjE5IiBjbGlwLXJ1bGU9Im5vbnplcm8iLz4mI3hhOyAgICA8L2NsaXBQYXRoPiYjeGE7ICAgIDxjbGlwUGF0aCBpZD0iY2xpcC0yIj4mI3hhOyAgICAgIDxwYXRoIGlkPSJwYXRoMzQzIiBkPSJNIDQwNiA3LjE5OTIxOSBMIDQwNyA3LjE5OTIxOSBMIDQwNyA3MjcuOTIxODc1IEwgNDA2IDcyNy45MjE4NzUgWiBNIDQwNiA3LjE5OTIxOSIgY2xpcC1ydWxlPSJub256ZXJvIi8+JiN4YTsgICAgPC9jbGlwUGF0aD4mI3hhOyAgICA8Y2xpcFBhdGggaWQ9ImNsaXAtMyI+JiN4YTsgICAgICA8cGF0aCBpZD0icGF0aDM0NiIgZD0iTSA1NDIgNy4xOTkyMTkgTCA1NDQgNy4xOTkyMTkgTCA1NDQgNzI3LjkyMTg3NSBMIDU0MiA3MjcuOTIxODc1IFogTSA1NDIgNy4xOTkyMTkiIGNsaXAtcnVsZT0ibm9uemVybyIvPiYjeGE7ICAgIDwvY2xpcFBhdGg+JiN4YTsgICAgPGNsaXBQYXRoIGlkPSJjbGlwLTQiPiYjeGE7ICAgICAgPHBhdGggaWQ9InBhdGgzNDkiIGQ9Ik0gNjc5IDcuMTk5MjE5IEwgNjgxIDcuMTk5MjE5IEwgNjgxIDcyNy45MjE4NzUgTCA2NzkgNzI3LjkyMTg3NSBaIE0gNjc5IDcuMTk5MjE5IiBjbGlwLXJ1bGU9Im5vbnplcm8iLz4mI3hhOyAgICA8L2NsaXBQYXRoPiYjeGE7ICAgIDxjbGlwUGF0aCBpZD0iY2xpcC01Ij4mI3hhOyAgICAgIDxwYXRoIGlkPSJwYXRoMzUyIiBkPSJNIDgxNSA3LjE5OTIxOSBMIDgxNyA3LjE5OTIxOSBMIDgxNyA3MjcuOTIxODc1IEwgODE1IDcyNy45MjE4NzUgWiBNIDgxNSA3LjE5OTIxOSIgY2xpcC1ydWxlPSJub256ZXJvIi8+JiN4YTsgICAgPC9jbGlwUGF0aD4mI3hhOyAgICA8Y2xpcFBhdGggaWQ9ImNsaXAtNiI+JiN4YTsgICAgICA8cGF0aCBpZD0icGF0aDM1NSIgZD0iTSA4NC4yNzczNDQgMzkgTCA4NjUuNDc2NTYyIDM5IEwgODY1LjQ3NjU2MiA0MSBMIDg0LjI3NzM0NCA0MSBaIE0gODQuMjc3MzQ0IDM5IiBjbGlwLXJ1bGU9Im5vbnplcm8iLz4mI3hhOyAgICA8L2NsaXBQYXRoPiYjeGE7ICAgIDxjbGlwUGF0aCBpZD0iY2xpcC03Ij4mI3hhOyAgICAgIDxwYXRoIGlkPSJwYXRoMzU4IiBkPSJNIDg0LjI3NzM0NCAxNTggTCA4NjUuNDc2NTYyIDE1OCBMIDg2NS40NzY1NjIgMTYwIEwgODQuMjc3MzQ0IDE2MCBaIE0gODQuMjc3MzQ0IDE1OCIgY2xpcC1ydWxlPSJub256ZXJvIi8+JiN4YTsgICAgPC9jbGlwUGF0aD4mI3hhOyAgICA8Y2xpcFBhdGggaWQ9ImNsaXAtOCI+JiN4YTsgICAgICA8cGF0aCBpZD0icGF0aDM2MSIgZD0iTSA4NC4yNzczNDQgMjc3IEwgODY1LjQ3NjU2MiAyNzcgTCA4NjUuNDc2NTYyIDI3OSBMIDg0LjI3NzM0NCAyNzkgWiBNIDg0LjI3NzM0NCAyNzciIGNsaXAtcnVsZT0ibm9uemVybyIvPiYjeGE7ICAgIDwvY2xpcFBhdGg+JiN4YTsgICAgPGNsaXBQYXRoIGlkPSJjbGlwLTkiPiYjeGE7ICAgICAgPHBhdGggaWQ9InBhdGgzNjQiIGQ9Ik0gODQuMjc3MzQ0IDM5NiBMIDg2NS40NzY1NjIgMzk2IEwgODY1LjQ3NjU2MiAzOTggTCA4NC4yNzczNDQgMzk4IFogTSA4NC4yNzczNDQgMzk2IiBjbGlwLXJ1bGU9Im5vbnplcm8iLz4mI3hhOyAgICA8L2NsaXBQYXRoPiYjeGE7ICAgIDxjbGlwUGF0aCBpZD0iY2xpcC0xMCI+JiN4YTsgICAgICA8cGF0aCBpZD0icGF0aDM2NyIgZD0iTSA4NC4yNzczNDQgNTE2IEwgODY1LjQ3NjU2MiA1MTYgTCA4NjUuNDc2NTYyIDUxNyBMIDg0LjI3NzM0NCA1MTcgWiBNIDg0LjI3NzM0NCA1MTYiIGNsaXAtcnVsZT0ibm9uemVybyIvPiYjeGE7ICAgIDwvY2xpcFBhdGg+JiN4YTsgICAgPGNsaXBQYXRoIGlkPSJjbGlwLTExIj4mI3hhOyAgICAgIDxwYXRoIGlkPSJwYXRoMzcwIiBkPSJNIDg0LjI3NzM0NCA2MzUgTCA4NjUuNDc2NTYyIDYzNSBMIDg2NS40NzY1NjIgNjM2IEwgODQuMjc3MzQ0IDYzNiBaIE0gODQuMjc3MzQ0IDYzNSIgY2xpcC1ydWxlPSJub256ZXJvIi8+JiN4YTsgICAgPC9jbGlwUGF0aD4mI3hhOyAgPC9kZWZzPiYjeGE7ICA8cGF0aCBpZD0icGF0aDM3NSIgZD0iTSAwIDc4OS42Njc5NjkgTCA4NzIuNjc5Njg4IDc4OS42Njc5NjkgTCA4NzIuNjc5Njg4IDAgTCAwIDAgWiBNIDAgNzg5LjY2Nzk2OSIgZmlsbC1vcGFjaXR5PSIxIiBmaWxsPSJyZ2IoMTAwJSwgMTAwJSwgMTAwJSkiIGZpbGwtcnVsZT0ibm9uemVybyIvPiYjeGE7ICA8cGF0aCBpZD0icGF0aDM3NyIgZD0iTSA4NC4yNzczNDQgNzI3LjkyMTg3NSBMIDg2NS40NzY1NjIgNzI3LjkyMTg3NSBMIDg2NS40NzY1NjIgNy4xOTkyMTkgTCA4NC4yNzczNDQgNy4xOTkyMTkgWiBNIDg0LjI3NzM0NCA3MjcuOTIxODc1IiBmaWxsLW9wYWNpdHk9IjEiIGZpbGw9InJnYigxMDAlLCAxMDAlLCAxMDAlKSIgZmlsbC1ydWxlPSJub256ZXJvIi8+JiN4YTsgIDxwYXRoIGlkPSJwYXRoMzc5IiB0cmFuc2Zvcm09Im1hdHJpeCgxLCAwLCAwLCAtMSwgMCwgNzg5LjY2Njg3NSkiIGQ9Ik0gODI5Ljk2ODc1IDMyMi43NjA2MjUgQyA4MzIuNjIxMDk0IDMyMi43NjA2MjUgODM1LjE2NDA2MiAzMjMuODE1MzEzIDgzNy4wMzkwNjIgMzI1LjY5MDMxMyBDIDgzOC45MTQwNjIgMzI3LjU2NTMxMyA4MzkuOTY4NzUgMzMwLjEwODI4MSA4MzkuOTY4NzUgMzMyLjc2MDYyNSBDIDgzOS45Njg3NSAzMzUuNDEyOTY5IDgzOC45MTQwNjIgMzM3Ljk1NTkzOCA4MzcuMDM5MDYyIDMzOS44MzA5MzggQyA4MzUuMTY0MDYyIDM0MS43MDU5MzggODMyLjYyMTA5NCAzNDIuNzYwNjI1IDgyOS45Njg3NSAzNDIuNzYwNjI1IEMgODI3LjMxNjQwNiAzNDIuNzYwNjI1IDgyNC43NzM0MzggMzQxLjcwNTkzOCA4MjIuODk4NDM4IDMzOS44MzA5MzggQyA4MjEuMDIzNDM4IDMzNy45NTU5MzggODE5Ljk2ODc1IDMzNS40MTI5NjkgODE5Ljk2ODc1IDMzMi43NjA2MjUgQyA4MTkuOTY4NzUgMzMwLjEwODI4MSA4MjEuMDIzNDM4IDMyNy41NjUzMTMgODIyLjg5ODQzOCAzMjUuNjkwMzEzIEMgODI0Ljc3MzQzOCAzMjMuODE1MzEzIDgyNy4zMTY0MDYgMzIyLjc2MDYyNSA4MjkuOTY4NzUgMzIyLjc2MDYyNSBaIE0gODI5Ljk2ODc1IDMyMi43NjA2MjUiIHN0cm9rZS1taXRlcmxpbWl0PSIxMCIgc3Ryb2tlLW9wYWNpdHk9IjEiIHN0cm9rZT0icmdiKDk5LjYwNjMyMyUsIDc0LjkwMDgxOCUsIDM1LjI5MzU3OSUpIiBzdHJva2UtbGluZWpvaW49InJvdW5kIiBzdHJva2UtbGluZWNhcD0iYnV0dCIgc3Ryb2tlLXdpZHRoPSIxIiBmaWxsLW9wYWNpdHk9IjEiIGZpbGw9InJnYig5OS42MDYzMjMlLCA3NC45MDA4MTglLCAzNS4yOTM1NzklKSIgZmlsbC1ydWxlPSJub256ZXJvIi8+JiN4YTsgIDxwYXRoIGlkPSJwYXRoMzgxIiB0cmFuc2Zvcm09Im1hdHJpeCgxLCAwLCAwLCAtMSwgMCwgNzg5LjY2Njg3NSkiIGQ9Ik0gNTg5LjYwMTU2MiAzODIuMzIzMTI1IEMgNTkyLjI1IDM4Mi4zMjMxMjUgNTk0Ljc5Njg3NSAzODMuMzc3ODEzIDU5Ni42NzE4NzUgMzg1LjI1MjgxMyBDIDU5OC41NDY4NzUgMzg3LjEyNzgxMyA1OTkuNjAxNTYyIDM4OS42NzQ2ODggNTk5LjYwMTU2MiAzOTIuMzIzMTI1IEMgNTk5LjYwMTU2MiAzOTQuOTc1NDY5IDU5OC41NDY4NzUgMzk3LjUyMjM0NCA1OTYuNjcxODc1IDM5OS4zOTczNDQgQyA1OTQuNzk2ODc1IDQwMS4yNzIzNDQgNTkyLjI1IDQwMi4zMjMxMjUgNTg5LjYwMTU2MiA0MDIuMzIzMTI1IEMgNTg2Ljk0OTIxOSA0MDIuMzIzMTI1IDU4NC40MDIzNDQgNDAxLjI3MjM0NCA1ODIuNTI3MzQ0IDM5OS4zOTczNDQgQyA1ODAuNjUyMzQ0IDM5Ny41MjIzNDQgNTc5LjYwMTU2MiAzOTQuOTc1NDY5IDU3OS42MDE1NjIgMzkyLjMyMzEyNSBDIDU3OS42MDE1NjIgMzg5LjY3NDY4OCA1ODAuNjUyMzQ0IDM4Ny4xMjc4MTMgNTgyLjUyNzM0NCAzODUuMjUyODEzIEMgNTg0LjQwMjM0NCAzODMuMzc3ODEzIDU4Ni45NDkyMTkgMzgyLjMyMzEyNSA1ODkuNjAxNTYyIDM4Mi4zMjMxMjUgWiBNIDU4OS42MDE1NjIgMzgyLjMyMzEyNSIgc3Ryb2tlLW1pdGVybGltaXQ9IjEwIiBzdHJva2Utb3BhY2l0eT0iMSIgc3Ryb2tlPSJyZ2IoOTUuNTU1MTE1JSwgMjMuNzg5OTc4JSwgMTQuNjM5MjgyJSkiIHN0cm9rZS1saW5lam9pbj0icm91bmQiIHN0cm9rZS1saW5lY2FwPSJidXR0IiBzdHJva2Utd2lkdGg9IjEiIGZpbGwtb3BhY2l0eT0iMSIgZmlsbD0icmdiKDk1LjU1NTExNSUsIDIzLjc4OTk3OCUsIDE0LjYzOTI4MiUpIiBmaWxsLXJ1bGU9Im5vbnplcm8iLz4mI3hhOyAgPHBhdGggaWQ9InBhdGgzODMiIHRyYW5zZm9ybT0ibWF0cml4KDEsIDAsIDAsIC0xLCAwLCA3ODkuNjY2ODc1KSIgZD0iTSA0NjMuOTUzMTI1IDM4Mi4zMjMxMjUgQyA0NjYuNjA1NDY5IDM4Mi4zMjMxMjUgNDY5LjE0ODQzOCAzODMuMzc3ODEzIDQ3MS4wMjM0MzggMzg1LjI1MjgxMyBDIDQ3Mi44OTg0MzggMzg3LjEyNzgxMyA0NzMuOTUzMTI1IDM4OS42NzQ2ODggNDczLjk1MzEyNSAzOTIuMzIzMTI1IEMgNDczLjk1MzEyNSAzOTQuOTc1NDY5IDQ3Mi44OTg0MzggMzk3LjUyMjM0NCA0NzEuMDIzNDM4IDM5OS4zOTczNDQgQyA0NjkuMTQ4NDM4IDQwMS4yNzIzNDQgNDY2LjYwNTQ2OSA0MDIuMzIzMTI1IDQ2My45NTMxMjUgNDAyLjMyMzEyNSBDIDQ2MS4zMDA3ODEgNDAyLjMyMzEyNSA0NTguNzU3ODEyIDQwMS4yNzIzNDQgNDU2Ljg4MjgxMiAzOTkuMzk3MzQ0IEMgNDU1LjAwNzgxMiAzOTcuNTIyMzQ0IDQ1My45NTMxMjUgMzk0Ljk3NTQ2OSA0NTMuOTUzMTI1IDM5Mi4zMjMxMjUgQyA0NTMuOTUzMTI1IDM4OS42NzQ2ODggNDU1LjAwNzgxMiAzODcuMTI3ODEzIDQ1Ni44ODI4MTIgMzg1LjI1MjgxMyBDIDQ1OC43NTc4MTIgMzgzLjM3NzgxMyA0NjEuMzAwNzgxIDM4Mi4zMjMxMjUgNDYzLjk1MzEyNSAzODIuMzIzMTI1IFogTSA0NjMuOTUzMTI1IDM4Mi4zMjMxMjUiIHN0cm9rZS1taXRlcmxpbWl0PSIxMCIgc3Ryb2tlLW9wYWNpdHk9IjEiIHN0cm9rZT0icmdiKDUwLjE5NTMxMiUsIDAlLCAxNC45MDE3MzMlKSIgc3Ryb2tlLWxpbmVqb2luPSJyb3VuZCIgc3Ryb2tlLWxpbmVjYXA9ImJ1dHQiIHN0cm9rZS13aWR0aD0iMSIgZmlsbC1vcGFjaXR5PSIxIiBmaWxsPSJyZ2IoNTAuMTk1MzEyJSwgMCUsIDE0LjkwMTczMyUpIiBmaWxsLXJ1bGU9Im5vbnplcm8iLz4mI3hhOyAgPHBhdGggaWQ9InBhdGgzODUiIHRyYW5zZm9ybT0ibWF0cml4KDEsIDAsIDAsIC0xLCAwLCA3ODkuNjY2ODc1KSIgZD0iTSA2ODUuMjAzMTI1IDY0MC41ODA5MzggTCA2NzUuMjAzMTI1IDYyMC41ODA5MzggTCA2OTUuMjAzMTI1IDYyMC41ODA5MzggWiBNIDY4NS4yMDMxMjUgNjQwLjU4MDkzOCIgc3Ryb2tlLW1pdGVybGltaXQ9IjEwIiBzdHJva2Utb3BhY2l0eT0iMSIgc3Ryb2tlPSJyZ2IoOTkuNjA2MzIzJSwgNzQuOTAwODE4JSwgMzUuMjkzNTc5JSkiIHN0cm9rZS1saW5lam9pbj0icm91bmQiIHN0cm9rZS1saW5lY2FwPSJidXR0IiBzdHJva2Utd2lkdGg9IjEiIGZpbGwtb3BhY2l0eT0iMSIgZmlsbD0icmdiKDk5LjYwNjMyMyUsIDc0LjkwMDgxOCUsIDM1LjI5MzU3OSUpIiBmaWxsLXJ1bGU9Im5vbnplcm8iLz4mI3hhOyAgPHBhdGggaWQ9InBhdGgzODciIHRyYW5zZm9ybT0ibWF0cml4KDEsIDAsIDAsIC0xLCAwLCA3ODkuNjY2ODc1KSIgZD0iTSA0MjAuMjUgNzU5LjcwNTkzOCBMIDQxMC4yNSA3MzkuNzA1OTM4IEwgNDMwLjI1IDczOS43MDU5MzggWiBNIDQyMC4yNSA3NTkuNzA1OTM4IiBzdHJva2UtbWl0ZXJsaW1pdD0iMTAiIHN0cm9rZS1vcGFjaXR5PSIxIiBzdHJva2U9InJnYig5NS41NTUxMTUlLCAyMy43ODk5NzglLCAxNC42MzkyODIlKSIgc3Ryb2tlLWxpbmVqb2luPSJyb3VuZCIgc3Ryb2tlLWxpbmVjYXA9ImJ1dHQiIHN0cm9rZS13aWR0aD0iMSIgZmlsbC1vcGFjaXR5PSIxIiBmaWxsPSJyZ2IoOTUuNTU1MTE1JSwgMjMuNzg5OTc4JSwgMTQuNjM5MjgyJSkiIGZpbGwtcnVsZT0ibm9uemVybyIvPiYjeGE7ICA8cGF0aCBpZD0icGF0aDM4OSIgdHJhbnNmb3JtPSJtYXRyaXgoMSwgMCwgMCwgLTEsIDAsIDc4OS42NjY4NzUpIiBkPSJNIDI0OC4xNjc5NjkgNzU5LjcwNTkzOCBMIDIzOC4xNjc5NjkgNzM5LjcwNTkzOCBMIDI1OC4xNjc5NjkgNzM5LjcwNTkzOCBaIE0gMjQ4LjE2Nzk2OSA3NTkuNzA1OTM4IiBzdHJva2UtbWl0ZXJsaW1pdD0iMTAiIHN0cm9rZS1vcGFjaXR5PSIxIiBzdHJva2U9InJnYig1MC4xOTUzMTIlLCAwJSwgMTQuOTAxNzMzJSkiIHN0cm9rZS1saW5lam9pbj0icm91bmQiIHN0cm9rZS1saW5lY2FwPSJidXR0IiBzdHJva2Utd2lkdGg9IjEiIGZpbGwtb3BhY2l0eT0iMSIgZmlsbD0icmdiKDUwLjE5NTMxMiUsIDAlLCAxNC45MDE3MzMlKSIgZmlsbC1ydWxlPSJub256ZXJvIi8+JiN4YTsgIDxwYXRoIGlkPSJwYXRoMzkxIiB0cmFuc2Zvcm09Im1hdHJpeCgxLCAwLCAwLCAtMSwgMCwgNzg5LjY2Njg3NSkiIGQ9Ik0gMzI1LjU3NDIxOSA4NC41MDY3MTkgTCAzNDUuNTc0MjE5IDg0LjUwNjcxOSBMIDM0NS41NzQyMTkgMTA0LjUwNjcxOSBMIDMyNS41NzQyMTkgMTA0LjUwNjcxOSBaIE0gMzI1LjU3NDIxOSA4NC41MDY3MTkiIHN0cm9rZS1taXRlcmxpbWl0PSIxMCIgc3Ryb2tlLW9wYWNpdHk9IjEiIHN0cm9rZT0icmdiKDk1LjU1NTExNSUsIDIzLjc4OTk3OCUsIDE0LjYzOTI4MiUpIiBzdHJva2UtbGluZWpvaW49InJvdW5kIiBzdHJva2UtbGluZWNhcD0iYnV0dCIgc3Ryb2tlLXdpZHRoPSIxIiBmaWxsLW9wYWNpdHk9IjEiIGZpbGw9InJnYig5NS41NTUxMTUlLCAyMy43ODk5NzglLCAxNC42MzkyODIlKSIgZmlsbC1ydWxlPSJub256ZXJvIi8+JiN4YTsgIDxwYXRoIGlkPSJwYXRoMzkzIiB0cmFuc2Zvcm09Im1hdHJpeCgxLCAwLCAwLCAtMSwgMCwgNzg5LjY2Njg3NSkiIGQ9Ik0gMTc4LjA3NDIxOSA4NC41MDY3MTkgTCAxOTguMDc0MjE5IDg0LjUwNjcxOSBMIDE5OC4wNzQyMTkgMTA0LjUwNjcxOSBMIDE3OC4wNzQyMTkgMTA0LjUwNjcxOSBaIE0gMTc4LjA3NDIxOSA4NC41MDY3MTkiIHN0cm9rZS1taXRlcmxpbWl0PSIxMCIgc3Ryb2tlLW9wYWNpdHk9IjEiIHN0cm9rZT0icmdiKDUwLjE5NTMxMiUsIDAlLCAxNC45MDE3MzMlKSIgc3Ryb2tlLWxpbmVqb2luPSJyb3VuZCIgc3Ryb2tlLWxpbmVjYXA9ImJ1dHQiIHN0cm9rZS13aWR0aD0iMSIgZmlsbC1vcGFjaXR5PSIxIiBmaWxsPSJyZ2IoNTAuMTk1MzEyJSwgMCUsIDE0LjkwMTczMyUpIiBmaWxsLXJ1bGU9Im5vbnplcm8iLz4mI3hhOyAgPHBhdGggaWQ9InBhdGgzOTUiIHRyYW5zZm9ybT0ibWF0cml4KDEsIDAsIDAsIC0xLCAwLCA3ODkuNjY2ODc1KSIgZD0iTSAyOTQuNjAxNTYyIDI4My4xOTgxMjUgTCAyODUuMDg5ODQ0IDI3Ni4yODc5NjkgTCAyODguNzIyNjU2IDI2NS4xMDgyODEgTCAzMDAuNDgwNDY5IDI2NS4xMDgyODEgTCAzMDQuMTEzMjgxIDI3Ni4yODc5NjkgWiBNIDI5NC42MDE1NjIgMjgzLjE5ODEyNSIgc3Ryb2tlLW1pdGVybGltaXQ9IjEwIiBzdHJva2Utb3BhY2l0eT0iMSIgc3Ryb2tlPSJyZ2IoOTUuNTU1MTE1JSwgMjMuNzg5OTc4JSwgMTQuNjM5MjgyJSkiIHN0cm9rZS1saW5lam9pbj0icm91bmQiIHN0cm9rZS1saW5lY2FwPSJidXR0IiBzdHJva2Utd2lkdGg9IjEiIGZpbGwtb3BhY2l0eT0iMSIgZmlsbD0icmdiKDk1LjU1NTExNSUsIDIzLjc4OTk3OCUsIDE0LjYzOTI4MiUpIiBmaWxsLXJ1bGU9Im5vbnplcm8iLz4mI3hhOyAgPHBhdGggaWQ9InBhdGgzOTciIHRyYW5zZm9ybT0ibWF0cml4KDEsIDAsIDAsIC0xLCAwLCA3ODkuNjY2ODc1KSIgZD0iTSAxMTkuNzg5MDYyIDI4My4xOTgxMjUgTCAxMTAuMjc3MzQ0IDI3Ni4yODc5NjkgTCAxMTMuOTEwMTU2IDI2NS4xMDgyODEgTCAxMjUuNjY0MDYyIDI2NS4xMDgyODEgTCAxMjkuMjk2ODc1IDI3Ni4yODc5NjkgWiBNIDExOS43ODkwNjIgMjgzLjE5ODEyNSIgc3Ryb2tlLW1pdGVybGltaXQ9IjEwIiBzdHJva2Utb3BhY2l0eT0iMSIgc3Ryb2tlPSJyZ2IoNTAuMTk1MzEyJSwgMCUsIDE0LjkwMTczMyUpIiBzdHJva2UtbGluZWpvaW49InJvdW5kIiBzdHJva2UtbGluZWNhcD0iYnV0dCIgc3Ryb2tlLXdpZHRoPSIxIiBmaWxsLW9wYWNpdHk9IjEiIGZpbGw9InJnYig1MC4xOTUzMTIlLCAwJSwgMTQuOTAxNzMzJSkiIGZpbGwtcnVsZT0ibm9uemVybyIvPiYjeGE7ICA8ZyBpZD0iZzQwMSIgY2xpcC1wYXRoPSJ1cmwoI2NsaXAtMCkiPiYjeGE7ICAgIDxwYXRoIGlkPSJwYXRoMzk5IiB0cmFuc2Zvcm09Im1hdHJpeCgxLCAwLCAwLCAtMSwgMCwgNzg5LjY2Njg3NSkiIGQ9Ik0gMTMzLjQ0NTMxMiA2MS43NDUgTCAxMzMuNDQ1MzEyIDc4Mi40Njc2NTYiIHN0cm9rZS1taXRlcmxpbWl0PSIxMCIgc3Ryb2tlLWRhc2hhcnJheT0iMi45NiAxLjI4IiBzdHJva2Utb3BhY2l0eT0iMC43IiBzdHJva2U9InJnYig2OS4wMTg1NTUlLCA2OS4wMTg1NTUlLCA2OS4wMTg1NTUlKSIgc3Ryb2tlLWxpbmVqb2luPSJyb3VuZCIgc3Ryb2tlLWxpbmVjYXA9ImJ1dHQiIHN0cm9rZS13aWR0aD0iMC44IiBmaWxsPSJub25lIi8+JiN4YTsgIDwvZz4mI3hhOyAgPHBhdGggaWQ9InBhdGg0MDMiIHRyYW5zZm9ybT0ibWF0cml4KDEsIDAsIDAsIC0xLCAwLCA3ODkuNjY2ODc1KSIgZD0iTSAxMzMuNDQ1MzEyIDYxLjc0NSBMIDEzMy40NDUzMTIgNTguMjQ1IiBzdHJva2UtbWl0ZXJsaW1pdD0iMTAiIHN0cm9rZS1vcGFjaXR5PSIxIiBzdHJva2U9InJnYigwJSwgMCUsIDAlKSIgc3Ryb2tlLWxpbmVqb2luPSJyb3VuZCIgc3Ryb2tlLWxpbmVjYXA9ImJ1dHQiIHN0cm9rZS13aWR0aD0iMC44IiBmaWxsPSJub25lIi8+JiN4YTsgIDxnIGlkPSJnNDExIiBmaWxsLW9wYWNpdHk9IjEiIGZpbGw9InJnYigwJSwgMCUsIDAlKSI+JiN4YTsgICAgPHVzZSBpZD0idXNlNDA1IiB5PSI3NDkuMzU3NSIgeD0iMTE1LjMwMzkzNCIgeGxpbms6aHJlZj0iI2dseXBoLTAtMCIvPiYjeGE7ICAgIDx1c2UgaWQ9InVzZTQwNyIgeT0iNzQ5LjM1NzUiIHg9IjEyNy4zODc5MzQiIHhsaW5rOmhyZWY9IiNnbHlwaC0wLTEiLz4mI3hhOyAgICA8dXNlIGlkPSJ1c2U0MDkiIHk9Ijc0OS4zNTc1IiB4PSIxMzkuNDcxOTM0IiB4bGluazpocmVmPSIjZ2x5cGgtMC0xIi8+JiN4YTsgIDwvZz4mI3hhOyAgPGcgaWQ9Imc0MTUiIGNsaXAtcGF0aD0idXJsKCNjbGlwLTEpIj4mI3hhOyAgICA8cGF0aCBpZD0icGF0aDQxMyIgdHJhbnNmb3JtPSJtYXRyaXgoMSwgMCwgMCwgLTEsIDAsIDc4OS42NjY4NzUpIiBkPSJNIDI3MC4wMTk1MzEgNjEuNzQ1IEwgMjcwLjAxOTUzMSA3ODIuNDY3NjU2IiBzdHJva2UtbWl0ZXJsaW1pdD0iMTAiIHN0cm9rZS1kYXNoYXJyYXk9IjIuOTYgMS4yOCIgc3Ryb2tlLW9wYWNpdHk9IjAuNyIgc3Ryb2tlPSJyZ2IoNjkuMDE4NTU1JSwgNjkuMDE4NTU1JSwgNjkuMDE4NTU1JSkiIHN0cm9rZS1saW5lam9pbj0icm91bmQiIHN0cm9rZS1saW5lY2FwPSJidXR0IiBzdHJva2Utd2lkdGg9IjAuOCIgZmlsbD0ibm9uZSIvPiYjeGE7ICA8L2c+JiN4YTsgIDxwYXRoIGlkPSJwYXRoNDE3IiB0cmFuc2Zvcm09Im1hdHJpeCgxLCAwLCAwLCAtMSwgMCwgNzg5LjY2Njg3NSkiIGQ9Ik0gMjcwLjAxOTUzMSA2MS43NDUgTCAyNzAuMDE5NTMxIDU4LjI0NSIgc3Ryb2tlLW1pdGVybGltaXQ9IjEwIiBzdHJva2Utb3BhY2l0eT0iMSIgc3Ryb2tlPSJyZ2IoMCUsIDAlLCAwJSkiIHN0cm9rZS1saW5lam9pbj0icm91bmQiIHN0cm9rZS1saW5lY2FwPSJidXR0IiBzdHJva2Utd2lkdGg9IjAuOCIgZmlsbD0ibm9uZSIvPiYjeGE7ICA8ZyBpZD0iZzQyNSIgZmlsbC1vcGFjaXR5PSIxIiBmaWxsPSJyZ2IoMCUsIDAlLCAwJSkiPiYjeGE7ICAgIDx1c2UgaWQ9InVzZTQxOSIgeT0iNzQ5LjM1NzUiIHg9IjI1MS44NzczNiIgeGxpbms6aHJlZj0iI2dseXBoLTAtMCIvPiYjeGE7ICAgIDx1c2UgaWQ9InVzZTQyMSIgeT0iNzQ5LjM1NzUiIHg9IjI2My45NjEzNiIgeGxpbms6aHJlZj0iI2dseXBoLTAtMiIvPiYjeGE7ICAgIDx1c2UgaWQ9InVzZTQyMyIgeT0iNzQ5LjM1NzUiIHg9IjI3Ni4wNDUzNiIgeGxpbms6aHJlZj0iI2dseXBoLTAtMSIvPiYjeGE7ICA8L2c+JiN4YTsgIDxnIGlkPSJnNDI5IiBjbGlwLXBhdGg9InVybCgjY2xpcC0yKSI+JiN4YTsgICAgPHBhdGggaWQ9InBhdGg0MjciIHRyYW5zZm9ybT0ibWF0cml4KDEsIDAsIDAsIC0xLCAwLCA3ODkuNjY2ODc1KSIgZD0iTSA0MDYuNTg5ODQ0IDYxLjc0NSBMIDQwNi41ODk4NDQgNzgyLjQ2NzY1NiIgc3Ryb2tlLW1pdGVybGltaXQ9IjEwIiBzdHJva2UtZGFzaGFycmF5PSIyLjk2IDEuMjgiIHN0cm9rZS1vcGFjaXR5PSIwLjciIHN0cm9rZT0icmdiKDY5LjAxODU1NSUsIDY5LjAxODU1NSUsIDY5LjAxODU1NSUpIiBzdHJva2UtbGluZWpvaW49InJvdW5kIiBzdHJva2UtbGluZWNhcD0iYnV0dCIgc3Ryb2tlLXdpZHRoPSIwLjgiIGZpbGw9Im5vbmUiLz4mI3hhOyAgPC9nPiYjeGE7ICA8cGF0aCBpZD0icGF0aDQzMSIgdHJhbnNmb3JtPSJtYXRyaXgoMSwgMCwgMCwgLTEsIDAsIDc4OS42NjY4NzUpIiBkPSJNIDQwNi41ODk4NDQgNjEuNzQ1IEwgNDA2LjU4OTg0NCA1OC4yNDUiIHN0cm9rZS1taXRlcmxpbWl0PSIxMCIgc3Ryb2tlLW9wYWNpdHk9IjEiIHN0cm9rZT0icmdiKDAlLCAwJSwgMCUpIiBzdHJva2UtbGluZWpvaW49InJvdW5kIiBzdHJva2UtbGluZWNhcD0iYnV0dCIgc3Ryb2tlLXdpZHRoPSIwLjgiIGZpbGw9Im5vbmUiLz4mI3hhOyAgPGcgaWQ9Imc0MzkiIGZpbGwtb3BhY2l0eT0iMSIgZmlsbD0icmdiKDAlLCAwJSwgMCUpIj4mI3hhOyAgICA8dXNlIGlkPSJ1c2U0MzMiIHk9Ijc0OS4zNTc1IiB4PSIzODguNDUwNzg3IiB4bGluazpocmVmPSIjZ2x5cGgtMC0zIi8+JiN4YTsgICAgPHVzZSBpZD0idXNlNDM1IiB5PSI3NDkuMzU3NSIgeD0iNDAwLjUzNDc4NyIgeGxpbms6aHJlZj0iI2dseXBoLTAtMSIvPiYjeGE7ICAgIDx1c2UgaWQ9InVzZTQzNyIgeT0iNzQ5LjM1NzUiIHg9IjQxMi42MTg3ODciIHhsaW5rOmhyZWY9IiNnbHlwaC0wLTEiLz4mI3hhOyAgPC9nPiYjeGE7ICA8ZyBpZD0iZzQ0MyIgY2xpcC1wYXRoPSJ1cmwoI2NsaXAtMykiPiYjeGE7ICAgIDxwYXRoIGlkPSJwYXRoNDQxIiB0cmFuc2Zvcm09Im1hdHJpeCgxLCAwLCAwLCAtMSwgMCwgNzg5LjY2Njg3NSkiIGQ9Ik0gNTQzLjE2NDA2MiA2MS43NDUgTCA1NDMuMTY0MDYyIDc4Mi40Njc2NTYiIHN0cm9rZS1taXRlcmxpbWl0PSIxMCIgc3Ryb2tlLWRhc2hhcnJheT0iMi45NiAxLjI4IiBzdHJva2Utb3BhY2l0eT0iMC43IiBzdHJva2U9InJnYig2OS4wMTg1NTUlLCA2OS4wMTg1NTUlLCA2OS4wMTg1NTUlKSIgc3Ryb2tlLWxpbmVqb2luPSJyb3VuZCIgc3Ryb2tlLWxpbmVjYXA9ImJ1dHQiIHN0cm9rZS13aWR0aD0iMC44IiBmaWxsPSJub25lIi8+JiN4YTsgIDwvZz4mI3hhOyAgPHBhdGggaWQ9InBhdGg0NDUiIHRyYW5zZm9ybT0ibWF0cml4KDEsIDAsIDAsIC0xLCAwLCA3ODkuNjY2ODc1KSIgZD0iTSA1NDMuMTY0MDYyIDYxLjc0NSBMIDU0My4xNjQwNjIgNTguMjQ1IiBzdHJva2UtbWl0ZXJsaW1pdD0iMTAiIHN0cm9rZS1vcGFjaXR5PSIxIiBzdHJva2U9InJnYigwJSwgMCUsIDAlKSIgc3Ryb2tlLWxpbmVqb2luPSJyb3VuZCIgc3Ryb2tlLWxpbmVjYXA9ImJ1dHQiIHN0cm9rZS13aWR0aD0iMC44IiBmaWxsPSJub25lIi8+JiN4YTsgIDxnIGlkPSJnNDUzIiBmaWxsLW9wYWNpdHk9IjEiIGZpbGw9InJnYigwJSwgMCUsIDAlKSI+JiN4YTsgICAgPHVzZSBpZD0idXNlNDQ3IiB5PSI3NDkuMzU3NSIgeD0iNTI1LjAyNDIxMyIgeGxpbms6aHJlZj0iI2dseXBoLTAtMyIvPiYjeGE7ICAgIDx1c2UgaWQ9InVzZTQ0OSIgeT0iNzQ5LjM1NzUiIHg9IjUzNy4xMDgyMTMiIHhsaW5rOmhyZWY9IiNnbHlwaC0wLTIiLz4mI3hhOyAgICA8dXNlIGlkPSJ1c2U0NTEiIHk9Ijc0OS4zNTc1IiB4PSI1NDkuMTkyMjEzIiB4bGluazpocmVmPSIjZ2x5cGgtMC0xIi8+JiN4YTsgIDwvZz4mI3hhOyAgPGcgaWQ9Imc0NTciIGNsaXAtcGF0aD0idXJsKCNjbGlwLTQpIj4mI3hhOyAgICA8cGF0aCBpZD0icGF0aDQ1NSIgdHJhbnNmb3JtPSJtYXRyaXgoMSwgMCwgMCwgLTEsIDAsIDc4OS42NjY4NzUpIiBkPSJNIDY3OS43MzgyODEgNjEuNzQ1IEwgNjc5LjczODI4MSA3ODIuNDY3NjU2IiBzdHJva2UtbWl0ZXJsaW1pdD0iMTAiIHN0cm9rZS1kYXNoYXJyYXk9IjIuOTYgMS4yOCIgc3Ryb2tlLW9wYWNpdHk9IjAuNyIgc3Ryb2tlPSJyZ2IoNjkuMDE4NTU1JSwgNjkuMDE4NTU1JSwgNjkuMDE4NTU1JSkiIHN0cm9rZS1saW5lam9pbj0icm91bmQiIHN0cm9rZS1saW5lY2FwPSJidXR0IiBzdHJva2Utd2lkdGg9IjAuOCIgZmlsbD0ibm9uZSIvPiYjeGE7ICA8L2c+JiN4YTsgIDxwYXRoIGlkPSJwYXRoNDU5IiB0cmFuc2Zvcm09Im1hdHJpeCgxLCAwLCAwLCAtMSwgMCwgNzg5LjY2Njg3NSkiIGQ9Ik0gNjc5LjczODI4MSA2MS43NDUgTCA2NzkuNzM4MjgxIDU4LjI0NSIgc3Ryb2tlLW1pdGVybGltaXQ9IjEwIiBzdHJva2Utb3BhY2l0eT0iMSIgc3Ryb2tlPSJyZ2IoMCUsIDAlLCAwJSkiIHN0cm9rZS1saW5lam9pbj0icm91bmQiIHN0cm9rZS1saW5lY2FwPSJidXR0IiBzdHJva2Utd2lkdGg9IjAuOCIgZmlsbD0ibm9uZSIvPiYjeGE7ICA8ZyBpZD0iZzQ2NyIgZmlsbC1vcGFjaXR5PSIxIiBmaWxsPSJyZ2IoMCUsIDAlLCAwJSkiPiYjeGE7ICAgIDx1c2UgaWQ9InVzZTQ2MSIgeT0iNzQ5LjM1NzUiIHg9IjY2MS41OTc2NCIgeGxpbms6aHJlZj0iI2dseXBoLTAtNCIvPiYjeGE7ICAgIDx1c2UgaWQ9InVzZTQ2MyIgeT0iNzQ5LjM1NzUiIHg9IjY3My42ODE2NCIgeGxpbms6aHJlZj0iI2dseXBoLTAtMSIvPiYjeGE7ICAgIDx1c2UgaWQ9InVzZTQ2NSIgeT0iNzQ5LjM1NzUiIHg9IjY4NS43NjU2NCIgeGxpbms6aHJlZj0iI2dseXBoLTAtMSIvPiYjeGE7ICA8L2c+JiN4YTsgIDxnIGlkPSJnNDcxIiBjbGlwLXBhdGg9InVybCgjY2xpcC01KSI+JiN4YTsgICAgPHBhdGggaWQ9InBhdGg0NjkiIHRyYW5zZm9ybT0ibWF0cml4KDEsIDAsIDAsIC0xLCAwLCA3ODkuNjY2ODc1KSIgZD0iTSA4MTYuMzEyNSA2MS43NDUgTCA4MTYuMzEyNSA3ODIuNDY3NjU2IiBzdHJva2UtbWl0ZXJsaW1pdD0iMTAiIHN0cm9rZS1kYXNoYXJyYXk9IjIuOTYgMS4yOCIgc3Ryb2tlLW9wYWNpdHk9IjAuNyIgc3Ryb2tlPSJyZ2IoNjkuMDE4NTU1JSwgNjkuMDE4NTU1JSwgNjkuMDE4NTU1JSkiIHN0cm9rZS1saW5lam9pbj0icm91bmQiIHN0cm9rZS1saW5lY2FwPSJidXR0IiBzdHJva2Utd2lkdGg9IjAuOCIgZmlsbD0ibm9uZSIvPiYjeGE7ICA8L2c+JiN4YTsgIDxwYXRoIGlkPSJwYXRoNDczIiB0cmFuc2Zvcm09Im1hdHJpeCgxLCAwLCAwLCAtMSwgMCwgNzg5LjY2Njg3NSkiIGQ9Ik0gODE2LjMxMjUgNjEuNzQ1IEwgODE2LjMxMjUgNTguMjQ1IiBzdHJva2UtbWl0ZXJsaW1pdD0iMTAiIHN0cm9rZS1vcGFjaXR5PSIxIiBzdHJva2U9InJnYigwJSwgMCUsIDAlKSIgc3Ryb2tlLWxpbmVqb2luPSJyb3VuZCIgc3Ryb2tlLWxpbmVjYXA9ImJ1dHQiIHN0cm9rZS13aWR0aD0iMC44IiBmaWxsPSJub25lIi8+JiN4YTsgIDxnIGlkPSJnNDgxIiBmaWxsLW9wYWNpdHk9IjEiIGZpbGw9InJnYigwJSwgMCUsIDAlKSI+JiN4YTsgICAgPHVzZSBpZD0idXNlNDc1IiB5PSI3NDkuMzU3NSIgeD0iNzk4LjE3MTA2NiIgeGxpbms6aHJlZj0iI2dseXBoLTAtNCIvPiYjeGE7ICAgIDx1c2UgaWQ9InVzZTQ3NyIgeT0iNzQ5LjM1NzUiIHg9IjgxMC4yNTUwNjYiIHhsaW5rOmhyZWY9IiNnbHlwaC0wLTIiLz4mI3hhOyAgICA8dXNlIGlkPSJ1c2U0NzkiIHk9Ijc0OS4zNTc1IiB4PSI4MjIuMzM5MDY2IiB4bGluazpocmVmPSIjZ2x5cGgtMC0xIi8+JiN4YTsgIDwvZz4mI3hhOyAgPGcgaWQ9Imc0ODUiIGZpbGwtb3BhY2l0eT0iMSIgZmlsbD0icmdiKDAlLCAwJSwgMCUpIj4mI3hhOyAgICA8dXNlIGlkPSJ1c2U0ODMiIHk9Ijc3Ni4zNTc1IiB4PSI0NDIuNzk0MTQxIiB4bGluazpocmVmPSIjZ2x5cGgtMS0wIi8+JiN4YTsgIDwvZz4mI3hhOyAgPGcgaWQ9Imc0ODkiIGZpbGwtb3BhY2l0eT0iMSIgZmlsbD0icmdiKDAlLCAwJSwgMCUpIj4mI3hhOyAgICA8dXNlIGlkPSJ1c2U0ODciIHk9Ijc3Ni4zNTc1IiB4PSI0NTEuMDU4Nzg5IiB4bGluazpocmVmPSIjZ2x5cGgtMS0xIi8+JiN4YTsgIDwvZz4mI3hhOyAgPGcgaWQ9Imc0OTMiIGZpbGwtb3BhY2l0eT0iMSIgZmlsbD0icmdiKDAlLCAwJSwgMCUpIj4mI3hhOyAgICA8dXNlIGlkPSJ1c2U0OTEiIHk9Ijc3Ni4zNTc1IiB4PSI0NjYuMDEzODY3IiB4bGluazpocmVmPSIjZ2x5cGgtMS0yIi8+JiN4YTsgIDwvZz4mI3hhOyAgPGcgaWQ9Imc0OTciIGZpbGwtb3BhY2l0eT0iMSIgZmlsbD0icmdiKDAlLCAwJSwgMCUpIj4mI3hhOyAgICA8dXNlIGlkPSJ1c2U0OTUiIHk9Ijc3Ni4zNTc1IiB4PSI0ODEuNjkyNTc4IiB4bGluazpocmVmPSIjZ2x5cGgtMS0zIi8+JiN4YTsgIDwvZz4mI3hhOyAgPGcgaWQ9Imc1MDEiIGZpbGwtb3BhY2l0eT0iMSIgZmlsbD0icmdiKDAlLCAwJSwgMCUpIj4mI3hhOyAgICA8dXNlIGlkPSJ1c2U0OTkiIHk9Ijc3Ni4zNTc1IiB4PSI0OTguMTk2NDg0IiB4bGluazpocmVmPSIjZ2x5cGgtMS0wIi8+JiN4YTsgIDwvZz4mI3hhOyAgPHBhdGggaWQ9InBhdGg1MDMiIGQ9Ik0gNDM2LjQ1NzAzMSA3NjcuNjQ4NDM4IEwgNDM2LjQ1NzAzMSA3NjguNzY1NjI1IEwgNDMxLjQ2NDg0NCA3NzMuNzU3ODEyIEwgNDI5Ljk1NzAzMSA3NzIuMjUgTCA0MzIuODk0NTMxIDc2OS4yODUxNTYgTCA0MTcuNDI1NzgxIDc2OS4yODUxNTYgTCA0MTcuNDI1NzgxIDc2Ny4xMjg5MDYgTCA0MzIuODk0NTMxIDc2Ny4xMjg5MDYgTCA0MjkuOTU3MDMxIDc2NC4xNjQwNjIgTCA0MzEuNDY0ODQ0IDc2Mi42NTYyNSBMIDQzNi40NTcwMzEgNzY3LjY0ODQzOCIgZmlsbC1vcGFjaXR5PSIxIiBmaWxsPSJyZ2IoMCUsIDAlLCAwJSkiIGZpbGwtcnVsZT0ibm9uemVybyIvPiYjeGE7ICA8cGF0aCBpZD0icGF0aDUwNSIgZD0iTSA1MzIuMDM5MDYyIDc2Ny42NDg0MzggTCA1MzIuMDM5MDYyIDc2OC43NjU2MjUgTCA1MjcuMDQ2ODc1IDc3My43NTc4MTIgTCA1MjUuNTM5MDYyIDc3Mi4yNSBMIDUyOC40ODA0NjkgNzY5LjI4NTE1NiBMIDUxMy4wMDc4MTIgNzY5LjI4NTE1NiBMIDUxMy4wMDc4MTIgNzY3LjEyODkwNiBMIDUyOC40ODA0NjkgNzY3LjEyODkwNiBMIDUyNS41MzkwNjIgNzY0LjE2NDA2MiBMIDUyNy4wNDY4NzUgNzYyLjY1NjI1IEwgNTMyLjAzOTA2MiA3NjcuNjQ4NDM4IiBmaWxsLW9wYWNpdHk9IjEiIGZpbGw9InJnYigwJSwgMCUsIDAlKSIgZmlsbC1ydWxlPSJub256ZXJvIi8+JiN4YTsgIDxnIGlkPSJnNTA5IiBjbGlwLXBhdGg9InVybCgjY2xpcC02KSI+JiN4YTsgICAgPHBhdGggaWQ9InBhdGg1MDciIHRyYW5zZm9ybT0ibWF0cml4KDEsIDAsIDAsIC0xLCAwLCA3ODkuNjY2ODc1KSIgZD0iTSA4NC4yNzczNDQgNzQ5LjcwNTkzOCBMIDg2NS40NzY1NjIgNzQ5LjcwNTkzOCIgc3Ryb2tlLW1pdGVybGltaXQ9IjEwIiBzdHJva2UtZGFzaGFycmF5PSIyLjk2IDEuMjgiIHN0cm9rZS1vcGFjaXR5PSIwLjciIHN0cm9rZT0icmdiKDY5LjAxODU1NSUsIDY5LjAxODU1NSUsIDY5LjAxODU1NSUpIiBzdHJva2UtbGluZWpvaW49InJvdW5kIiBzdHJva2UtbGluZWNhcD0iYnV0dCIgc3Ryb2tlLXdpZHRoPSIwLjgiIGZpbGw9Im5vbmUiLz4mI3hhOyAgPC9nPiYjeGE7ICA8cGF0aCBpZD0icGF0aDUxMSIgdHJhbnNmb3JtPSJtYXRyaXgoMSwgMCwgMCwgLTEsIDAsIDc4OS42NjY4NzUpIiBkPSJNIDg0LjI3NzM0NCA3NDkuNzA1OTM4IEwgODAuNzc3MzQ0IDc0OS43MDU5MzgiIHN0cm9rZS1taXRlcmxpbWl0PSIxMCIgc3Ryb2tlLW9wYWNpdHk9IjEiIHN0cm9rZT0icmdiKDAlLCAwJSwgMCUpIiBzdHJva2UtbGluZWpvaW49InJvdW5kIiBzdHJva2UtbGluZWNhcD0iYnV0dCIgc3Ryb2tlLXdpZHRoPSIwLjgiIGZpbGw9Im5vbmUiLz4mI3hhOyAgPGcgaWQ9Imc1MjEiIGZpbGwtb3BhY2l0eT0iMSIgZmlsbD0icmdiKDAlLCAwJSwgMCUpIj4mI3hhOyAgICA8dXNlIGlkPSJ1c2U1MTMiIHk9IjQ2Ljc5NTkzNyIgeD0iMzcuMiIgeGxpbms6aHJlZj0iI2dseXBoLTItMCIvPiYjeGE7ICAgIDx1c2UgaWQ9InVzZTUxNSIgeT0iNDYuNzk1OTM3IiB4PSI0OC42NDgiIHhsaW5rOmhyZWY9IiNnbHlwaC0yLTEiLz4mI3hhOyAgICA8dXNlIGlkPSJ1c2U1MTciIHk9IjQ2Ljc5NTkzNyIgeD0iNTQuMzcyIiB4bGluazpocmVmPSIjZ2x5cGgtMi0yIi8+JiN4YTsgICAgPHVzZSBpZD0idXNlNTE5IiB5PSI0Ni43OTU5MzciIHg9IjY1LjgyIiB4bGluazpocmVmPSIjZ2x5cGgtMi0zIi8+JiN4YTsgIDwvZz4mI3hhOyAgPGcgaWQ9Imc1MjUiIGNsaXAtcGF0aD0idXJsKCNjbGlwLTcpIj4mI3hhOyAgICA8cGF0aCBpZD0icGF0aDUyMyIgdHJhbnNmb3JtPSJtYXRyaXgoMSwgMCwgMCwgLTEsIDAsIDc4OS42NjY4NzUpIiBkPSJNIDg0LjI3NzM0NCA2MzAuNTgwOTM4IEwgODY1LjQ3NjU2MiA2MzAuNTgwOTM4IiBzdHJva2UtbWl0ZXJsaW1pdD0iMTAiIHN0cm9rZS1kYXNoYXJyYXk9IjIuOTYgMS4yOCIgc3Ryb2tlLW9wYWNpdHk9IjAuNyIgc3Ryb2tlPSJyZ2IoNjkuMDE4NTU1JSwgNjkuMDE4NTU1JSwgNjkuMDE4NTU1JSkiIHN0cm9rZS1saW5lam9pbj0icm91bmQiIHN0cm9rZS1saW5lY2FwPSJidXR0IiBzdHJva2Utd2lkdGg9IjAuOCIgZmlsbD0ibm9uZSIvPiYjeGE7ICA8L2c+JiN4YTsgIDxwYXRoIGlkPSJwYXRoNTI3IiB0cmFuc2Zvcm09Im1hdHJpeCgxLCAwLCAwLCAtMSwgMCwgNzg5LjY2Njg3NSkiIGQ9Ik0gODQuMjc3MzQ0IDYzMC41ODA5MzggTCA4MC43NzczNDQgNjMwLjU4MDkzOCIgc3Ryb2tlLW1pdGVybGltaXQ9IjEwIiBzdHJva2Utb3BhY2l0eT0iMSIgc3Ryb2tlPSJyZ2IoMCUsIDAlLCAwJSkiIHN0cm9rZS1saW5lam9pbj0icm91bmQiIHN0cm9rZS1saW5lY2FwPSJidXR0IiBzdHJva2Utd2lkdGg9IjAuOCIgZmlsbD0ibm9uZSIvPiYjeGE7ICA8ZyBpZD0iZzUzNyIgZmlsbC1vcGFjaXR5PSIxIiBmaWxsPSJyZ2IoMCUsIDAlLCAwJSkiPiYjeGE7ICAgIDx1c2UgaWQ9InVzZTUyOSIgeT0iMTY1LjkyMzIxIiB4PSIzNy4yIiB4bGluazpocmVmPSIjZ2x5cGgtMi0wIi8+JiN4YTsgICAgPHVzZSBpZD0idXNlNTMxIiB5PSIxNjUuOTIzMjEiIHg9IjQ4LjY0OCIgeGxpbms6aHJlZj0iI2dseXBoLTItMSIvPiYjeGE7ICAgIDx1c2UgaWQ9InVzZTUzMyIgeT0iMTY1LjkyMzIxIiB4PSI1NC4zNzIiIHhsaW5rOmhyZWY9IiNnbHlwaC0yLTQiLz4mI3hhOyAgICA8dXNlIGlkPSJ1c2U1MzUiIHk9IjE2NS45MjMyMSIgeD0iNjUuODIiIHhsaW5rOmhyZWY9IiNnbHlwaC0yLTAiLz4mI3hhOyAgPC9nPiYjeGE7ICA8ZyBpZD0iZzU0MSIgY2xpcC1wYXRoPSJ1cmwoI2NsaXAtOCkiPiYjeGE7ICAgIDxwYXRoIGlkPSJwYXRoNTM5IiB0cmFuc2Zvcm09Im1hdHJpeCgxLCAwLCAwLCAtMSwgMCwgNzg5LjY2Njg3NSkiIGQ9Ik0gODQuMjc3MzQ0IDUxMS40NTIwMzEgTCA4NjUuNDc2NTYyIDUxMS40NTIwMzEiIHN0cm9rZS1taXRlcmxpbWl0PSIxMCIgc3Ryb2tlLWRhc2hhcnJheT0iMi45NiAxLjI4IiBzdHJva2Utb3BhY2l0eT0iMC43IiBzdHJva2U9InJnYig2OS4wMTg1NTUlLCA2OS4wMTg1NTUlLCA2OS4wMTg1NTUlKSIgc3Ryb2tlLWxpbmVqb2luPSJyb3VuZCIgc3Ryb2tlLWxpbmVjYXA9ImJ1dHQiIHN0cm9rZS13aWR0aD0iMC44IiBmaWxsPSJub25lIi8+JiN4YTsgIDwvZz4mI3hhOyAgPHBhdGggaWQ9InBhdGg1NDMiIHRyYW5zZm9ybT0ibWF0cml4KDEsIDAsIDAsIC0xLCAwLCA3ODkuNjY2ODc1KSIgZD0iTSA4NC4yNzczNDQgNTExLjQ1MjAzMSBMIDgwLjc3NzM0NCA1MTEuNDUyMDMxIiBzdHJva2UtbWl0ZXJsaW1pdD0iMTAiIHN0cm9rZS1vcGFjaXR5PSIxIiBzdHJva2U9InJnYigwJSwgMCUsIDAlKSIgc3Ryb2tlLWxpbmVqb2luPSJyb3VuZCIgc3Ryb2tlLWxpbmVjYXA9ImJ1dHQiIHN0cm9rZS13aWR0aD0iMC44IiBmaWxsPSJub25lIi8+JiN4YTsgIDxnIGlkPSJnNTUzIiBmaWxsLW9wYWNpdHk9IjEiIGZpbGw9InJnYigwJSwgMCUsIDAlKSI+JiN4YTsgICAgPHVzZSBpZD0idXNlNTQ1IiB5PSIyODUuMDUwNDgzIiB4PSIzNy4yIiB4bGluazpocmVmPSIjZ2x5cGgtMi0wIi8+JiN4YTsgICAgPHVzZSBpZD0idXNlNTQ3IiB5PSIyODUuMDUwNDgzIiB4PSI0OC42NDgiIHhsaW5rOmhyZWY9IiNnbHlwaC0yLTEiLz4mI3hhOyAgICA8dXNlIGlkPSJ1c2U1NDkiIHk9IjI4NS4wNTA0ODMiIHg9IjU0LjM3MiIgeGxpbms6aHJlZj0iI2dseXBoLTItNCIvPiYjeGE7ICAgIDx1c2UgaWQ9InVzZTU1MSIgeT0iMjg1LjA1MDQ4MyIgeD0iNjUuODIiIHhsaW5rOmhyZWY9IiNnbHlwaC0yLTUiLz4mI3hhOyAgPC9nPiYjeGE7ICA8ZyBpZD0iZzU1NyIgY2xpcC1wYXRoPSJ1cmwoI2NsaXAtOSkiPiYjeGE7ICAgIDxwYXRoIGlkPSJwYXRoNTU1IiB0cmFuc2Zvcm09Im1hdHJpeCgxLCAwLCAwLCAtMSwgMCwgNzg5LjY2Njg3NSkiIGQ9Ik0gODQuMjc3MzQ0IDM5Mi4zMjMxMjUgTCA4NjUuNDc2NTYyIDM5Mi4zMjMxMjUiIHN0cm9rZS1taXRlcmxpbWl0PSIxMCIgc3Ryb2tlLWRhc2hhcnJheT0iMi45NiAxLjI4IiBzdHJva2Utb3BhY2l0eT0iMC43IiBzdHJva2U9InJnYig2OS4wMTg1NTUlLCA2OS4wMTg1NTUlLCA2OS4wMTg1NTUlKSIgc3Ryb2tlLWxpbmVqb2luPSJyb3VuZCIgc3Ryb2tlLWxpbmVjYXA9ImJ1dHQiIHN0cm9rZS13aWR0aD0iMC44IiBmaWxsPSJub25lIi8+JiN4YTsgIDwvZz4mI3hhOyAgPHBhdGggaWQ9InBhdGg1NTkiIHRyYW5zZm9ybT0ibWF0cml4KDEsIDAsIDAsIC0xLCAwLCA3ODkuNjY2ODc1KSIgZD0iTSA4NC4yNzczNDQgMzkyLjMyMzEyNSBMIDgwLjc3NzM0NCAzOTIuMzIzMTI1IiBzdHJva2UtbWl0ZXJsaW1pdD0iMTAiIHN0cm9rZS1vcGFjaXR5PSIxIiBzdHJva2U9InJnYigwJSwgMCUsIDAlKSIgc3Ryb2tlLWxpbmVqb2luPSJyb3VuZCIgc3Ryb2tlLWxpbmVjYXA9ImJ1dHQiIHN0cm9rZS13aWR0aD0iMC44IiBmaWxsPSJub25lIi8+JiN4YTsgIDxnIGlkPSJnNTY5IiBmaWxsLW9wYWNpdHk9IjEiIGZpbGw9InJnYigwJSwgMCUsIDAlKSI+JiN4YTsgICAgPHVzZSBpZD0idXNlNTYxIiB5PSI0MDQuMTc3NzU2IiB4PSIzNy4yIiB4bGluazpocmVmPSIjZ2x5cGgtMi0wIi8+JiN4YTsgICAgPHVzZSBpZD0idXNlNTYzIiB5PSI0MDQuMTc3NzU2IiB4PSI0OC42NDgiIHhsaW5rOmhyZWY9IiNnbHlwaC0yLTEiLz4mI3hhOyAgICA8dXNlIGlkPSJ1c2U1NjUiIHk9IjQwNC4xNzc3NTYiIHg9IjU0LjM3MiIgeGxpbms6aHJlZj0iI2dseXBoLTItNCIvPiYjeGE7ICAgIDx1c2UgaWQ9InVzZTU2NyIgeT0iNDA0LjE3Nzc1NiIgeD0iNjUuODIiIHhsaW5rOmhyZWY9IiNnbHlwaC0yLTYiLz4mI3hhOyAgPC9nPiYjeGE7ICA8ZyBpZD0iZzU3MyIgY2xpcC1wYXRoPSJ1cmwoI2NsaXAtMTApIj4mI3hhOyAgICA8cGF0aCBpZD0icGF0aDU3MSIgdHJhbnNmb3JtPSJtYXRyaXgoMSwgMCwgMCwgLTEsIDAsIDc4OS42NjY4NzUpIiBkPSJNIDg0LjI3NzM0NCAyNzMuMTk4MTI1IEwgODY1LjQ3NjU2MiAyNzMuMTk4MTI1IiBzdHJva2UtbWl0ZXJsaW1pdD0iMTAiIHN0cm9rZS1kYXNoYXJyYXk9IjIuOTYgMS4yOCIgc3Ryb2tlLW9wYWNpdHk9IjAuNyIgc3Ryb2tlPSJyZ2IoNjkuMDE4NTU1JSwgNjkuMDE4NTU1JSwgNjkuMDE4NTU1JSkiIHN0cm9rZS1saW5lam9pbj0icm91bmQiIHN0cm9rZS1saW5lY2FwPSJidXR0IiBzdHJva2Utd2lkdGg9IjAuOCIgZmlsbD0ibm9uZSIvPiYjeGE7ICA8L2c+JiN4YTsgIDxwYXRoIGlkPSJwYXRoNTc1IiB0cmFuc2Zvcm09Im1hdHJpeCgxLCAwLCAwLCAtMSwgMCwgNzg5LjY2Njg3NSkiIGQ9Ik0gODQuMjc3MzQ0IDI3My4xOTgxMjUgTCA4MC43NzczNDQgMjczLjE5ODEyNSIgc3Ryb2tlLW1pdGVybGltaXQ9IjEwIiBzdHJva2Utb3BhY2l0eT0iMSIgc3Ryb2tlPSJyZ2IoMCUsIDAlLCAwJSkiIHN0cm9rZS1saW5lam9pbj0icm91bmQiIHN0cm9rZS1saW5lY2FwPSJidXR0IiBzdHJva2Utd2lkdGg9IjAuOCIgZmlsbD0ibm9uZSIvPiYjeGE7ICA8ZyBpZD0iZzU4NSIgZmlsbC1vcGFjaXR5PSIxIiBmaWxsPSJyZ2IoMCUsIDAlLCAwJSkiPiYjeGE7ICAgIDx1c2UgaWQ9InVzZTU3NyIgeT0iNTIzLjMwNTAyOCIgeD0iMzcuMiIgeGxpbms6aHJlZj0iI2dseXBoLTItMCIvPiYjeGE7ICAgIDx1c2UgaWQ9InVzZTU3OSIgeT0iNTIzLjMwNTAyOCIgeD0iNDguNjQ4IiB4bGluazpocmVmPSIjZ2x5cGgtMi0xIi8+JiN4YTsgICAgPHVzZSBpZD0idXNlNTgxIiB5PSI1MjMuMzA1MDI4IiB4PSI1NC4zNzIiIHhsaW5rOmhyZWY9IiNnbHlwaC0yLTQiLz4mI3hhOyAgICA8dXNlIGlkPSJ1c2U1ODMiIHk9IjUyMy4zMDUwMjgiIHg9IjY1LjgyIiB4bGluazpocmVmPSIjZ2x5cGgtMi00Ii8+JiN4YTsgIDwvZz4mI3hhOyAgPGcgaWQ9Imc1ODkiIGNsaXAtcGF0aD0idXJsKCNjbGlwLTExKSI+JiN4YTsgICAgPHBhdGggaWQ9InBhdGg1ODciIHRyYW5zZm9ybT0ibWF0cml4KDEsIDAsIDAsIC0xLCAwLCA3ODkuNjY2ODc1KSIgZD0iTSA4NC4yNzczNDQgMTU0LjA2OTIxOSBMIDg2NS40NzY1NjIgMTU0LjA2OTIxOSIgc3Ryb2tlLW1pdGVybGltaXQ9IjEwIiBzdHJva2UtZGFzaGFycmF5PSIyLjk2IDEuMjgiIHN0cm9rZS1vcGFjaXR5PSIwLjciIHN0cm9rZT0icmdiKDY5LjAxODU1NSUsIDY5LjAxODU1NSUsIDY5LjAxODU1NSUpIiBzdHJva2UtbGluZWpvaW49InJvdW5kIiBzdHJva2UtbGluZWNhcD0iYnV0dCIgc3Ryb2tlLXdpZHRoPSIwLjgiIGZpbGw9Im5vbmUiLz4mI3hhOyAgPC9nPiYjeGE7ICA8cGF0aCBpZD0icGF0aDU5MSIgdHJhbnNmb3JtPSJtYXRyaXgoMSwgMCwgMCwgLTEsIDAsIDc4OS42NjY4NzUpIiBkPSJNIDg0LjI3NzM0NCAxNTQuMDY5MjE5IEwgODAuNzc3MzQ0IDE1NC4wNjkyMTkiIHN0cm9rZS1taXRlcmxpbWl0PSIxMCIgc3Ryb2tlLW9wYWNpdHk9IjEiIHN0cm9rZT0icmdiKDAlLCAwJSwgMCUpIiBzdHJva2UtbGluZWpvaW49InJvdW5kIiBzdHJva2UtbGluZWNhcD0iYnV0dCIgc3Ryb2tlLXdpZHRoPSIwLjgiIGZpbGw9Im5vbmUiLz4mI3hhOyAgPGcgaWQ9Imc2MDEiIGZpbGwtb3BhY2l0eT0iMSIgZmlsbD0icmdiKDAlLCAwJSwgMCUpIj4mI3hhOyAgICA8dXNlIGlkPSJ1c2U1OTMiIHk9IjY0Mi40MzIzMDEiIHg9IjM3LjIiIHhsaW5rOmhyZWY9IiNnbHlwaC0yLTAiLz4mI3hhOyAgICA8dXNlIGlkPSJ1c2U1OTUiIHk9IjY0Mi40MzIzMDEiIHg9IjQ4LjY0OCIgeGxpbms6aHJlZj0iI2dseXBoLTItMSIvPiYjeGE7ICAgIDx1c2UgaWQ9InVzZTU5NyIgeT0iNjQyLjQzMjMwMSIgeD0iNTQuMzcyIiB4bGluazpocmVmPSIjZ2x5cGgtMi00Ii8+JiN4YTsgICAgPHVzZSBpZD0idXNlNTk5IiB5PSI2NDIuNDMyMzAxIiB4PSI2NS44MiIgeGxpbms6aHJlZj0iI2dseXBoLTItMyIvPiYjeGE7ICA8L2c+JiN4YTsgIDxnIGlkPSJnNjA1IiBmaWxsLW9wYWNpdHk9IjEiIGZpbGw9InJnYigwJSwgMCUsIDAlKSI+JiN4YTsgICAgPHVzZSBpZD0idXNlNjAzIiB5PSI0NTMuMTQzOTg0IiB4PSIyNi45NSIgeGxpbms6aHJlZj0iI2dseXBoLTMtMCIvPiYjeGE7ICA8L2c+JiN4YTsgIDxnIGlkPSJnNjA5IiBmaWxsLW9wYWNpdHk9IjEiIGZpbGw9InJnYigwJSwgMCUsIDAlKSI+JiN4YTsgICAgPHVzZSBpZD0idXNlNjA3IiB5PSI0NDQuODc5MzM2IiB4PSIyNi45NSIgeGxpbms6aHJlZj0iI2dseXBoLTMtMSIvPiYjeGE7ICA8L2c+JiN4YTsgIDxnIGlkPSJnNjEzIiBmaWxsLW9wYWNpdHk9IjEiIGZpbGw9InJnYigwJSwgMCUsIDAlKSI+JiN4YTsgICAgPHVzZSBpZD0idXNlNjExIiB5PSI0MjguMzc1NDMiIHg9IjI2Ljk1IiB4bGluazpocmVmPSIjZ2x5cGgtMy0yIi8+JiN4YTsgIDwvZz4mI3hhOyAgPGcgaWQ9Imc2MTciIGZpbGwtb3BhY2l0eT0iMSIgZmlsbD0icmdiKDAlLCAwJSwgMCUpIj4mI3hhOyAgICA8dXNlIGlkPSJ1c2U2MTUiIHk9IjQxMS44NzE1MjMiIHg9IjI2Ljk1IiB4bGluazpocmVmPSIjZ2x5cGgtMy0zIi8+JiN4YTsgIDwvZz4mI3hhOyAgPGcgaWQ9Imc2MjEiIGZpbGwtb3BhY2l0eT0iMSIgZmlsbD0icmdiKDAlLCAwJSwgMCUpIj4mI3hhOyAgICA8dXNlIGlkPSJ1c2U2MTkiIHk9IjM5NS44NzU0MyIgeD0iMjYuOTUiIHhsaW5rOmhyZWY9IiNnbHlwaC0zLTMiLz4mI3hhOyAgPC9nPiYjeGE7ICA8ZyBpZD0iZzYyNSIgZmlsbC1vcGFjaXR5PSIxIiBmaWxsPSJyZ2IoMCUsIDAlLCAwJSkiPiYjeGE7ICAgIDx1c2UgaWQ9InVzZTYyMyIgeT0iMzc5Ljg3OTMzNiIgeD0iMjYuOTUiIHhsaW5rOmhyZWY9IiNnbHlwaC0zLTQiLz4mI3hhOyAgPC9nPiYjeGE7ICA8ZyBpZD0iZzYyOSIgZmlsbC1vcGFjaXR5PSIxIiBmaWxsPSJyZ2IoMCUsIDAlLCAwJSkiPiYjeGE7ICAgIDx1c2UgaWQ9InVzZTYyNyIgeT0iMzYzLjM3NTQzIiB4PSIyNi45NSIgeGxpbms6aHJlZj0iI2dseXBoLTMtMCIvPiYjeGE7ICA8L2c+JiN4YTsgIDxnIGlkPSJnNjMzIiBmaWxsLW9wYWNpdHk9IjEiIGZpbGw9InJnYigwJSwgMCUsIDAlKSI+JiN4YTsgICAgPHVzZSBpZD0idXNlNjMxIiB5PSIzNTUuMTEwNzgxIiB4PSIyNi45NSIgeGxpbms6aHJlZj0iI2dseXBoLTMtNSIvPiYjeGE7ICA8L2c+JiN4YTsgIDxnIGlkPSJnNjM3IiBmaWxsLW9wYWNpdHk9IjEiIGZpbGw9InJnYigwJSwgMCUsIDAlKSI+JiN4YTsgICAgPHVzZSBpZD0idXNlNjM1IiB5PSIzMzguNjgzMDQ3IiB4PSIyNi45NSIgeGxpbms6aHJlZj0iI2dseXBoLTMtNiIvPiYjeGE7ICA8L2c+JiN4YTsgIDxnIGlkPSJnNjQxIiBmaWxsLW9wYWNpdHk9IjEiIGZpbGw9InJnYigwJSwgMCUsIDAlKSI+JiN4YTsgICAgPHVzZSBpZD0idXNlNjM5IiB5PSIzMjcuOTkzNTk0IiB4PSIyNi45NSIgeGxpbms6aHJlZj0iI2dseXBoLTMtNiIvPiYjeGE7ICA8L2c+JiN4YTsgIDxnIGlkPSJnNjQ1IiBmaWxsLW9wYWNpdHk9IjEiIGZpbGw9InJnYigwJSwgMCUsIDAlKSI+JiN4YTsgICAgPHVzZSBpZD0idXNlNjQzIiB5PSIzMTcuMzA0MTQxIiB4PSIyNi45NSIgeGxpbms6aHJlZj0iI2dseXBoLTMtNyIvPiYjeGE7ICA8L2c+JiN4YTsgIDxnIGlkPSJnNjQ5IiBmaWxsLW9wYWNpdHk9IjEiIGZpbGw9InJnYigwJSwgMCUsIDAlKSI+JiN4YTsgICAgPHVzZSBpZD0idXNlNjQ3IiB5PSIzMDEuMzk2OTE0IiB4PSIyNi45NSIgeGxpbms6aHJlZj0iI2dseXBoLTMtNiIvPiYjeGE7ICA8L2c+JiN4YTsgIDxnIGlkPSJnNjUzIiBmaWxsLW9wYWNpdHk9IjEiIGZpbGw9InJnYigwJSwgMCUsIDAlKSI+JiN4YTsgICAgPHVzZSBpZD0idXNlNjUxIiB5PSIyOTAuNzA3NDYxIiB4PSIyNi45NSIgeGxpbms6aHJlZj0iI2dseXBoLTMtMCIvPiYjeGE7ICA8L2c+JiN4YTsgIDxwYXRoIGlkPSJwYXRoNjU1IiBkPSJNIDE5LjM1OTM3NSA0NzguNzE4NzUgTCAxOC4yMzgyODEgNDc4LjcxODc1IEwgMTMuMjQ2MDk0IDQ3My43MzA0NjkgTCAxNC43NTc4MTIgNDcyLjIxODc1IEwgMTcuNzE4NzUgNDc1LjE2MDE1NiBMIDE3LjcxODc1IDQ1OS42ODc1IEwgMTkuODc4OTA2IDQ1OS42ODc1IEwgMTkuODc4OTA2IDQ3NS4xNjAxNTYgTCAyMi44NDM3NSA0NzIuMjE4NzUgTCAyNC4zNTE1NjIgNDczLjczMDQ2OSBMIDE5LjM1OTM3NSA0NzguNzE4NzUiIGZpbGwtb3BhY2l0eT0iMSIgZmlsbD0icmdiKDAlLCAwJSwgMCUpIiBmaWxsLXJ1bGU9Im5vbnplcm8iLz4mI3hhOyAgPHBhdGggaWQ9InBhdGg2NTciIGQ9Ik0gMTkuMzU5Mzc1IDI3Ni4xMDE1NjIgTCAxOC4yMzgyODEgMjc2LjEwMTU2MiBMIDEzLjI0NjA5NCAyNzEuMTEzMjgxIEwgMTQuNzU3ODEyIDI2OS42MDE1NjIgTCAxNy43MTg3NSAyNzIuNTQyOTY5IEwgMTcuNzE4NzUgMjU3LjA3MDMxMiBMIDE5Ljg3ODkwNiAyNTcuMDcwMzEyIEwgMTkuODc4OTA2IDI3Mi41NDI5NjkgTCAyMi44NDM3NSAyNjkuNjAxNTYyIEwgMjQuMzUxNTYyIDI3MS4xMTMyODEgTCAxOS4zNTkzNzUgMjc2LjEwMTU2MiIgZmlsbC1vcGFjaXR5PSIxIiBmaWxsPSJyZ2IoMCUsIDAlLCAwJSkiIGZpbGwtcnVsZT0ibm9uemVybyIvPiYjeGE7ICA8cGF0aCBpZD0icGF0aDY1OSIgdHJhbnNmb3JtPSJtYXRyaXgoMSwgMCwgMCwgLTEsIDAsIDc4OS42NjY4NzUpIiBkPSJNIDg0LjI3NzM0NCA2MS43NDUgTCA4NC4yNzczNDQgNzgyLjQ2NzY1NiIgc3Ryb2tlLW1pdGVybGltaXQ9IjEwIiBzdHJva2Utb3BhY2l0eT0iMSIgc3Ryb2tlPSJyZ2IoMCUsIDAlLCAwJSkiIHN0cm9rZS1saW5lam9pbj0ibWl0ZXIiIHN0cm9rZS1saW5lY2FwPSJzcXVhcmUiIHN0cm9rZS13aWR0aD0iMC44IiBmaWxsPSJub25lIi8+JiN4YTsgIDxwYXRoIGlkPSJwYXRoNjYxIiB0cmFuc2Zvcm09Im1hdHJpeCgxLCAwLCAwLCAtMSwgMCwgNzg5LjY2Njg3NSkiIGQ9Ik0gODY1LjQ3NjU2MiA2MS43NDUgTCA4NjUuNDc2NTYyIDc4Mi40Njc2NTYiIHN0cm9rZS1taXRlcmxpbWl0PSIxMCIgc3Ryb2tlLW9wYWNpdHk9IjEiIHN0cm9rZT0icmdiKDAlLCAwJSwgMCUpIiBzdHJva2UtbGluZWpvaW49Im1pdGVyIiBzdHJva2UtbGluZWNhcD0ic3F1YXJlIiBzdHJva2Utd2lkdGg9IjAuOCIgZmlsbD0ibm9uZSIvPiYjeGE7ICA8cGF0aCBpZD0icGF0aDY2MyIgdHJhbnNmb3JtPSJtYXRyaXgoMSwgMCwgMCwgLTEsIDAsIDc4OS42NjY4NzUpIiBkPSJNIDg0LjI3NzM0NCA2MS43NDUgTCA4NjUuNDc2NTYyIDYxLjc0NSIgc3Ryb2tlLW1pdGVybGltaXQ9IjEwIiBzdHJva2Utb3BhY2l0eT0iMSIgc3Ryb2tlPSJyZ2IoMCUsIDAlLCAwJSkiIHN0cm9rZS1saW5lam9pbj0ibWl0ZXIiIHN0cm9rZS1saW5lY2FwPSJzcXVhcmUiIHN0cm9rZS13aWR0aD0iMC44IiBmaWxsPSJub25lIi8+JiN4YTsgIDxwYXRoIGlkPSJwYXRoNjY1IiB0cmFuc2Zvcm09Im1hdHJpeCgxLCAwLCAwLCAtMSwgMCwgNzg5LjY2Njg3NSkiIGQ9Ik0gODQuMjc3MzQ0IDc4Mi40Njc2NTYgTCA4NjUuNDc2NTYyIDc4Mi40Njc2NTYiIHN0cm9rZS1taXRlcmxpbWl0PSIxMCIgc3Ryb2tlLW9wYWNpdHk9IjEiIHN0cm9rZT0icmdiKDAlLCAwJSwgMCUpIiBzdHJva2UtbGluZWpvaW49Im1pdGVyIiBzdHJva2UtbGluZWNhcD0ic3F1YXJlIiBzdHJva2Utd2lkdGg9IjAuOCIgZmlsbD0ibm9uZSIvPiYjeGE7ICA8cGF0aCBpZD0icGF0aDY2NyIgdHJhbnNmb3JtPSJtYXRyaXgoMSwgMCwgMCwgLTEsIDAsIDc4OS42NjY4NzUpIiBkPSJNIDM3MC45MjE4NzUgNzAuMjQ1IEwgNTc4LjgzNTkzOCA3MC4yNDUgQyA1ODEuMTAxNTYyIDcwLjI0NSA1ODIuMjM0Mzc1IDcxLjM4MTcxOSA1ODIuMjM0Mzc1IDczLjY0NzM0NCBMIDU4Mi4yMzQzNzUgMzY5LjA4ODc1IEMgNTgyLjIzNDM3NSAzNzEuMzU0Mzc1IDU4MS4xMDE1NjIgMzcyLjQ4NzE4OCA1NzguODM1OTM4IDM3Mi40ODcxODggTCAzNzAuOTIxODc1IDM3Mi40ODcxODggQyAzNjguNjUyMzQ0IDM3Mi40ODcxODggMzY3LjUxOTUzMSAzNzEuMzU0Mzc1IDM2Ny41MTk1MzEgMzY5LjA4ODc1IEwgMzY3LjUxOTUzMSA3My42NDczNDQgQyAzNjcuNTE5NTMxIDcxLjM4MTcxOSAzNjguNjUyMzQ0IDcwLjI0NSAzNzAuOTIxODc1IDcwLjI0NSBaIE0gMzcwLjkyMTg3NSA3MC4yNDUiIHN0cm9rZS1taXRlcmxpbWl0PSIxMCIgc3Ryb2tlLW9wYWNpdHk9IjAuOCIgc3Ryb2tlPSJyZ2IoNzkuOTk4Nzc5JSwgNzkuOTk4Nzc5JSwgNzkuOTk4Nzc5JSkiIHN0cm9rZS1saW5lam9pbj0ibWl0ZXIiIHN0cm9rZS1saW5lY2FwPSJidXR0IiBzdHJva2Utd2lkdGg9IjEiIGZpbGwtb3BhY2l0eT0iMC44IiBmaWxsPSJyZ2IoMTAwJSwgMTAwJSwgMTAwJSkiIGZpbGwtcnVsZT0ibm9uemVybyIvPiYjeGE7ICA8ZyBpZD0iZzcwOSIgZmlsbC1vcGFjaXR5PSIxIiBmaWxsPSJyZ2IoMCUsIDAlLCAwJSkiPiYjeGE7ICAgIDx1c2UgaWQ9InVzZTY2OSIgeT0iNDM3LjY1MTI1IiB4PSIzNzkuMjg0Mzc1IiB4bGluazpocmVmPSIjZ2x5cGgtMi03Ii8+JiN4YTsgICAgPHVzZSBpZD0idXNlNjcxIiB5PSI0MzcuNjUxMjUiIHg9IjM5MC43MTQzNzUiIHhsaW5rOmhyZWY9IiNnbHlwaC0yLTgiLz4mI3hhOyAgICA8dXNlIGlkPSJ1c2U2NzMiIHk9IjQzNy42NTEyNSIgeD0iNDAyLjEyNjM3NSIgeGxpbms6aHJlZj0iI2dseXBoLTItOSIvPiYjeGE7ICAgIDx1c2UgaWQ9InVzZTY3NSIgeT0iNDM3LjY1MTI1IiB4PSI0MTMuMTYwMzc1IiB4bGluazpocmVmPSIjZ2x5cGgtMi0xMCIvPiYjeGE7ICAgIDx1c2UgaWQ9InVzZTY3NyIgeT0iNDM3LjY1MTI1IiB4PSI0MjQuNTkwMzc1IiB4bGluazpocmVmPSIjZ2x5cGgtMi0xMSIvPiYjeGE7ICAgIDx1c2UgaWQ9InVzZTY3OSIgeT0iNDM3LjY1MTI1IiB4PSI0MzUuNjYwMzc1IiB4bGluazpocmVmPSIjZ2x5cGgtMi0xMiIvPiYjeGE7ICAgIDx1c2UgaWQ9InVzZTY4MSIgeT0iNDM3LjY1MTI1IiB4PSI0NDUuMDM4Mzc1IiB4bGluazpocmVmPSIjZ2x5cGgtMi0xMyIvPiYjeGE7ICAgIDx1c2UgaWQ9InVzZTY4MyIgeT0iNDM3LjY1MTI1IiB4PSI0NTAuNzYyMzc1IiB4bGluazpocmVmPSIjZ2x5cGgtMi0xNCIvPiYjeGE7ICAgIDx1c2UgaWQ9InVzZTY4NSIgeT0iNDM3LjY1MTI1IiB4PSI0NTcuNzgyMzc1IiB4bGluazpocmVmPSIjZ2x5cGgtMi0xNSIvPiYjeGE7ICAgIDx1c2UgaWQ9InVzZTY4NyIgeT0iNDM3LjY1MTI1IiB4PSI0NzUuMzE0Mzc1IiB4bGluazpocmVmPSIjZ2x5cGgtMi0xNiIvPiYjeGE7ICAgIDx1c2UgaWQ9InVzZTY4OSIgeT0iNDM3LjY1MTI1IiB4PSI0ODYuMzMwMzc1IiB4bGluazpocmVmPSIjZ2x5cGgtMi0xNyIvPiYjeGE7ICAgIDx1c2UgaWQ9InVzZTY5MSIgeT0iNDM3LjY1MTI1IiB4PSI0OTcuNzYwMzc1IiB4bGluazpocmVmPSIjZ2x5cGgtMi0xMSIvPiYjeGE7ICAgIDx1c2UgaWQ9InVzZTY5MyIgeT0iNDM3LjY1MTI1IiB4PSI1MDguODMwMzc1IiB4bGluazpocmVmPSIjZ2x5cGgtMi0xOCIvPiYjeGE7ICAgIDx1c2UgaWQ9InVzZTY5NSIgeT0iNDM3LjY1MTI1IiB4PSI1MTMuODM0Mzc1IiB4bGluazpocmVmPSIjZ2x5cGgtMi0xOSIvPiYjeGE7ICAgIDx1c2UgaWQ9InVzZTY5NyIgeT0iNDM3LjY1MTI1IiB4PSI1MjIuODM0Mzc1IiB4bGluazpocmVmPSIjZ2x5cGgtMi0xMiIvPiYjeGE7ICAgIDx1c2UgaWQ9InVzZTY5OSIgeT0iNDM3LjY1MTI1IiB4PSI1MzIuMjEyMzc1IiB4bGluazpocmVmPSIjZ2x5cGgtMi0yMCIvPiYjeGE7ICAgIDx1c2UgaWQ9InVzZTcwMSIgeT0iNDM3LjY1MTI1IiB4PSI1MzcuMjE2Mzc1IiB4bGluazpocmVmPSIjZ2x5cGgtMi0yMSIvPiYjeGE7ICAgIDx1c2UgaWQ9InVzZTcwMyIgeT0iNDM3LjY1MTI1IiB4PSI1NDYuNjY2Mzc1IiB4bGluazpocmVmPSIjZ2x5cGgtMi0xMSIvPiYjeGE7ICAgIDx1c2UgaWQ9InVzZTcwNSIgeT0iNDM3LjY1MTI1IiB4PSI1NTcuNzM2Mzc1IiB4bGluazpocmVmPSIjZ2x5cGgtMi0yMiIvPiYjeGE7ICAgIDx1c2UgaWQ9InVzZTcwNyIgeT0iNDM3LjY1MTI1IiB4PSI1NjQuNzU2Mzc1IiB4bGluazpocmVmPSIjZ2x5cGgtMi0xMyIvPiYjeGE7ICA8L2c+JiN4YTsgIDxnIGlkPSJnNzQxIiBmaWxsLW9wYWNpdHk9IjEiIGZpbGw9InJnYigwJSwgMCUsIDAlKSI+JiN4YTsgICAgPHVzZSBpZD0idXNlNzExIiB5PSI0NTguMzA3NSIgeD0iMzc5LjI4NDM3NSIgeGxpbms6aHJlZj0iI2dseXBoLTItMTMiLz4mI3hhOyAgICA8dXNlIGlkPSJ1c2U3MTMiIHk9IjQ1OC4zMDc1IiB4PSIzODUuMDA4Mzc1IiB4bGluazpocmVmPSIjZ2x5cGgtMi0yMyIvPiYjeGE7ICAgIDx1c2UgaWQ9InVzZTcxNSIgeT0iNDU4LjMwNzUiIHg9IjM5Ny41NzIzNzUiIHhsaW5rOmhyZWY9IiNnbHlwaC0yLTE2Ii8+JiN4YTsgICAgPHVzZSBpZD0idXNlNzE3IiB5PSI0NTguMzA3NSIgeD0iNDA4LjU4ODM3NSIgeGxpbms6aHJlZj0iI2dseXBoLTItMTgiLz4mI3hhOyAgICA8dXNlIGlkPSJ1c2U3MTkiIHk9IjQ1OC4zMDc1IiB4PSI0MTMuNTkyMzc1IiB4bGluazpocmVmPSIjZ2x5cGgtMi0xNiIvPiYjeGE7ICAgIDx1c2UgaWQ9InVzZTcyMSIgeT0iNDU4LjMwNzUiIHg9IjQyNC42MDgzNzUiIHhsaW5rOmhyZWY9IiNnbHlwaC0yLTI0Ii8+JiN4YTsgICAgPHVzZSBpZD0idXNlNzIzIiB5PSI0NTguMzA3NSIgeD0iNDMyLjAwNjM3NSIgeGxpbms6aHJlZj0iI2dseXBoLTItMTIiLz4mI3hhOyAgICA8dXNlIGlkPSJ1c2U3MjUiIHk9IjQ1OC4zMDc1IiB4PSI0NDEuMzg0Mzc1IiB4bGluazpocmVmPSIjZ2x5cGgtMi0xMyIvPiYjeGE7ICAgIDx1c2UgaWQ9InVzZTcyNyIgeT0iNDU4LjMwNzUiIHg9IjQ0Ny4xMDgzNzUiIHhsaW5rOmhyZWY9IiNnbHlwaC0yLTE0Ii8+JiN4YTsgICAgPHVzZSBpZD0idXNlNzI5IiB5PSI0NTguMzA3NSIgeD0iNDU0LjEyODM3NSIgeGxpbms6aHJlZj0iI2dseXBoLTItMTciLz4mI3hhOyAgICA8dXNlIGlkPSJ1c2U3MzEiIHk9IjQ1OC4zMDc1IiB4PSI0NjUuNTU4Mzc1IiB4bGluazpocmVmPSIjZ2x5cGgtMi0yNSIvPiYjeGE7ICAgIDx1c2UgaWQ9InVzZTczMyIgeT0iNDU4LjMwNzUiIHg9IjQ3Mi42MTQzNzUiIHhsaW5rOmhyZWY9IiNnbHlwaC0yLTI2Ii8+JiN4YTsgICAgPHVzZSBpZD0idXNlNzM1IiB5PSI0NTguMzA3NSIgeD0iNDgzLjI3MDM3NSIgeGxpbms6aHJlZj0iI2dseXBoLTItMTAiLz4mI3hhOyAgICA8dXNlIGlkPSJ1c2U3MzciIHk9IjQ1OC4zMDc1IiB4PSI0OTQuNzAwMzc1IiB4bGluazpocmVmPSIjZ2x5cGgtMi0xMSIvPiYjeGE7ICAgIDx1c2UgaWQ9InVzZTczOSIgeT0iNDU4LjMwNzUiIHg9IjUwNS43NzAzNzUiIHhsaW5rOmhyZWY9IiNnbHlwaC0yLTIyIi8+JiN4YTsgIDwvZz4mI3hhOyAgPHBhdGggaWQ9InBhdGg3NDMiIHRyYW5zZm9ybT0ibWF0cml4KDEsIDAsIDAsIC0xLCAwLCA3ODkuNjY2ODc1KSIgZD0iTSAzOTEuMzIwMzEyIDMwMC41NzMxMjUgQyAzOTMuOTcyNjU2IDMwMC41NzMxMjUgMzk2LjUxNTYyNSAzMDEuNjIzOTA2IDM5OC4zOTA2MjUgMzAzLjQ5ODkwNiBDIDQwMC4yNjU2MjUgMzA1LjM3NzgxMyA0MDEuMzIwMzEyIDMwNy45MjA3ODEgNDAxLjMyMDMxMiAzMTAuNTczMTI1IEMgNDAxLjMyMDMxMiAzMTMuMjI1NDY5IDQwMC4yNjU2MjUgMzE1Ljc2ODQzOCAzOTguMzkwNjI1IDMxNy42NDM0MzggQyAzOTYuNTE1NjI1IDMxOS41MTg0MzggMzkzLjk3MjY1NiAzMjAuNTczMTI1IDM5MS4zMjAzMTIgMzIwLjU3MzEyNSBDIDM4OC42Njc5NjkgMzIwLjU3MzEyNSAzODYuMTI1IDMxOS41MTg0MzggMzg0LjI1IDMxNy42NDM0MzggQyAzODIuMzc1IDMxNS43Njg0MzggMzgxLjMyMDMxMiAzMTMuMjI1NDY5IDM4MS4zMjAzMTIgMzEwLjU3MzEyNSBDIDM4MS4zMjAzMTIgMzA3LjkyMDc4MSAzODIuMzc1IDMwNS4zNzc4MTMgMzg0LjI1IDMwMy40OTg5MDYgQyAzODYuMTI1IDMwMS42MjM5MDYgMzg4LjY2Nzk2OSAzMDAuNTczMTI1IDM5MS4zMjAzMTIgMzAwLjU3MzEyNSBaIE0gMzkxLjMyMDMxMiAzMDAuNTczMTI1IiBzdHJva2UtbWl0ZXJsaW1pdD0iMTAiIHN0cm9rZS1vcGFjaXR5PSIxIiBzdHJva2U9InJnYig5OS42MDYzMjMlLCA3NC45MDA4MTglLCAzNS4yOTM1NzklKSIgc3Ryb2tlLWxpbmVqb2luPSJyb3VuZCIgc3Ryb2tlLWxpbmVjYXA9ImJ1dHQiIHN0cm9rZS13aWR0aD0iMSIgZmlsbC1vcGFjaXR5PSIxIiBmaWxsPSJyZ2IoOTkuNjA2MzIzJSwgNzQuOTAwODE4JSwgMzUuMjkzNTc5JSkiIGZpbGwtcnVsZT0ibm9uemVybyIvPiYjeGE7ICA8ZyBpZD0iZzc3NSIgZmlsbC1vcGFjaXR5PSIxIiBmaWxsPSJyZ2IoMCUsIDAlLCAwJSkiPiYjeGE7ICAgIDx1c2UgaWQ9InVzZTc0NSIgeT0iNDgzLjU1NzUiIHg9IjQyMS45MjAzMTIiIHhsaW5rOmhyZWY9IiNnbHlwaC00LTAiLz4mI3hhOyAgICA8dXNlIGlkPSJ1c2U3NDciIHk9IjQ4My41NTc1IiB4PSI0MzIuMTU0MzEyIiB4bGluazpocmVmPSIjZ2x5cGgtNC0xIi8+JiN4YTsgICAgPHVzZSBpZD0idXNlNzQ5IiB5PSI0ODMuNTU3NSIgeD0iNDQyLjM4ODMxMiIgeGxpbms6aHJlZj0iI2dseXBoLTQtMCIvPiYjeGE7ICAgIDx1c2UgaWQ9InVzZTc1MSIgeT0iNDgzLjU1NzUiIHg9IjQ1Mi42MjIzMTIiIHhsaW5rOmhyZWY9IiNnbHlwaC00LTIiLz4mI3hhOyAgICA8dXNlIGlkPSJ1c2U3NTMiIHk9IjQ4My41NTc1IiB4PSI0NjIuODU2MzEyIiB4bGluazpocmVmPSIjZ2x5cGgtNC0zIi8+JiN4YTsgICAgPHVzZSBpZD0idXNlNzU1IiB5PSI0ODMuNTU3NSIgeD0iNDczLjA5MDMxMiIgeGxpbms6aHJlZj0iI2dseXBoLTQtMyIvPiYjeGE7ICAgIDx1c2UgaWQ9InVzZTc1NyIgeT0iNDgzLjU1NzUiIHg9IjQ4My4zMjQzMTIiIHhsaW5rOmhyZWY9IiNnbHlwaC00LTMiLz4mI3hhOyAgICA8dXNlIGlkPSJ1c2U3NTkiIHk9IjQ4My41NTc1IiB4PSI0OTMuNTU4MzEyIiB4bGluazpocmVmPSIjZ2x5cGgtNC0zIi8+JiN4YTsgICAgPHVzZSBpZD0idXNlNzYzIiB5PSI0ODMuNTU3NSIgeD0iNTE0LjAyNjMxMiIgeGxpbms6aHJlZj0iI2dseXBoLTQtNSIvPiYjeGE7ICAgIDx1c2UgaWQ9InVzZTc2NSIgeT0iNDgzLjU1NzUiIHg9IjUyNC4yNjAzMTIiIHhsaW5rOmhyZWY9IiNnbHlwaC00LTAiLz4mI3hhOyAgICA8dXNlIGlkPSJ1c2U3NjciIHk9IjQ4My41NTc1IiB4PSI1MzQuNDk0MzEyIiB4bGluazpocmVmPSIjZ2x5cGgtNC02Ii8+JiN4YTsgICAgPHVzZSBpZD0idXNlNzY5IiB5PSI0ODMuNTU3NSIgeD0iNTQ0LjcyODMxMiIgeGxpbms6aHJlZj0iI2dseXBoLTQtNyIvPiYjeGE7ICAgIDx1c2UgaWQ9InVzZTc3MSIgeT0iNDgzLjU1NzUiIHg9IjU1NC45NjIzMTIiIHhsaW5rOmhyZWY9IiNnbHlwaC00LTMiLz4mI3hhOyAgICA8dXNlIGlkPSJ1c2U3NzMiIHk9IjQ4My41NTc1IiB4PSI1NjUuMTk2MzEyIiB4bGluazpocmVmPSIjZ2x5cGgtNC0zIi8+JiN4YTsgIDwvZz4mI3hhOyAgPHBhdGggaWQ9InBhdGg3NzciIHRyYW5zZm9ybT0ibWF0cml4KDEsIDAsIDAsIC0xLCAwLCA3ODkuNjY2ODc1KSIgZD0iTSAzOTEuMzIwMzEyIDI3NS41NDE4NzUgQyAzOTMuOTcyNjU2IDI3NS41NDE4NzUgMzk2LjUxNTYyNSAyNzYuNTkyNjU2IDM5OC4zOTA2MjUgMjc4LjQ2NzY1NiBDIDQwMC4yNjU2MjUgMjgwLjM0NjU2MyA0MDEuMzIwMzEyIDI4Mi44ODk1MzEgNDAxLjMyMDMxMiAyODUuNTQxODc1IEMgNDAxLjMyMDMxMiAyODguMTk0MjE5IDQwMC4yNjU2MjUgMjkwLjczNzE4OCAzOTguMzkwNjI1IDI5Mi42MTIxODggQyAzOTYuNTE1NjI1IDI5NC40ODcxODggMzkzLjk3MjY1NiAyOTUuNTQxODc1IDM5MS4zMjAzMTIgMjk1LjU0MTg3NSBDIDM4OC42Njc5NjkgMjk1LjU0MTg3NSAzODYuMTI1IDI5NC40ODcxODggMzg0LjI1IDI5Mi42MTIxODggQyAzODIuMzc1IDI5MC43MzcxODggMzgxLjMyMDMxMiAyODguMTk0MjE5IDM4MS4zMjAzMTIgMjg1LjU0MTg3NSBDIDM4MS4zMjAzMTIgMjgyLjg4OTUzMSAzODIuMzc1IDI4MC4zNDY1NjMgMzg0LjI1IDI3OC40Njc2NTYgQyAzODYuMTI1IDI3Ni41OTI2NTYgMzg4LjY2Nzk2OSAyNzUuNTQxODc1IDM5MS4zMjAzMTIgMjc1LjU0MTg3NSBaIE0gMzkxLjMyMDMxMiAyNzUuNTQxODc1IiBzdHJva2UtbWl0ZXJsaW1pdD0iMTAiIHN0cm9rZS1vcGFjaXR5PSIxIiBzdHJva2U9InJnYig5NS41NTUxMTUlLCAyMy43ODk5NzglLCAxNC42MzkyODIlKSIgc3Ryb2tlLWxpbmVqb2luPSJyb3VuZCIgc3Ryb2tlLWxpbmVjYXA9ImJ1dHQiIHN0cm9rZS13aWR0aD0iMSIgZmlsbC1vcGFjaXR5PSIxIiBmaWxsPSJyZ2IoOTUuNTU1MTE1JSwgMjMuNzg5OTc4JSwgMTQuNjM5MjgyJSkiIGZpbGwtcnVsZT0ibm9uemVybyIvPiYjeGE7ICA8ZyBpZD0iZzgwOSIgZmlsbC1vcGFjaXR5PSIxIiBmaWxsPSJyZ2IoMCUsIDAlLCAwJSkiPiYjeGE7ICAgIDx1c2UgaWQ9InVzZTc3OSIgeT0iNTA4LjU4ODc1IiB4PSI0MjEuOTIwMzEyIiB4bGluazpocmVmPSIjZ2x5cGgtNC0wIi8+JiN4YTsgICAgPHVzZSBpZD0idXNlNzgxIiB5PSI1MDguNTg4NzUiIHg9IjQzMi4xNTQzMTIiIHhsaW5rOmhyZWY9IiNnbHlwaC00LTEiLz4mI3hhOyAgICA8dXNlIGlkPSJ1c2U3ODMiIHk9IjUwOC41ODg3NSIgeD0iNDQyLjM4ODMxMiIgeGxpbms6aHJlZj0iI2dseXBoLTQtMCIvPiYjeGE7ICAgIDx1c2UgaWQ9InVzZTc4NSIgeT0iNTA4LjU4ODc1IiB4PSI0NTIuNjIyMzEyIiB4bGluazpocmVmPSIjZ2x5cGgtNC0yIi8+JiN4YTsgICAgPHVzZSBpZD0idXNlNzg3IiB5PSI1MDguNTg4NzUiIHg9IjQ2Mi44NTYzMTIiIHhsaW5rOmhyZWY9IiNnbHlwaC00LTMiLz4mI3hhOyAgICA8dXNlIGlkPSJ1c2U3ODkiIHk9IjUwOC41ODg3NSIgeD0iNDczLjA5MDMxMiIgeGxpbms6aHJlZj0iI2dseXBoLTQtMyIvPiYjeGE7ICAgIDx1c2UgaWQ9InVzZTc5MSIgeT0iNTA4LjU4ODc1IiB4PSI0ODMuMzI0MzEyIiB4bGluazpocmVmPSIjZ2x5cGgtNC0zIi8+JiN4YTsgICAgPHVzZSBpZD0idXNlNzkzIiB5PSI1MDguNTg4NzUiIHg9IjQ5My41NTgzMTIiIHhsaW5rOmhyZWY9IiNnbHlwaC00LTMiLz4mI3hhOyAgICA8dXNlIGlkPSJ1c2U3OTciIHk9IjUwOC41ODg3NSIgeD0iNTE0LjAyNjMxMiIgeGxpbms6aHJlZj0iI2dseXBoLTQtOSIvPiYjeGE7ICAgIDx1c2UgaWQ9InVzZTc5OSIgeT0iNTA4LjU4ODc1IiB4PSI1MjQuMjYwMzEyIiB4bGluazpocmVmPSIjZ2x5cGgtNC0xMCIvPiYjeGE7ICAgIDx1c2UgaWQ9InVzZTgwMSIgeT0iNTA4LjU4ODc1IiB4PSI1MzQuNDk0MzEyIiB4bGluazpocmVmPSIjZ2x5cGgtNC00Ii8+JiN4YTsgICAgPHVzZSBpZD0idXNlODAzIiB5PSI1MDguNTg4NzUiIHg9IjU0NC43MjgzMTIiIHhsaW5rOmhyZWY9IiNnbHlwaC00LTExIi8+JiN4YTsgICAgPHVzZSBpZD0idXNlODA1IiB5PSI1MDguNTg4NzUiIHg9IjU1NC45NjIzMTIiIHhsaW5rOmhyZWY9IiNnbHlwaC00LTMiLz4mI3hhOyAgICA8dXNlIGlkPSJ1c2U4MDciIHk9IjUwOC41ODg3NSIgeD0iNTY1LjE5NjMxMiIgeGxpbms6aHJlZj0iI2dseXBoLTQtMyIvPiYjeGE7ICA8L2c+JiN4YTsgIDxwYXRoIGlkPSJwYXRoODExIiB0cmFuc2Zvcm09Im1hdHJpeCgxLCAwLCAwLCAtMSwgMCwgNzg5LjY2Njg3NSkiIGQ9Ik0gMzkxLjMyMDMxMiAyNTAuNTEwNjI1IEMgMzkzLjk3MjY1NiAyNTAuNTEwNjI1IDM5Ni41MTU2MjUgMjUxLjU2MTQwNiAzOTguMzkwNjI1IDI1My40MzY0MDYgQyA0MDAuMjY1NjI1IDI1NS4zMTUzMTMgNDAxLjMyMDMxMiAyNTcuODU4MjgxIDQwMS4zMjAzMTIgMjYwLjUxMDYyNSBDIDQwMS4zMjAzMTIgMjYzLjE2Mjk2OSA0MDAuMjY1NjI1IDI2NS43MDU5MzggMzk4LjM5MDYyNSAyNjcuNTgwOTM4IEMgMzk2LjUxNTYyNSAyNjkuNDU1OTM4IDM5My45NzI2NTYgMjcwLjUxMDYyNSAzOTEuMzIwMzEyIDI3MC41MTA2MjUgQyAzODguNjY3OTY5IDI3MC41MTA2MjUgMzg2LjEyNSAyNjkuNDU1OTM4IDM4NC4yNSAyNjcuNTgwOTM4IEMgMzgyLjM3NSAyNjUuNzA1OTM4IDM4MS4zMjAzMTIgMjYzLjE2Mjk2OSAzODEuMzIwMzEyIDI2MC41MTA2MjUgQyAzODEuMzIwMzEyIDI1Ny44NTgyODEgMzgyLjM3NSAyNTUuMzE1MzEzIDM4NC4yNSAyNTMuNDM2NDA2IEMgMzg2LjEyNSAyNTEuNTYxNDA2IDM4OC42Njc5NjkgMjUwLjUxMDYyNSAzOTEuMzIwMzEyIDI1MC41MTA2MjUgWiBNIDM5MS4zMjAzMTIgMjUwLjUxMDYyNSIgc3Ryb2tlLW1pdGVybGltaXQ9IjEwIiBzdHJva2Utb3BhY2l0eT0iMSIgc3Ryb2tlPSJyZ2IoNTAuMTk1MzEyJSwgMCUsIDE0LjkwMTczMyUpIiBzdHJva2UtbGluZWpvaW49InJvdW5kIiBzdHJva2UtbGluZWNhcD0iYnV0dCIgc3Ryb2tlLXdpZHRoPSIxIiBmaWxsLW9wYWNpdHk9IjEiIGZpbGw9InJnYig1MC4xOTUzMTIlLCAwJSwgMTQuOTAxNzMzJSkiIGZpbGwtcnVsZT0ibm9uemVybyIvPiYjeGE7ICA8ZyBpZD0iZzg0MyIgZmlsbC1vcGFjaXR5PSIxIiBmaWxsPSJyZ2IoMCUsIDAlLCAwJSkiPiYjeGE7ICAgIDx1c2UgaWQ9InVzZTgxMyIgeT0iNTMzLjYyIiB4PSI0MjEuOTIwMzEyIiB4bGluazpocmVmPSIjZ2x5cGgtNC0wIi8+JiN4YTsgICAgPHVzZSBpZD0idXNlODE1IiB5PSI1MzMuNjIiIHg9IjQzMi4xNTQzMTIiIHhsaW5rOmhyZWY9IiNnbHlwaC00LTEiLz4mI3hhOyAgICA8dXNlIGlkPSJ1c2U4MTciIHk9IjUzMy42MiIgeD0iNDQyLjM4ODMxMiIgeGxpbms6aHJlZj0iI2dseXBoLTQtMCIvPiYjeGE7ICAgIDx1c2UgaWQ9InVzZTgxOSIgeT0iNTMzLjYyIiB4PSI0NTIuNjIyMzEyIiB4bGluazpocmVmPSIjZ2x5cGgtNC0yIi8+JiN4YTsgICAgPHVzZSBpZD0idXNlODIxIiB5PSI1MzMuNjIiIHg9IjQ2Mi44NTYzMTIiIHhsaW5rOmhyZWY9IiNnbHlwaC00LTMiLz4mI3hhOyAgICA8dXNlIGlkPSJ1c2U4MjMiIHk9IjUzMy42MiIgeD0iNDczLjA5MDMxMiIgeGxpbms6aHJlZj0iI2dseXBoLTQtMyIvPiYjeGE7ICAgIDx1c2UgaWQ9InVzZTgyNSIgeT0iNTMzLjYyIiB4PSI0ODMuMzI0MzEyIiB4bGluazpocmVmPSIjZ2x5cGgtNC0zIi8+JiN4YTsgICAgPHVzZSBpZD0idXNlODI3IiB5PSI1MzMuNjIiIHg9IjQ5My41NTgzMTIiIHhsaW5rOmhyZWY9IiNnbHlwaC00LTMiLz4mI3hhOyAgICA8dXNlIGlkPSJ1c2U4MzEiIHk9IjUzMy42MiIgeD0iNTE0LjAyNjMxMiIgeGxpbms6aHJlZj0iI2dseXBoLTQtOSIvPiYjeGE7ICAgIDx1c2UgaWQ9InVzZTgzMyIgeT0iNTMzLjYyIiB4PSI1MjQuMjYwMzEyIiB4bGluazpocmVmPSIjZ2x5cGgtNC0xMCIvPiYjeGE7ICAgIDx1c2UgaWQ9InVzZTgzNSIgeT0iNTMzLjYyIiB4PSI1MzQuNDk0MzEyIiB4bGluazpocmVmPSIjZ2x5cGgtNC0xMiIvPiYjeGE7ICAgIDx1c2UgaWQ9InVzZTgzNyIgeT0iNTMzLjYyIiB4PSI1NDQuNzI4MzEyIiB4bGluazpocmVmPSIjZ2x5cGgtNC04Ii8+JiN4YTsgICAgPHVzZSBpZD0idXNlODM5IiB5PSI1MzMuNjIiIHg9IjU1NC45NjIzMTIiIHhsaW5rOmhyZWY9IiNnbHlwaC00LTMiLz4mI3hhOyAgICA8dXNlIGlkPSJ1c2U4NDEiIHk9IjUzMy42MiIgeD0iNTY1LjE5NjMxMiIgeGxpbms6aHJlZj0iI2dseXBoLTQtMyIvPiYjeGE7ICA8L2c+JiN4YTsgIDxwYXRoIGlkPSJwYXRoODQ1IiB0cmFuc2Zvcm09Im1hdHJpeCgxLCAwLCAwLCAtMSwgMCwgNzg5LjY2Njg3NSkiIGQ9Ik0gMzkxLjMyMDMxMiAyNDUuNDc5Mzc1IEwgMzgxLjMyMDMxMiAyMjUuNDc5Mzc1IEwgNDAxLjMyMDMxMiAyMjUuNDc5Mzc1IFogTSAzOTEuMzIwMzEyIDI0NS40NzkzNzUiIHN0cm9rZS1taXRlcmxpbWl0PSIxMCIgc3Ryb2tlLW9wYWNpdHk9IjEiIHN0cm9rZT0icmdiKDk5LjYwNjMyMyUsIDc0LjkwMDgxOCUsIDM1LjI5MzU3OSUpIiBzdHJva2UtbGluZWpvaW49InJvdW5kIiBzdHJva2UtbGluZWNhcD0iYnV0dCIgc3Ryb2tlLXdpZHRoPSIxIiBmaWxsLW9wYWNpdHk9IjEiIGZpbGw9InJnYig5OS42MDYzMjMlLCA3NC45MDA4MTglLCAzNS4yOTM1NzklKSIgZmlsbC1ydWxlPSJub256ZXJvIi8+JiN4YTsgIDxnIGlkPSJnODc3IiBmaWxsLW9wYWNpdHk9IjEiIGZpbGw9InJnYigwJSwgMCUsIDAlKSI+JiN4YTsgICAgPHVzZSBpZD0idXNlODQ3IiB5PSI1NTguNjUxMjUiIHg9IjQyMS45MjAzMTIiIHhsaW5rOmhyZWY9IiNnbHlwaC00LTEzIi8+JiN4YTsgICAgPHVzZSBpZD0idXNlODQ5IiB5PSI1NTguNjUxMjUiIHg9IjQzMi4xNTQzMTIiIHhsaW5rOmhyZWY9IiNnbHlwaC00LTE0Ii8+JiN4YTsgICAgPHVzZSBpZD0idXNlODUxIiB5PSI1NTguNjUxMjUiIHg9IjQ0Mi4zODgzMTIiIHhsaW5rOmhyZWY9IiNnbHlwaC00LTEiLz4mI3hhOyAgICA8dXNlIGlkPSJ1c2U4NTMiIHk9IjU1OC42NTEyNSIgeD0iNDUyLjYyMjMxMiIgeGxpbms6aHJlZj0iI2dseXBoLTQtMTUiLz4mI3hhOyAgICA8dXNlIGlkPSJ1c2U4NTUiIHk9IjU1OC42NTEyNSIgeD0iNDYyLjg1NjMxMiIgeGxpbms6aHJlZj0iI2dseXBoLTQtMTUiLz4mI3hhOyAgICA8dXNlIGlkPSJ1c2U4NTciIHk9IjU1OC42NTEyNSIgeD0iNDczLjA5MDMxMiIgeGxpbms6aHJlZj0iI2dseXBoLTQtMyIvPiYjeGE7ICAgIDx1c2UgaWQ9InVzZTg1OSIgeT0iNTU4LjY1MTI1IiB4PSI0ODMuMzI0MzEyIiB4bGluazpocmVmPSIjZ2x5cGgtNC0zIi8+JiN4YTsgICAgPHVzZSBpZD0idXNlODYxIiB5PSI1NTguNjUxMjUiIHg9IjQ5My41NTgzMTIiIHhsaW5rOmhyZWY9IiNnbHlwaC00LTMiLz4mI3hhOyAgICA8dXNlIGlkPSJ1c2U4NjUiIHk9IjU1OC42NTEyNSIgeD0iNTE0LjAyNjMxMiIgeGxpbms6aHJlZj0iI2dseXBoLTQtNSIvPiYjeGE7ICAgIDx1c2UgaWQ9InVzZTg2NyIgeT0iNTU4LjY1MTI1IiB4PSI1MjQuMjYwMzEyIiB4bGluazpocmVmPSIjZ2x5cGgtNC0wIi8+JiN4YTsgICAgPHVzZSBpZD0idXNlODY5IiB5PSI1NTguNjUxMjUiIHg9IjUzNC40OTQzMTIiIHhsaW5rOmhyZWY9IiNnbHlwaC00LTYiLz4mI3hhOyAgICA8dXNlIGlkPSJ1c2U4NzEiIHk9IjU1OC42NTEyNSIgeD0iNTQ0LjcyODMxMiIgeGxpbms6aHJlZj0iI2dseXBoLTQtNyIvPiYjeGE7ICAgIDx1c2UgaWQ9InVzZTg3MyIgeT0iNTU4LjY1MTI1IiB4PSI1NTQuOTYyMzEyIiB4bGluazpocmVmPSIjZ2x5cGgtNC0zIi8+JiN4YTsgICAgPHVzZSBpZD0idXNlODc1IiB5PSI1NTguNjUxMjUiIHg9IjU2NS4xOTYzMTIiIHhsaW5rOmhyZWY9IiNnbHlwaC00LTMiLz4mI3hhOyAgPC9nPiYjeGE7ICA8cGF0aCBpZD0icGF0aDg3OSIgdHJhbnNmb3JtPSJtYXRyaXgoMSwgMCwgMCwgLTEsIDAsIDc4OS42NjY4NzUpIiBkPSJNIDM5MS4zMjAzMTIgMjIwLjQ0ODEyNSBMIDM4MS4zMjAzMTIgMjAwLjQ0ODEyNSBMIDQwMS4zMjAzMTIgMjAwLjQ0ODEyNSBaIE0gMzkxLjMyMDMxMiAyMjAuNDQ4MTI1IiBzdHJva2UtbWl0ZXJsaW1pdD0iMTAiIHN0cm9rZS1vcGFjaXR5PSIxIiBzdHJva2U9InJnYig5NS41NTUxMTUlLCAyMy43ODk5NzglLCAxNC42MzkyODIlKSIgc3Ryb2tlLWxpbmVqb2luPSJyb3VuZCIgc3Ryb2tlLWxpbmVjYXA9ImJ1dHQiIHN0cm9rZS13aWR0aD0iMSIgZmlsbC1vcGFjaXR5PSIxIiBmaWxsPSJyZ2IoOTUuNTU1MTE1JSwgMjMuNzg5OTc4JSwgMTQuNjM5MjgyJSkiIGZpbGwtcnVsZT0ibm9uemVybyIvPiYjeGE7ICA8ZyBpZD0iZzkxMSIgZmlsbC1vcGFjaXR5PSIxIiBmaWxsPSJyZ2IoMCUsIDAlLCAwJSkiPiYjeGE7ICAgIDx1c2UgaWQ9InVzZTg4MSIgeT0iNTgzLjY4MjUiIHg9IjQyMS45MjAzMTIiIHhsaW5rOmhyZWY9IiNnbHlwaC00LTEzIi8+JiN4YTsgICAgPHVzZSBpZD0idXNlODgzIiB5PSI1ODMuNjgyNSIgeD0iNDMyLjE1NDMxMiIgeGxpbms6aHJlZj0iI2dseXBoLTQtMTQiLz4mI3hhOyAgICA8dXNlIGlkPSJ1c2U4ODUiIHk9IjU4My42ODI1IiB4PSI0NDIuMzg4MzEyIiB4bGluazpocmVmPSIjZ2x5cGgtNC0xIi8+JiN4YTsgICAgPHVzZSBpZD0idXNlODg3IiB5PSI1ODMuNjgyNSIgeD0iNDUyLjYyMjMxMiIgeGxpbms6aHJlZj0iI2dseXBoLTQtMTUiLz4mI3hhOyAgICA8dXNlIGlkPSJ1c2U4ODkiIHk9IjU4My42ODI1IiB4PSI0NjIuODU2MzEyIiB4bGluazpocmVmPSIjZ2x5cGgtNC0xNSIvPiYjeGE7ICAgIDx1c2UgaWQ9InVzZTg5MSIgeT0iNTgzLjY4MjUiIHg9IjQ3My4wOTAzMTIiIHhsaW5rOmhyZWY9IiNnbHlwaC00LTMiLz4mI3hhOyAgICA8dXNlIGlkPSJ1c2U4OTMiIHk9IjU4My42ODI1IiB4PSI0ODMuMzI0MzEyIiB4bGluazpocmVmPSIjZ2x5cGgtNC0zIi8+JiN4YTsgICAgPHVzZSBpZD0idXNlODk1IiB5PSI1ODMuNjgyNSIgeD0iNDkzLjU1ODMxMiIgeGxpbms6aHJlZj0iI2dseXBoLTQtMyIvPiYjeGE7ICAgIDx1c2UgaWQ9InVzZTg5OSIgeT0iNTgzLjY4MjUiIHg9IjUxNC4wMjYzMTIiIHhsaW5rOmhyZWY9IiNnbHlwaC00LTkiLz4mI3hhOyAgICA8dXNlIGlkPSJ1c2U5MDEiIHk9IjU4My42ODI1IiB4PSI1MjQuMjYwMzEyIiB4bGluazpocmVmPSIjZ2x5cGgtNC0xMCIvPiYjeGE7ICAgIDx1c2UgaWQ9InVzZTkwMyIgeT0iNTgzLjY4MjUiIHg9IjUzNC40OTQzMTIiIHhsaW5rOmhyZWY9IiNnbHlwaC00LTQiLz4mI3hhOyAgICA8dXNlIGlkPSJ1c2U5MDUiIHk9IjU4My42ODI1IiB4PSI1NDQuNzI4MzEyIiB4bGluazpocmVmPSIjZ2x5cGgtNC0xMSIvPiYjeGE7ICAgIDx1c2UgaWQ9InVzZTkwNyIgeT0iNTgzLjY4MjUiIHg9IjU1NC45NjIzMTIiIHhsaW5rOmhyZWY9IiNnbHlwaC00LTMiLz4mI3hhOyAgICA8dXNlIGlkPSJ1c2U5MDkiIHk9IjU4My42ODI1IiB4PSI1NjUuMTk2MzEyIiB4bGluazpocmVmPSIjZ2x5cGgtNC0zIi8+JiN4YTsgIDwvZz4mI3hhOyAgPHBhdGggaWQ9InBhdGg5MTMiIHRyYW5zZm9ybT0ibWF0cml4KDEsIDAsIDAsIC0xLCAwLCA3ODkuNjY2ODc1KSIgZD0iTSAzOTEuMzIwMzEyIDE5NS40MTY4NzUgTCAzODEuMzIwMzEyIDE3NS40MTY4NzUgTCA0MDEuMzIwMzEyIDE3NS40MTY4NzUgWiBNIDM5MS4zMjAzMTIgMTk1LjQxNjg3NSIgc3Ryb2tlLW1pdGVybGltaXQ9IjEwIiBzdHJva2Utb3BhY2l0eT0iMSIgc3Ryb2tlPSJyZ2IoNTAuMTk1MzEyJSwgMCUsIDE0LjkwMTczMyUpIiBzdHJva2UtbGluZWpvaW49InJvdW5kIiBzdHJva2UtbGluZWNhcD0iYnV0dCIgc3Ryb2tlLXdpZHRoPSIxIiBmaWxsLW9wYWNpdHk9IjEiIGZpbGw9InJnYig1MC4xOTUzMTIlLCAwJSwgMTQuOTAxNzMzJSkiIGZpbGwtcnVsZT0ibm9uemVybyIvPiYjeGE7ICA8ZyBpZD0iZzk0NSIgZmlsbC1vcGFjaXR5PSIxIiBmaWxsPSJyZ2IoMCUsIDAlLCAwJSkiPiYjeGE7ICAgIDx1c2UgaWQ9InVzZTkxNSIgeT0iNjA4LjcxMzc1IiB4PSI0MjEuOTIwMzEyIiB4bGluazpocmVmPSIjZ2x5cGgtNC0xMyIvPiYjeGE7ICAgIDx1c2UgaWQ9InVzZTkxNyIgeT0iNjA4LjcxMzc1IiB4PSI0MzIuMTU0MzEyIiB4bGluazpocmVmPSIjZ2x5cGgtNC0xNCIvPiYjeGE7ICAgIDx1c2UgaWQ9InVzZTkxOSIgeT0iNjA4LjcxMzc1IiB4PSI0NDIuMzg4MzEyIiB4bGluazpocmVmPSIjZ2x5cGgtNC0xIi8+JiN4YTsgICAgPHVzZSBpZD0idXNlOTIxIiB5PSI2MDguNzEzNzUiIHg9IjQ1Mi42MjIzMTIiIHhsaW5rOmhyZWY9IiNnbHlwaC00LTE1Ii8+JiN4YTsgICAgPHVzZSBpZD0idXNlOTIzIiB5PSI2MDguNzEzNzUiIHg9IjQ2Mi44NTYzMTIiIHhsaW5rOmhyZWY9IiNnbHlwaC00LTE1Ii8+JiN4YTsgICAgPHVzZSBpZD0idXNlOTI1IiB5PSI2MDguNzEzNzUiIHg9IjQ3My4wOTAzMTIiIHhsaW5rOmhyZWY9IiNnbHlwaC00LTMiLz4mI3hhOyAgICA8dXNlIGlkPSJ1c2U5MjciIHk9IjYwOC43MTM3NSIgeD0iNDgzLjMyNDMxMiIgeGxpbms6aHJlZj0iI2dseXBoLTQtMyIvPiYjeGE7ICAgIDx1c2UgaWQ9InVzZTkyOSIgeT0iNjA4LjcxMzc1IiB4PSI0OTMuNTU4MzEyIiB4bGluazpocmVmPSIjZ2x5cGgtNC0zIi8+JiN4YTsgICAgPHVzZSBpZD0idXNlOTMzIiB5PSI2MDguNzEzNzUiIHg9IjUxNC4wMjYzMTIiIHhsaW5rOmhyZWY9IiNnbHlwaC00LTkiLz4mI3hhOyAgICA8dXNlIGlkPSJ1c2U5MzUiIHk9IjYwOC43MTM3NSIgeD0iNTI0LjI2MDMxMiIgeGxpbms6aHJlZj0iI2dseXBoLTQtMTAiLz4mI3hhOyAgICA8dXNlIGlkPSJ1c2U5MzciIHk9IjYwOC43MTM3NSIgeD0iNTM0LjQ5NDMxMiIgeGxpbms6aHJlZj0iI2dseXBoLTQtMTIiLz4mI3hhOyAgICA8dXNlIGlkPSJ1c2U5MzkiIHk9IjYwOC43MTM3NSIgeD0iNTQ0LjcyODMxMiIgeGxpbms6aHJlZj0iI2dseXBoLTQtOCIvPiYjeGE7ICAgIDx1c2UgaWQ9InVzZTk0MSIgeT0iNjA4LjcxMzc1IiB4PSI1NTQuOTYyMzEyIiB4bGluazpocmVmPSIjZ2x5cGgtNC0zIi8+JiN4YTsgICAgPHVzZSBpZD0idXNlOTQzIiB5PSI2MDguNzEzNzUiIHg9IjU2NS4xOTYzMTIiIHhsaW5rOmhyZWY9IiNnbHlwaC00LTMiLz4mI3hhOyAgPC9nPiYjeGE7ICA8cGF0aCBpZD0icGF0aDk0NyIgdHJhbnNmb3JtPSJtYXRyaXgoMSwgMCwgMCwgLTEsIDAsIDc4OS42NjY4NzUpIiBkPSJNIDM4MS4zMjAzMTIgMTUwLjM4NTYyNSBMIDQwMS4zMjAzMTIgMTUwLjM4NTYyNSBMIDQwMS4zMjAzMTIgMTcwLjM4NTYyNSBMIDM4MS4zMjAzMTIgMTcwLjM4NTYyNSBaIE0gMzgxLjMyMDMxMiAxNTAuMzg1NjI1IiBzdHJva2UtbWl0ZXJsaW1pdD0iMTAiIHN0cm9rZS1vcGFjaXR5PSIxIiBzdHJva2U9InJnYig5NS41NTUxMTUlLCAyMy43ODk5NzglLCAxNC42MzkyODIlKSIgc3Ryb2tlLWxpbmVqb2luPSJyb3VuZCIgc3Ryb2tlLWxpbmVjYXA9ImJ1dHQiIHN0cm9rZS13aWR0aD0iMSIgZmlsbC1vcGFjaXR5PSIxIiBmaWxsPSJyZ2IoOTUuNTU1MTE1JSwgMjMuNzg5OTc4JSwgMTQuNjM5MjgyJSkiIGZpbGwtcnVsZT0ibm9uemVybyIvPiYjeGE7ICA8ZyBpZD0iZzk3OSIgZmlsbC1vcGFjaXR5PSIxIiBmaWxsPSJyZ2IoMCUsIDAlLCAwJSkiPiYjeGE7ICAgIDx1c2UgaWQ9InVzZTk0OSIgeT0iNjMzLjc0NSIgeD0iNDIxLjkyMDMxMiIgeGxpbms6aHJlZj0iI2dseXBoLTQtMTQiLz4mI3hhOyAgICA8dXNlIGlkPSJ1c2U5NTEiIHk9IjYzMy43NDUiIHg9IjQzMi4xNTQzMTIiIHhsaW5rOmhyZWY9IiNnbHlwaC00LTE2Ii8+JiN4YTsgICAgPHVzZSBpZD0idXNlOTUzIiB5PSI2MzMuNzQ1IiB4PSI0NDIuMzg4MzEyIiB4bGluazpocmVmPSIjZ2x5cGgtNC0xNyIvPiYjeGE7ICAgIDx1c2UgaWQ9InVzZTk1NSIgeT0iNjMzLjc0NSIgeD0iNDUyLjYyMjMxMiIgeGxpbms6aHJlZj0iI2dseXBoLTQtNSIvPiYjeGE7ICAgIDx1c2UgaWQ9InVzZTk1NyIgeT0iNjMzLjc0NSIgeD0iNDYyLjg1NjMxMiIgeGxpbms6aHJlZj0iI2dseXBoLTQtMTgiLz4mI3hhOyAgICA8dXNlIGlkPSJ1c2U5NTkiIHk9IjYzMy43NDUiIHg9IjQ3My4wOTAzMTIiIHhsaW5rOmhyZWY9IiNnbHlwaC00LTE0Ii8+JiN4YTsgICAgPHVzZSBpZD0idXNlOTYxIiB5PSI2MzMuNzQ1IiB4PSI0ODMuMzI0MzEyIiB4bGluazpocmVmPSIjZ2x5cGgtNC0zIi8+JiN4YTsgICAgPHVzZSBpZD0idXNlOTYzIiB5PSI2MzMuNzQ1IiB4PSI0OTMuNTU4MzEyIiB4bGluazpocmVmPSIjZ2x5cGgtNC0zIi8+JiN4YTsgICAgPHVzZSBpZD0idXNlOTY3IiB5PSI2MzMuNzQ1IiB4PSI1MTQuMDI2MzEyIiB4bGluazpocmVmPSIjZ2x5cGgtNC05Ii8+JiN4YTsgICAgPHVzZSBpZD0idXNlOTY5IiB5PSI2MzMuNzQ1IiB4PSI1MjQuMjYwMzEyIiB4bGluazpocmVmPSIjZ2x5cGgtNC0xMCIvPiYjeGE7ICAgIDx1c2UgaWQ9InVzZTk3MSIgeT0iNjMzLjc0NSIgeD0iNTM0LjQ5NDMxMiIgeGxpbms6aHJlZj0iI2dseXBoLTQtNCIvPiYjeGE7ICAgIDx1c2UgaWQ9InVzZTk3MyIgeT0iNjMzLjc0NSIgeD0iNTQ0LjcyODMxMiIgeGxpbms6aHJlZj0iI2dseXBoLTQtMTEiLz4mI3hhOyAgICA8dXNlIGlkPSJ1c2U5NzUiIHk9IjYzMy43NDUiIHg9IjU1NC45NjIzMTIiIHhsaW5rOmhyZWY9IiNnbHlwaC00LTMiLz4mI3hhOyAgICA8dXNlIGlkPSJ1c2U5NzciIHk9IjYzMy43NDUiIHg9IjU2NS4xOTYzMTIiIHhsaW5rOmhyZWY9IiNnbHlwaC00LTMiLz4mI3hhOyAgPC9nPiYjeGE7ICA8cGF0aCBpZD0icGF0aDk4MSIgdHJhbnNmb3JtPSJtYXRyaXgoMSwgMCwgMCwgLTEsIDAsIDc4OS42NjY4NzUpIiBkPSJNIDM4MS4zMjAzMTIgMTI1LjM1NDM3NSBMIDQwMS4zMjAzMTIgMTI1LjM1NDM3NSBMIDQwMS4zMjAzMTIgMTQ1LjM1NDM3NSBMIDM4MS4zMjAzMTIgMTQ1LjM1NDM3NSBaIE0gMzgxLjMyMDMxMiAxMjUuMzU0Mzc1IiBzdHJva2UtbWl0ZXJsaW1pdD0iMTAiIHN0cm9rZS1vcGFjaXR5PSIxIiBzdHJva2U9InJnYig1MC4xOTUzMTIlLCAwJSwgMTQuOTAxNzMzJSkiIHN0cm9rZS1saW5lam9pbj0icm91bmQiIHN0cm9rZS1saW5lY2FwPSJidXR0IiBzdHJva2Utd2lkdGg9IjEiIGZpbGwtb3BhY2l0eT0iMSIgZmlsbD0icmdiKDUwLjE5NTMxMiUsIDAlLCAxNC45MDE3MzMlKSIgZmlsbC1ydWxlPSJub256ZXJvIi8+JiN4YTsgIDxnIGlkPSJnMTAxMyIgZmlsbC1vcGFjaXR5PSIxIiBmaWxsPSJyZ2IoMCUsIDAlLCAwJSkiPiYjeGE7ICAgIDx1c2UgaWQ9InVzZTk4MyIgeT0iNjU4Ljc3NjI1IiB4PSI0MjEuOTIwMzEyIiB4bGluazpocmVmPSIjZ2x5cGgtNC0xNCIvPiYjeGE7ICAgIDx1c2UgaWQ9InVzZTk4NSIgeT0iNjU4Ljc3NjI1IiB4PSI0MzIuMTU0MzEyIiB4bGluazpocmVmPSIjZ2x5cGgtNC0xNiIvPiYjeGE7ICAgIDx1c2UgaWQ9InVzZTk4NyIgeT0iNjU4Ljc3NjI1IiB4PSI0NDIuMzg4MzEyIiB4bGluazpocmVmPSIjZ2x5cGgtNC0xNyIvPiYjeGE7ICAgIDx1c2UgaWQ9InVzZTk4OSIgeT0iNjU4Ljc3NjI1IiB4PSI0NTIuNjIyMzEyIiB4bGluazpocmVmPSIjZ2x5cGgtNC01Ii8+JiN4YTsgICAgPHVzZSBpZD0idXNlOTkxIiB5PSI2NTguNzc2MjUiIHg9IjQ2Mi44NTYzMTIiIHhsaW5rOmhyZWY9IiNnbHlwaC00LTE4Ii8+JiN4YTsgICAgPHVzZSBpZD0idXNlOTkzIiB5PSI2NTguNzc2MjUiIHg9IjQ3My4wOTAzMTIiIHhsaW5rOmhyZWY9IiNnbHlwaC00LTE0Ii8+JiN4YTsgICAgPHVzZSBpZD0idXNlOTk1IiB5PSI2NTguNzc2MjUiIHg9IjQ4My4zMjQzMTIiIHhsaW5rOmhyZWY9IiNnbHlwaC00LTMiLz4mI3hhOyAgICA8dXNlIGlkPSJ1c2U5OTciIHk9IjY1OC43NzYyNSIgeD0iNDkzLjU1ODMxMiIgeGxpbms6aHJlZj0iI2dseXBoLTQtMyIvPiYjeGE7ICAgIDx1c2UgaWQ9InVzZTEwMDEiIHk9IjY1OC43NzYyNSIgeD0iNTE0LjAyNjMxMiIgeGxpbms6aHJlZj0iI2dseXBoLTQtOSIvPiYjeGE7ICAgIDx1c2UgaWQ9InVzZTEwMDMiIHk9IjY1OC43NzYyNSIgeD0iNTI0LjI2MDMxMiIgeGxpbms6aHJlZj0iI2dseXBoLTQtMTAiLz4mI3hhOyAgICA8dXNlIGlkPSJ1c2UxMDA1IiB5PSI2NTguNzc2MjUiIHg9IjUzNC40OTQzMTIiIHhsaW5rOmhyZWY9IiNnbHlwaC00LTEyIi8+JiN4YTsgICAgPHVzZSBpZD0idXNlMTAwNyIgeT0iNjU4Ljc3NjI1IiB4PSI1NDQuNzI4MzEyIiB4bGluazpocmVmPSIjZ2x5cGgtNC04Ii8+JiN4YTsgICAgPHVzZSBpZD0idXNlMTAwOSIgeT0iNjU4Ljc3NjI1IiB4PSI1NTQuOTYyMzEyIiB4bGluazpocmVmPSIjZ2x5cGgtNC0zIi8+JiN4YTsgICAgPHVzZSBpZD0idXNlMTAxMSIgeT0iNjU4Ljc3NjI1IiB4PSI1NjUuMTk2MzEyIiB4bGluazpocmVmPSIjZ2x5cGgtNC0zIi8+JiN4YTsgIDwvZz4mI3hhOyAgPHBhdGggaWQ9InBhdGgxMDE1IiB0cmFuc2Zvcm09Im1hdHJpeCgxLCAwLCAwLCAtMSwgMCwgNzg5LjY2Njg3NSkiIGQ9Ik0gMzkxLjMyMDMxMiAxMjAuMzIzMTI1IEwgMzgxLjgwODU5NCAxMTMuNDEyOTY5IEwgMzg1LjQ0MTQwNiAxMDIuMjMzMjgxIEwgMzk3LjE5OTIxOSAxMDIuMjMzMjgxIEwgNDAwLjgzMjAzMSAxMTMuNDEyOTY5IFogTSAzOTEuMzIwMzEyIDEyMC4zMjMxMjUiIHN0cm9rZS1taXRlcmxpbWl0PSIxMCIgc3Ryb2tlLW9wYWNpdHk9IjEiIHN0cm9rZT0icmdiKDk1LjU1NTExNSUsIDIzLjc4OTk3OCUsIDE0LjYzOTI4MiUpIiBzdHJva2UtbGluZWpvaW49InJvdW5kIiBzdHJva2UtbGluZWNhcD0iYnV0dCIgc3Ryb2tlLXdpZHRoPSIxIiBmaWxsLW9wYWNpdHk9IjEiIGZpbGw9InJnYig5NS41NTUxMTUlLCAyMy43ODk5NzglLCAxNC42MzkyODIlKSIgZmlsbC1ydWxlPSJub256ZXJvIi8+JiN4YTsgIDxnIGlkPSJnMTA0NyIgZmlsbC1vcGFjaXR5PSIxIiBmaWxsPSJyZ2IoMCUsIDAlLCAwJSkiPiYjeGE7ICAgIDx1c2UgaWQ9InVzZTEwMTciIHk9IjY4My44MDc1IiB4PSI0MjEuOTIwMzEyIiB4bGluazpocmVmPSIjZ2x5cGgtNC0xNSIvPiYjeGE7ICAgIDx1c2UgaWQ9InVzZTEwMTkiIHk9IjY4My44MDc1IiB4PSI0MzIuMTU0MzEyIiB4bGluazpocmVmPSIjZ2x5cGgtNC0xIi8+JiN4YTsgICAgPHVzZSBpZD0idXNlMTAyMSIgeT0iNjgzLjgwNzUiIHg9IjQ0Mi4zODgzMTIiIHhsaW5rOmhyZWY9IiNnbHlwaC00LTE5Ii8+JiN4YTsgICAgPHVzZSBpZD0idXNlMTAyMyIgeT0iNjgzLjgwNzUiIHg9IjQ1Mi42MjIzMTIiIHhsaW5rOmhyZWY9IiNnbHlwaC00LTIwIi8+JiN4YTsgICAgPHVzZSBpZD0idXNlMTAyNSIgeT0iNjgzLjgwNzUiIHg9IjQ2Mi44NTYzMTIiIHhsaW5rOmhyZWY9IiNnbHlwaC00LTE2Ii8+JiN4YTsgICAgPHVzZSBpZD0idXNlMTAyNyIgeT0iNjgzLjgwNzUiIHg9IjQ3My4wOTAzMTIiIHhsaW5rOmhyZWY9IiNnbHlwaC00LTMiLz4mI3hhOyAgICA8dXNlIGlkPSJ1c2UxMDI5IiB5PSI2ODMuODA3NSIgeD0iNDgzLjMyNDMxMiIgeGxpbms6aHJlZj0iI2dseXBoLTQtMyIvPiYjeGE7ICAgIDx1c2UgaWQ9InVzZTEwMzEiIHk9IjY4My44MDc1IiB4PSI0OTMuNTU4MzEyIiB4bGluazpocmVmPSIjZ2x5cGgtNC0zIi8+JiN4YTsgICAgPHVzZSBpZD0idXNlMTAzNSIgeT0iNjgzLjgwNzUiIHg9IjUxNC4wMjYzMTIiIHhsaW5rOmhyZWY9IiNnbHlwaC00LTkiLz4mI3hhOyAgICA8dXNlIGlkPSJ1c2UxMDM3IiB5PSI2ODMuODA3NSIgeD0iNTI0LjI2MDMxMiIgeGxpbms6aHJlZj0iI2dseXBoLTQtMTAiLz4mI3hhOyAgICA8dXNlIGlkPSJ1c2UxMDM5IiB5PSI2ODMuODA3NSIgeD0iNTM0LjQ5NDMxMiIgeGxpbms6aHJlZj0iI2dseXBoLTQtNCIvPiYjeGE7ICAgIDx1c2UgaWQ9InVzZTEwNDEiIHk9IjY4My44MDc1IiB4PSI1NDQuNzI4MzEyIiB4bGluazpocmVmPSIjZ2x5cGgtNC0xMSIvPiYjeGE7ICAgIDx1c2UgaWQ9InVzZTEwNDMiIHk9IjY4My44MDc1IiB4PSI1NTQuOTYyMzEyIiB4bGluazpocmVmPSIjZ2x5cGgtNC0zIi8+JiN4YTsgICAgPHVzZSBpZD0idXNlMTA0NSIgeT0iNjgzLjgwNzUiIHg9IjU2NS4xOTYzMTIiIHhsaW5rOmhyZWY9IiNnbHlwaC00LTMiLz4mI3hhOyAgPC9nPiYjeGE7ICA8cGF0aCBpZD0icGF0aDEwNDkiIHRyYW5zZm9ybT0ibWF0cml4KDEsIDAsIDAsIC0xLCAwLCA3ODkuNjY2ODc1KSIgZD0iTSAzOTEuMzIwMzEyIDk1LjE2Njg3NSBMIDM4MS44MDg1OTQgODguMjU2NzE5IEwgMzg1LjQ0MTQwNiA3Ny4wNzcwMzEgTCAzOTcuMTk5MjE5IDc3LjA3NzAzMSBMIDQwMC44MzIwMzEgODguMjU2NzE5IFogTSAzOTEuMzIwMzEyIDk1LjE2Njg3NSIgc3Ryb2tlLW1pdGVybGltaXQ9IjEwIiBzdHJva2Utb3BhY2l0eT0iMSIgc3Ryb2tlPSJyZ2IoNTAuMTk1MzEyJSwgMCUsIDE0LjkwMTczMyUpIiBzdHJva2UtbGluZWpvaW49InJvdW5kIiBzdHJva2UtbGluZWNhcD0iYnV0dCIgc3Ryb2tlLXdpZHRoPSIxIiBmaWxsLW9wYWNpdHk9IjEiIGZpbGw9InJnYig1MC4xOTUzMTIlLCAwJSwgMTQuOTAxNzMzJSkiIGZpbGwtcnVsZT0ibm9uemVybyIvPiYjeGE7ICA8ZyBpZD0iZzEwODEiIGZpbGwtb3BhY2l0eT0iMSIgZmlsbD0icmdiKDAlLCAwJSwgMCUpIj4mI3hhOyAgICA8dXNlIGlkPSJ1c2UxMDUxIiB5PSI3MDguOTYzNzUiIHg9IjQyMS45MjAzMTIiIHhsaW5rOmhyZWY9IiNnbHlwaC00LTE1Ii8+JiN4YTsgICAgPHVzZSBpZD0idXNlMTA1MyIgeT0iNzA4Ljk2Mzc1IiB4PSI0MzIuMTU0MzEyIiB4bGluazpocmVmPSIjZ2x5cGgtNC0xIi8+JiN4YTsgICAgPHVzZSBpZD0idXNlMTA1NSIgeT0iNzA4Ljk2Mzc1IiB4PSI0NDIuMzg4MzEyIiB4bGluazpocmVmPSIjZ2x5cGgtNC0xOSIvPiYjeGE7ICAgIDx1c2UgaWQ9InVzZTEwNTciIHk9IjcwOC45NjM3NSIgeD0iNDUyLjYyMjMxMiIgeGxpbms6aHJlZj0iI2dseXBoLTQtMjAiLz4mI3hhOyAgICA8dXNlIGlkPSJ1c2UxMDU5IiB5PSI3MDguOTYzNzUiIHg9IjQ2Mi44NTYzMTIiIHhsaW5rOmhyZWY9IiNnbHlwaC00LTE2Ii8+JiN4YTsgICAgPHVzZSBpZD0idXNlMTA2MSIgeT0iNzA4Ljk2Mzc1IiB4PSI0NzMuMDkwMzEyIiB4bGluazpocmVmPSIjZ2x5cGgtNC0zIi8+JiN4YTsgICAgPHVzZSBpZD0idXNlMTA2MyIgeT0iNzA4Ljk2Mzc1IiB4PSI0ODMuMzI0MzEyIiB4bGluazpocmVmPSIjZ2x5cGgtNC0zIi8+JiN4YTsgICAgPHVzZSBpZD0idXNlMTA2NSIgeT0iNzA4Ljk2Mzc1IiB4PSI0OTMuNTU4MzEyIiB4bGluazpocmVmPSIjZ2x5cGgtNC0zIi8+JiN4YTsgICAgPHVzZSBpZD0idXNlMTA2OSIgeT0iNzA4Ljk2Mzc1IiB4PSI1MTQuMDI2MzEyIiB4bGluazpocmVmPSIjZ2x5cGgtNC05Ii8+JiN4YTsgICAgPHVzZSBpZD0idXNlMTA3MSIgeT0iNzA4Ljk2Mzc1IiB4PSI1MjQuMjYwMzEyIiB4bGluazpocmVmPSIjZ2x5cGgtNC0xMCIvPiYjeGE7ICAgIDx1c2UgaWQ9InVzZTEwNzMiIHk9IjcwOC45NjM3NSIgeD0iNTM0LjQ5NDMxMiIgeGxpbms6aHJlZj0iI2dseXBoLTQtMTIiLz4mI3hhOyAgICA8dXNlIGlkPSJ1c2UxMDc1IiB5PSI3MDguOTYzNzUiIHg9IjU0NC43MjgzMTIiIHhsaW5rOmhyZWY9IiNnbHlwaC00LTgiLz4mI3hhOyAgICA8dXNlIGlkPSJ1c2UxMDc3IiB5PSI3MDguOTYzNzUiIHg9IjU1NC45NjIzMTIiIHhsaW5rOmhyZWY9IiNnbHlwaC00LTMiLz4mI3hhOyAgICA8dXNlIGlkPSJ1c2UxMDc5IiB5PSI3MDguOTYzNzUiIHg9IjU2NS4xOTYzMTIiIHhsaW5rOmhyZWY9IiNnbHlwaC00LTMiLz4mI3hhOyAgPC9nPiYjeGE7PC9zdmc+;" parent="1" vertex="1">
          <mxGeometry x="770" y="110" width="873" height="790" as="geometry" />
        </mxCell>
        <mxCell id="GLML2bX4jH7Xvej46Ww--2" value="" style="endArrow=classic;html=1;rounded=0;endSize=16;startSize=16;endFill=1;dashed=1;dashPattern=8 8;jumpSize=6;strokeWidth=3;strokeColor=#808080;" parent="1" edge="1">
          <mxGeometry width="50" height="50" relative="1" as="geometry">
            <mxPoint x="1036" y="150" as="sourcePoint" />
            <mxPoint x="1175" y="150" as="targetPoint" />
          </mxGeometry>
        </mxCell>
        <mxCell id="GLML2bX4jH7Xvej46Ww--3" value="" style="endArrow=classic;html=1;rounded=0;endSize=16;startSize=16;endFill=1;dashed=1;dashPattern=8 8;jumpSize=6;strokeWidth=3;strokeColor=#808080;" parent="1" edge="1">
          <mxGeometry width="50" height="50" relative="1" as="geometry">
            <mxPoint x="1208" y="152" as="sourcePoint" />
            <mxPoint x="1444" y="265" as="targetPoint" />
          </mxGeometry>
        </mxCell>
        <mxCell id="GLML2bX4jH7Xvej46Ww--5" value="" style="endArrow=classic;html=1;rounded=0;endSize=16;startSize=16;endFill=1;dashed=1;dashPattern=8 8;jumpSize=6;strokeWidth=3;strokeColor=#808080;" parent="1" edge="1">
          <mxGeometry width="50" height="50" relative="1" as="geometry">
            <mxPoint x="908" y="626" as="sourcePoint" />
            <mxPoint x="1047" y="626" as="targetPoint" />
          </mxGeometry>
        </mxCell>
        <mxCell id="GLML2bX4jH7Xvej46Ww--6" value="" style="endArrow=classic;html=1;rounded=0;endSize=16;startSize=16;endFill=1;dashed=1;dashPattern=8 8;jumpSize=6;strokeWidth=3;strokeColor=#808080;" parent="1" edge="1">
          <mxGeometry width="50" height="50" relative="1" as="geometry">
            <mxPoint x="1251" y="508" as="sourcePoint" />
            <mxPoint x="1344" y="508" as="targetPoint" />
          </mxGeometry>
        </mxCell>
        <mxCell id="GLML2bX4jH7Xvej46Ww--7" value="" style="endArrow=classic;html=1;rounded=0;endSize=16;startSize=16;endFill=1;dashed=1;dashPattern=8 8;jumpSize=6;strokeWidth=3;strokeColor=#808080;" parent="1" edge="1">
          <mxGeometry width="50" height="50" relative="1" as="geometry">
            <mxPoint x="1378" y="508" as="sourcePoint" />
            <mxPoint x="1586" y="562" as="targetPoint" />
          </mxGeometry>
        </mxCell>
        <mxCell id="GLML2bX4jH7Xvej46Ww--8" value="" style="endArrow=classic;html=1;rounded=0;endSize=16;startSize=16;endFill=1;dashed=1;dashPattern=8 8;jumpSize=6;strokeWidth=3;strokeColor=#808080;" parent="1" edge="1">
          <mxGeometry width="50" height="50" relative="1" as="geometry">
            <mxPoint x="975" y="805" as="sourcePoint" />
            <mxPoint x="1090" y="805" as="targetPoint" />
          </mxGeometry>
        </mxCell>
        <mxCell id="laaQjbmQhp61hDoVbtKr-3" value="" style="shape=image;verticalLabelPosition=bottom;labelBackgroundColor=default;verticalAlign=top;aspect=fixed;imageAspect=0;editableCssRules=.*;image=data:image/svg+xml,PHN2ZyB4bWxucz0iaHR0cDovL3d3dy53My5vcmcvMjAwMC9zdmciIHhtbDpzcGFjZT0icHJlc2VydmUiIHZpZXdCb3g9IjIuNTMyNDM0MDgyMDMxMjUgOS4yMDc5NDA2NzM4MjgxMjUgOTI4LjYxNzYyNjk1MzEyNSA0NDMuOTc3MDAxOTUzMTI1IiB2ZXJzaW9uPSIxLjEiIGhlaWdodD0iNDQzLjk3NzAwMTk1MzEyNSIgd2lkdGg9IjkyOC42MTc2MjY5NTMxMjUiPjxkZWZzPjxjbGlwUGF0aCBpZD0iY2xpcFBhdGgyMCI+PHBhdGggZD0ibTg0LjI3OCA2MS43NDdoNjEzLjh2Mjc3LjJoLTYxMy44eiIvPjwvY2xpcFBhdGg+PGNsaXBQYXRoIGlkPSJjbGlwUGF0aDMwIj48cGF0aCBkPSJtODQuMjc4IDYxLjc0N2g2MTMuOHYyNzcuMmgtNjEzLjh6Ii8+PC9jbGlwUGF0aD48Y2xpcFBhdGggaWQ9ImNsaXBQYXRoNDAiPjxwYXRoIGQ9Im04NC4yNzggNjEuNzQ3aDYxMy44djI3Ny4yaC02MTMuOHoiLz48L2NsaXBQYXRoPjxjbGlwUGF0aCBpZD0iY2xpcFBhdGg1MCI+PHBhdGggZD0ibTg0LjI3OCA2MS43NDdoNjEzLjh2Mjc3LjJoLTYxMy44eiIvPjwvY2xpcFBhdGg+PGNsaXBQYXRoIGlkPSJjbGlwUGF0aDYwIj48cGF0aCBkPSJtODQuMjc4IDYxLjc0N2g2MTMuOHYyNzcuMmgtNjEzLjh6Ii8+PC9jbGlwUGF0aD48Y2xpcFBhdGggaWQ9ImNsaXBQYXRoNzAiPjxwYXRoIGQ9Im04NC4yNzggNjEuNzQ3aDYxMy44djI3Ny4yaC02MTMuOHoiLz48L2NsaXBQYXRoPjxjbGlwUGF0aCBpZD0iY2xpcFBhdGg4MCI+PHBhdGggZD0ibTg0LjI3OCA2MS43NDdoNjEzLjh2Mjc3LjJoLTYxMy44eiIvPjwvY2xpcFBhdGg+PGNsaXBQYXRoIGlkPSJjbGlwUGF0aDkwIj48cGF0aCBkPSJtODQuMjc4IDYxLjc0N2g2MTMuOHYyNzcuMmgtNjEzLjh6Ii8+PC9jbGlwUGF0aD48Y2xpcFBhdGggaWQ9ImNsaXBQYXRoMTAwIj48cGF0aCBkPSJtODQuMjc4IDYxLjc0N2g2MTMuOHYyNzcuMmgtNjEzLjh6Ii8+PC9jbGlwUGF0aD48Y2xpcFBhdGggaWQ9ImNsaXBQYXRoMTEwIj48cGF0aCBkPSJtODQuMjc4IDYxLjc0N2g2MTMuOHYyNzcuMmgtNjEzLjh6Ii8+PC9jbGlwUGF0aD48Y2xpcFBhdGggaWQ9ImNsaXBQYXRoMTIwIj48cGF0aCBkPSJtODQuMjc4IDYxLjc0N2g2MTMuOHYyNzcuMmgtNjEzLjh6Ii8+PC9jbGlwUGF0aD48Y2xpcFBhdGggaWQ9ImNsaXBQYXRoMTQwIj48cGF0aCBkPSJtODQuMjc4IDYxLjc0N2g2MTMuOHYyNzcuMmgtNjEzLjh6Ii8+PC9jbGlwUGF0aD48Y2xpcFBhdGggaWQ9ImNsaXBQYXRoMTYwIj48cGF0aCBkPSJtODQuMjc4IDYxLjc0N2g2MTMuOHYyNzcuMmgtNjEzLjh6Ii8+PC9jbGlwUGF0aD48Y2xpcFBhdGggaWQ9ImNsaXBQYXRoMTgwIj48cGF0aCBkPSJtODQuMjc4IDYxLjc0N2g2MTMuOHYyNzcuMmgtNjEzLjh6Ii8+PC9jbGlwUGF0aD48Y2xpcFBhdGggaWQ9ImNsaXBQYXRoMjAwIj48cGF0aCBkPSJtODQuMjc4IDYxLjc0N2g2MTMuOHYyNzcuMmgtNjEzLjh6Ii8+PC9jbGlwUGF0aD48Y2xpcFBhdGggaWQ9ImNsaXBQYXRoMjIwIj48cGF0aCBkPSJtODQuMjc4IDYxLjc0N2g2MTMuOHYyNzcuMmgtNjEzLjh6Ii8+PC9jbGlwUGF0aD48Y2xpcFBhdGggaWQ9ImNsaXBQYXRoMjQ4Ij48cGF0aCBkPSJtLTEwMjEtNDYzaDI4MTV2MTY5NmgtMjgxNXoiLz48L2NsaXBQYXRoPjxjbGlwUGF0aCBpZD0iY2xpcFBhdGgyNjAiPjxwYXRoIGQ9Im0tMTAyMS00NjNoMjgxNXYxNjk2aC0yODE1eiIvPjwvY2xpcFBhdGg+PGNsaXBQYXRoIGlkPSJjbGlwUGF0aDI3MCI+PHBhdGggZD0ibTg0LjI3OCA2MS43NDdoNjEzLjh2Mjc3LjJoLTYxMy44eiIvPjwvY2xpcFBhdGg+PGNsaXBQYXRoIGlkPSJjbGlwUGF0aDI5MCI+PHBhdGggZD0ibTg0LjI3OCA2MS43NDdoNjEzLjh2Mjc3LjJoLTYxMy44eiIvPjwvY2xpcFBhdGg+PGNsaXBQYXRoIGlkPSJjbGlwUGF0aDMxMCI+PHBhdGggZD0ibTg0LjI3OCA2MS43NDdoNjEzLjh2Mjc3LjJoLTYxMy44eiIvPjwvY2xpcFBhdGg+PGNsaXBQYXRoIGlkPSJjbGlwUGF0aDMzMCI+PHBhdGggZD0ibTg0LjI3OCA2MS43NDdoNjEzLjh2Mjc3LjJoLTYxMy44eiIvPjwvY2xpcFBhdGg+PGNsaXBQYXRoIGlkPSJjbGlwUGF0aDM1MCI+PHBhdGggZD0ibTg0LjI3OCA2MS43NDdoNjEzLjh2Mjc3LjJoLTYxMy44eiIvPjwvY2xpcFBhdGg+PGNsaXBQYXRoIGlkPSJjbGlwUGF0aDM3MCI+PHBhdGggZD0ibTg0LjI3OCA2MS43NDdoNjEzLjh2Mjc3LjJoLTYxMy44eiIvPjwvY2xpcFBhdGg+PGNsaXBQYXRoIGlkPSJjbGlwUGF0aDM5OCI+PHBhdGggZD0ibS0xMDIxLTQ2M2gyODE1djE2OTZoLTI4MTV6Ii8+PC9jbGlwUGF0aD48Y2xpcFBhdGggaWQ9ImNsaXBQYXRoNDEwIj48cGF0aCBkPSJtLTEwMjEtNDYzaDI4MTV2MTY5NmgtMjgxNXoiLz48L2NsaXBQYXRoPjwvZGVmcz48ZyB0cmFuc2Zvcm09Im1hdHJpeCgxLjMzMzMgMCAwIC0xLjMzMzMgMCA0NjEuNTMpIj48cGF0aCBmaWxsPSIjZmZmIiBkPSJtODQuMjc4IDYxLjc0N2g2MTMuOHYyNzcuMmgtNjEzLjh6Ii8+PGcgY2xpcC1wYXRoPSJ1cmwoI2NsaXBQYXRoMjApIj48cGF0aCBzdHJva2UtbWl0ZXJsaW1pdD0iMTAiIHN0cm9rZS1saW5lam9pbj0icm91bmQiIHN0cm9rZT0iI2ZlYmY1YSIgZmlsbD0iI2ZlYmY1YSIgZD0ibTY3MC4xOCAxNTUuOThjMi42NTIgMCA1LjE5NTggMS4wNTM3IDcuMDcxMSAyLjkyODlzMi45Mjg5IDQuNDE5IDIuOTI4OSA3LjA3MTEtMS4wNTM3IDUuMTk1OC0yLjkyODkgNy4wNzExLTQuNDE5IDIuOTI4OS03LjA3MTEgMi45Mjg5Yy0yLjY1MiAwLTUuMTk1OC0xLjA1MzctNy4wNzExLTIuOTI4OXMtMi45Mjg5LTQuNDE5LTIuOTI4OS03LjA3MTEgMS4wNTM3LTUuMTk1OCAyLjkyODktNy4wNzExIDQuNDE5LTIuOTI4OSA3LjA3MTEtMi45Mjg5eiIvPjwvZz48ZyBjbGlwLXBhdGg9InVybCgjY2xpcFBhdGgzMCkiPjxwYXRoIHN0cm9rZS1taXRlcmxpbWl0PSIxMCIgc3Ryb2tlLWxpbmVqb2luPSJyb3VuZCIgc3Ryb2tlPSIjZjQzZDI1IiBmaWxsPSIjZjQzZDI1IiBkPSJtNDgxLjMyIDE3OC44OWMyLjY1MiAwIDUuMTk1OCAxLjA1MzcgNy4wNzExIDIuOTI4OXMyLjkyODkgNC40MTkgMi45Mjg5IDcuMDcxMS0xLjA1MzcgNS4xOTU4LTIuOTI4OSA3LjA3MTEtNC40MTkgMi45Mjg5LTcuMDcxMSAyLjkyODktNS4xOTU4LTEuMDUzNy03LjA3MTEtMi45Mjg5LTIuOTI4OS00LjQxOS0yLjkyODktNy4wNzExIDEuMDUzNy01LjE5NTggMi45Mjg5LTcuMDcxMSA0LjQxOS0yLjkyODkgNy4wNzExLTIuOTI4OXoiLz48L2c+PGcgY2xpcC1wYXRoPSJ1cmwoI2NsaXBQYXRoNDApIj48cGF0aCBzdHJva2UtbWl0ZXJsaW1pdD0iMTAiIHN0cm9rZS1saW5lam9pbj0icm91bmQiIHN0cm9rZT0iIzgwMDAyNiIgZmlsbD0iIzgwMDAyNiIgZD0ibTM4Mi41OSAxNzguODljMi42NTIgMCA1LjE5NTggMS4wNTM3IDcuMDcxMSAyLjkyODlzMi45Mjg5IDQuNDE5IDIuOTI4OSA3LjA3MTEtMS4wNTM3IDUuMTk1OC0yLjkyODkgNy4wNzExLTQuNDE5IDIuOTI4OS03LjA3MTEgMi45Mjg5LTUuMTk1OC0xLjA1MzctNy4wNzExLTIuOTI4OS0yLjkyODktNC40MTktMi45Mjg5LTcuMDcxMSAxLjA1MzctNS4xOTU4IDIuOTI4OS03LjA3MTEgNC40MTktMi45Mjg5IDcuMDcxMS0yLjkyODl6Ii8+PC9nPjxnIGNsaXAtcGF0aD0idXJsKCNjbGlwUGF0aDUwKSI+PHBhdGggc3Ryb2tlLW1pdGVybGltaXQ9IjEwIiBzdHJva2UtbGluZWpvaW49InJvdW5kIiBzdHJva2U9IiNmZWJmNWEiIGZpbGw9IiNmZWJmNWEiIGQ9Im01NTYuNDMgMjcwLjUzYzIuNjUyIDAgNS4xOTU4IDEuMDUzNyA3LjA3MTEgMi45Mjg5IDEuODc1MyAxLjg3NTMgMi45Mjg5IDQuNDE5IDIuOTI4OSA3LjA3MTFzLTEuMDUzNyA1LjE5NTgtMi45Mjg5IDcuMDcxMS00LjQxOSAyLjkyODktNy4wNzExIDIuOTI4OS01LjE5NTgtMS4wNTM3LTcuMDcxMS0yLjkyODktMi45Mjg5LTQuNDE5LTIuOTI4OS03LjA3MTEgMS4wNTM3LTUuMTk1OCAyLjkyODktNy4wNzExYzEuODc1My0xLjg3NTMgNC40MTktMi45Mjg5IDcuMDcxMS0yLjkyODl6Ii8+PC9nPjxnIGNsaXAtcGF0aD0idXJsKCNjbGlwUGF0aDYwKSI+PHBhdGggc3Ryb2tlLW1pdGVybGltaXQ9IjEwIiBzdHJva2UtbGluZWpvaW49InJvdW5kIiBzdHJva2U9IiNmNDNkMjUiIGZpbGw9IiNmNDNkMjUiIGQ9Im0zNDguMjYgMzE2LjM1YzIuNjUyIDAgNS4xOTU4IDEuMDUzNyA3LjA3MTEgMi45Mjg5IDEuODc1MyAxLjg3NTMgMi45Mjg5IDQuNDE5IDIuOTI4OSA3LjA3MTEgMCAyLjY1Mi0xLjA1MzcgNS4xOTU4LTIuOTI4OSA3LjA3MTEtMS44NzUzIDEuODc1My00LjQxOSAyLjkyODktNy4wNzExIDIuOTI4OXMtNS4xOTU4LTEuMDUzNy03LjA3MTEtMi45Mjg5LTIuOTI4OS00LjQxOS0yLjkyODktNy4wNzExYzAtMi42NTIgMS4wNTM3LTUuMTk1OCAyLjkyODktNy4wNzExczQuNDE5LTIuOTI4OSA3LjA3MTEtMi45Mjg5eiIvPjwvZz48ZyBjbGlwLXBhdGg9InVybCgjY2xpcFBhdGg3MCkiPjxwYXRoIHN0cm9rZS1taXRlcmxpbWl0PSIxMCIgc3Ryb2tlLWxpbmVqb2luPSJyb3VuZCIgc3Ryb2tlPSIjODAwMDI2IiBmaWxsPSIjODAwMDI2IiBkPSJtMjEzLjA1IDMxNi4zNWMyLjY1MiAwIDUuMTk1OCAxLjA1MzcgNy4wNzExIDIuOTI4OXMyLjkyODkgNC40MTkgMi45Mjg5IDcuMDcxMWMwIDIuNjUyLTEuMDUzNyA1LjE5NTgtMi45Mjg5IDcuMDcxMXMtNC40MTkgMi45Mjg5LTcuMDcxMSAyLjkyODktNS4xOTU4LTEuMDUzNy03LjA3MTEtMi45Mjg5LTIuOTI4OS00LjQxOS0yLjkyODktNy4wNzExYzAtMi42NTIgMS4wNTM3LTUuMTk1OCAyLjkyODktNy4wNzExczQuNDE5LTIuOTI4OSA3LjA3MTEtMi45Mjg5eiIvPjwvZz48ZyBjbGlwLXBhdGg9InVybCgjY2xpcFBhdGg4MCkiPjxwYXRoIHN0cm9rZS1taXRlcmxpbWl0PSIxMCIgc3Ryb2tlLWxpbmVqb2luPSJyb3VuZCIgc3Ryb2tlPSIjZjQzZDI1IiBmaWxsPSIjZjQzZDI1IiBkPSJtMjgxLjcyIDY0LjM0N2MyLjY1MiAwIDUuMTk1OCAxLjA1MzcgNy4wNzExIDIuOTI4OXMyLjkyODkgNC40MTkgMi45Mjg5IDcuMDcxMS0xLjA1MzcgNS4xOTU4LTIuOTI4OSA3LjA3MTEtNC40MTkgMi45Mjg5LTcuMDcxMSAyLjkyODktNS4xOTU4LTEuMDUzNy03LjA3MTEtMi45Mjg5LTIuOTI4OS00LjQxOS0yLjkyODktNy4wNzExIDEuMDUzNy01LjE5NTggMi45Mjg5LTcuMDcxMSA0LjQxOS0yLjkyODkgNy4wNzExLTIuOTI4OXoiLz48L2c+PGcgY2xpcC1wYXRoPSJ1cmwoI2NsaXBQYXRoOTApIj48cGF0aCBzdHJva2UtbWl0ZXJsaW1pdD0iMTAiIHN0cm9rZS1saW5lam9pbj0icm91bmQiIHN0cm9rZT0iIzgwMDAyNiIgZmlsbD0iIzgwMDAyNiIgZD0ibTE2NS44MyA2NC4zNDdjMi42NTIgMCA1LjE5NTggMS4wNTM3IDcuMDcxMSAyLjkyODlzMi45Mjg5IDQuNDE5IDIuOTI4OSA3LjA3MTEtMS4wNTM3IDUuMTk1OC0yLjkyODkgNy4wNzExLTQuNDE5IDIuOTI4OS03LjA3MTEgMi45Mjg5LTUuMTk1OC0xLjA1MzctNy4wNzExLTIuOTI4OS0yLjkyODktNC40MTktMi45Mjg5LTcuMDcxMSAxLjA1MzctNS4xOTU4IDIuOTI4OS03LjA3MTEgNC40MTktMi45Mjg5IDcuMDcxMS0yLjkyODl6Ii8+PC9nPjxnIGNsaXAtcGF0aD0idXJsKCNjbGlwUGF0aDEwMCkiPjxwYXRoIHN0cm9rZS1taXRlcmxpbWl0PSIxMCIgc3Ryb2tlLWxpbmVqb2luPSJyb3VuZCIgc3Ryb2tlPSIjZjQzZDI1IiBmaWxsPSIjZjQzZDI1IiBkPSJtMjQ5LjUzIDEzMy4wN2MyLjY1MiAwIDUuMTk1OCAxLjA1MzcgNy4wNzExIDIuOTI4OXMyLjkyODkgNC40MTkgMi45Mjg5IDcuMDcxMS0xLjA1MzcgNS4xOTU4LTIuOTI4OSA3LjA3MTFjLTEuODc1MyAxLjg3NTMtNC40MTkgMi45Mjg5LTcuMDcxMSAyLjkyODlzLTUuMTk1OC0xLjA1MzctNy4wNzExLTIuOTI4OWMtMS44NzUzLTEuODc1My0yLjkyODktNC40MTktMi45Mjg5LTcuMDcxMXMxLjA1MzctNS4xOTU4IDIuOTI4OS03LjA3MTEgNC40MTktMi45Mjg5IDcuMDcxMS0yLjkyODl6Ii8+PC9nPjxnIGNsaXAtcGF0aD0idXJsKCNjbGlwUGF0aDExMCkiPjxwYXRoIHN0cm9rZS1taXRlcmxpbWl0PSIxMCIgc3Ryb2tlLWxpbmVqb2luPSJyb3VuZCIgc3Ryb2tlPSIjODAwMDI2IiBmaWxsPSIjODAwMDI2IiBkPSJtMTEyLjE4IDEzMy4wN2MyLjY1MiAwIDUuMTk1OCAxLjA1MzcgNy4wNzExIDIuOTI4OXMyLjkyODkgNC40MTkgMi45Mjg5IDcuMDcxMS0xLjA1MzcgNS4xOTU4LTIuOTI4OSA3LjA3MTFjLTEuODc1MyAxLjg3NTMtNC40MTkgMi45Mjg5LTcuMDcxMSAyLjkyODktMi42NTIgMC01LjE5NTgtMS4wNTM3LTcuMDcxMS0yLjkyODktMS44NzUzLTEuODc1My0yLjkyODktNC40MTktMi45Mjg5LTcuMDcxMXMxLjA1MzctNS4xOTU4IDIuOTI4OS03LjA3MTEgNC40MTktMi45Mjg5IDcuMDcxMS0yLjkyODl6Ii8+PC9nPjxnIGNsaXAtcGF0aD0idXJsKCNjbGlwUGF0aDEyMCkiPjxwYXRoIHN0cm9rZS13aWR0aD0iLjgiIHN0cm9rZS1vcGFjaXR5PSIuNyIgc3Ryb2tlLW1pdGVybGltaXQ9IjEwIiBzdHJva2UtbGluZWpvaW49InJvdW5kIiBzdHJva2UtZGFzaGFycmF5PSIyLjk2LCAxLjI4IiBzdHJva2U9IiNiMGIwYjAiIGZpbGw9Im5vbmUiIGQ9Im0xMjIuOTEgNjEuNzQ3djI3Ny4yIi8+PC9nPjxwYXRoIHN0cm9rZS13aWR0aD0iLjgiIHN0cm9rZS1taXRlcmxpbWl0PSIxMCIgc3Ryb2tlLWxpbmVqb2luPSJyb3VuZCIgc3Ryb2tlPSIjMDAwIiBkPSJtMTIyLjkxIDYxLjc0N3YtMy41Ii8+PGcgdHJhbnNmb3JtPSJ0cmFuc2xhdGUoMTA0Ljc3IDQwLjMwOSkiPjx0ZXh0IGZvbnQtc2l6ZT0iMTlweCIgZm9udC1mYW1pbHk9IidEZWphVnUgU2FucyciIGZpbGw9IiMwMDAwMDAiIHRyYW5zZm9ybT0ic2NhbGUoMSwtMSkiPjx0c3BhbiB5PSIwIiB4PSIwIDEyLjA4NCAyNC4xNjc5OTkiPjEwMDwvdHNwYW4+PC90ZXh0PjwvZz48ZyBjbGlwLXBhdGg9InVybCgjY2xpcFBhdGgxNDApIj48cGF0aCBzdHJva2Utd2lkdGg9Ii44IiBzdHJva2Utb3BhY2l0eT0iLjciIHN0cm9rZS1taXRlcmxpbWl0PSIxMCIgc3Ryb2tlLWxpbmVqb2luPSJyb3VuZCIgc3Ryb2tlLWRhc2hhcnJheT0iMi45NiwgMS4yOCIgc3Ryb2tlPSIjYjBiMGIwIiBmaWxsPSJub25lIiBkPSJtMjMwLjIyIDYxLjc0N3YyNzcuMiIvPjwvZz48cGF0aCBzdHJva2Utd2lkdGg9Ii44IiBzdHJva2UtbWl0ZXJsaW1pdD0iMTAiIHN0cm9rZS1saW5lam9pbj0icm91bmQiIHN0cm9rZT0iIzAwMCIgZD0ibTIzMC4yMiA2MS43NDd2LTMuNSIvPjxnIHRyYW5zZm9ybT0idHJhbnNsYXRlKDIxMi4wOCA0MC4zMDkpIj48dGV4dCBmb250LXNpemU9IjE5cHgiIGZvbnQtZmFtaWx5PSInRGVqYVZ1IFNhbnMnIiBmaWxsPSIjMDAwMDAwIiB0cmFuc2Zvcm09InNjYWxlKDEsLTEpIj48dHNwYW4geT0iMCIgeD0iMCAxMi4wODQgMjQuMTY3OTk5Ij4xNTA8L3RzcGFuPjwvdGV4dD48L2c+PGcgY2xpcC1wYXRoPSJ1cmwoI2NsaXBQYXRoMTYwKSI+PHBhdGggc3Ryb2tlLXdpZHRoPSIuOCIgc3Ryb2tlLW9wYWNpdHk9Ii43IiBzdHJva2UtbWl0ZXJsaW1pdD0iMTAiIHN0cm9rZS1saW5lam9pbj0icm91bmQiIHN0cm9rZS1kYXNoYXJyYXk9IjIuOTYsIDEuMjgiIHN0cm9rZT0iI2IwYjBiMCIgZmlsbD0ibm9uZSIgZD0ibTMzNy41MiA2MS43NDd2Mjc3LjIiLz48L2c+PHBhdGggc3Ryb2tlLXdpZHRoPSIuOCIgc3Ryb2tlLW1pdGVybGltaXQ9IjEwIiBzdHJva2UtbGluZWpvaW49InJvdW5kIiBzdHJva2U9IiMwMDAiIGQ9Im0zMzcuNTIgNjEuNzQ3di0zLjUiLz48ZyB0cmFuc2Zvcm09InRyYW5zbGF0ZSgzMTkuMzggNDAuMzA5KSI+PHRleHQgZm9udC1zaXplPSIxOXB4IiBmb250LWZhbWlseT0iJ0RlamFWdSBTYW5zJyIgZmlsbD0iIzAwMDAwMCIgdHJhbnNmb3JtPSJzY2FsZSgxLC0xKSI+PHRzcGFuIHk9IjAiIHg9IjAgMTIuMDg0IDI0LjE2Nzk5OSI+MjAwPC90c3Bhbj48L3RleHQ+PC9nPjxnIGNsaXAtcGF0aD0idXJsKCNjbGlwUGF0aDE4MCkiPjxwYXRoIHN0cm9rZS13aWR0aD0iLjgiIHN0cm9rZS1vcGFjaXR5PSIuNyIgc3Ryb2tlLW1pdGVybGltaXQ9IjEwIiBzdHJva2UtbGluZWpvaW49InJvdW5kIiBzdHJva2UtZGFzaGFycmF5PSIyLjk2LCAxLjI4IiBzdHJva2U9IiNiMGIwYjAiIGZpbGw9Im5vbmUiIGQ9Im00NDQuODMgNjEuNzQ3djI3Ny4yIi8+PC9nPjxwYXRoIHN0cm9rZS13aWR0aD0iLjgiIHN0cm9rZS1taXRlcmxpbWl0PSIxMCIgc3Ryb2tlLWxpbmVqb2luPSJyb3VuZCIgc3Ryb2tlPSIjMDAwIiBkPSJtNDQ0LjgzIDYxLjc0N3YtMy41Ii8+PGcgdHJhbnNmb3JtPSJ0cmFuc2xhdGUoNDI2LjY5IDQwLjMwOSkiPjx0ZXh0IGZvbnQtc2l6ZT0iMTlweCIgZm9udC1mYW1pbHk9IidEZWphVnUgU2FucyciIGZpbGw9IiMwMDAwMDAiIHRyYW5zZm9ybT0ic2NhbGUoMSwtMSkiPjx0c3BhbiB5PSIwIiB4PSIwIDEyLjA4NCAyNC4xNjc5OTkiPjI1MDwvdHNwYW4+PC90ZXh0PjwvZz48ZyBjbGlwLXBhdGg9InVybCgjY2xpcFBhdGgyMDApIj48cGF0aCBzdHJva2Utd2lkdGg9Ii44IiBzdHJva2Utb3BhY2l0eT0iLjciIHN0cm9rZS1taXRlcmxpbWl0PSIxMCIgc3Ryb2tlLWxpbmVqb2luPSJyb3VuZCIgc3Ryb2tlLWRhc2hhcnJheT0iMi45NiwgMS4yOCIgc3Ryb2tlPSIjYjBiMGIwIiBmaWxsPSJub25lIiBkPSJtNTUyLjE0IDYxLjc0N3YyNzcuMiIvPjwvZz48cGF0aCBzdHJva2Utd2lkdGg9Ii44IiBzdHJva2UtbWl0ZXJsaW1pdD0iMTAiIHN0cm9rZS1saW5lam9pbj0icm91bmQiIHN0cm9rZT0iIzAwMCIgZD0ibTU1Mi4xNCA2MS43NDd2LTMuNSIvPjxnIHRyYW5zZm9ybT0idHJhbnNsYXRlKDUzNCA0MC4zMDkpIj48dGV4dCBmb250LXNpemU9IjE5cHgiIGZvbnQtZmFtaWx5PSInRGVqYVZ1IFNhbnMnIiBmaWxsPSIjMDAwMDAwIiB0cmFuc2Zvcm09InNjYWxlKDEsLTEpIj48dHNwYW4geT0iMCIgeD0iMCAxMi4wODQgMjQuMTY3OTk5Ij4zMDA8L3RzcGFuPjwvdGV4dD48L2c+PGcgY2xpcC1wYXRoPSJ1cmwoI2NsaXBQYXRoMjIwKSI+PHBhdGggc3Ryb2tlLXdpZHRoPSIuOCIgc3Ryb2tlLW9wYWNpdHk9Ii43IiBzdHJva2UtbWl0ZXJsaW1pdD0iMTAiIHN0cm9rZS1saW5lam9pbj0icm91bmQiIHN0cm9rZS1kYXNoYXJyYXk9IjIuOTYsIDEuMjgiIHN0cm9rZT0iI2IwYjBiMCIgZmlsbD0ibm9uZSIgZD0ibTY1OS40NSA2MS43NDd2Mjc3LjIiLz48L2c+PHBhdGggc3Ryb2tlLXdpZHRoPSIuOCIgc3Ryb2tlLW1pdGVybGltaXQ9IjEwIiBzdHJva2UtbGluZWpvaW49InJvdW5kIiBzdHJva2U9IiMwMDAiIGQ9Im02NTkuNDUgNjEuNzQ3di0zLjUiLz48ZyB0cmFuc2Zvcm09InRyYW5zbGF0ZSg2NDEuMzEgNDAuMzA5KSI+PHRleHQgZm9udC1zaXplPSIxOXB4IiBmb250LWZhbWlseT0iJ0RlamFWdSBTYW5zJyIgZmlsbD0iIzAwMDAwMCIgdHJhbnNmb3JtPSJzY2FsZSgxLC0xKSI+PHRzcGFuIHk9IjAiIHg9IjAgMTIuMDg0IDI0LjE2Nzk5OSI+MzUwPC90c3Bhbj48L3RleHQ+PC9nPjxnIHRyYW5zZm9ybT0idHJhbnNsYXRlKDMyNy4xOCAxMi42MDYpIj48dGV4dCBmb250LXNpemU9IjI2cHgiIGZvbnQtZmFtaWx5PSInRGVqYVZ1IFNhbnMnIiBmaWxsPSIjMDAwMDAwIiB0cmFuc2Zvcm09Im1hdHJpeCgxIDAgMCAtMSA0MC4xODEgLjcwMzEyKSI+PHRzcGFuIHk9IjAiIHg9IjAgMTQuOTU1MDc4IDMwLjYzMzc4OSA0Ny4xMzc2OTUiPkZQUyA8L3RzcGFuPjwvdGV4dD48ZyB0cmFuc2Zvcm09Im1hdHJpeCguMDI2IDAgMCAuMDI2IDUuMDY1NCAuNzAzMTIpIj48ZyBjbGlwLXBhdGg9InVybCgjY2xpcFBhdGgyNDgpIj48cGF0aCBkPSJtNzg5IDMzNXYtNDNsLTE5Mi0xOTItNTggNTggMTEzIDExNGgtNTk1djgzaDU5NWwtMTEzIDExNCA1OCA1OHoiLz48L2c+PC9nPjxnIHRyYW5zZm9ybT0ibWF0cml4KC4wMjYgMCAwIC4wMjYgMTAwLjY1IC43MDMxMikiPjxnIGNsaXAtcGF0aD0idXJsKCNjbGlwUGF0aDI2MCkiPjxwYXRoIGQ9Im03ODkgMzM1di00M2wtMTkyLTE5Mi01OCA1OCAxMTMgMTE0aC01OTV2ODNoNTk1bC0xMTMgMTE0IDU4IDU4eiIvPjwvZz48L2c+PC9nPjxnIGNsaXAtcGF0aD0idXJsKCNjbGlwUGF0aDI3MCkiPjxwYXRoIHN0cm9rZS13aWR0aD0iLjgiIHN0cm9rZS1vcGFjaXR5PSIuNyIgc3Ryb2tlLW1pdGVybGltaXQ9IjEwIiBzdHJva2UtbGluZWpvaW49InJvdW5kIiBzdHJva2UtZGFzaGFycmF5PSIyLjk2LCAxLjI4IiBzdHJva2U9IiNiMGIwYjAiIGZpbGw9Im5vbmUiIGQ9Im04NC4yNzggMzI2LjM1aDYxMy44Ii8+PC9nPjxwYXRoIHN0cm9rZS13aWR0aD0iLjgiIHN0cm9rZS1taXRlcmxpbWl0PSIxMCIgc3Ryb2tlLWxpbmVqb2luPSJyb3VuZCIgc3Ryb2tlPSIjMDAwIiBkPSJtODQuMjc4IDMyNi4zNWgtMy41Ii8+PGcgdHJhbnNmb3JtPSJ0cmFuc2xhdGUoMzcuMiAzMTkuNTEpIj48dGV4dCBmb250LXNpemU9IjE4cHgiIGZvbnQtZmFtaWx5PSInRGVqYVZ1IFNhbnMnIiBmaWxsPSIjMDAwMDAwIiB0cmFuc2Zvcm09InNjYWxlKDEsLTEpIj48dHNwYW4geT0iMCIgeD0iMCAxMS40NDggMTcuMTcyMDAxIDI4LjYyMDAwMSI+MC41ODwvdHNwYW4+PC90ZXh0PjwvZz48ZyBjbGlwLXBhdGg9InVybCgjY2xpcFBhdGgyOTApIj48cGF0aCBzdHJva2Utd2lkdGg9Ii44IiBzdHJva2Utb3BhY2l0eT0iLjciIHN0cm9rZS1taXRlcmxpbWl0PSIxMCIgc3Ryb2tlLWxpbmVqb2luPSJyb3VuZCIgc3Ryb2tlLWRhc2hhcnJheT0iMi45NiwgMS4yOCIgc3Ryb2tlPSIjYjBiMGIwIiBmaWxsPSJub25lIiBkPSJtODQuMjc4IDI4MC41M2g2MTMuOCIvPjwvZz48cGF0aCBzdHJva2Utd2lkdGg9Ii44IiBzdHJva2UtbWl0ZXJsaW1pdD0iMTAiIHN0cm9rZS1saW5lam9pbj0icm91bmQiIHN0cm9rZT0iIzAwMCIgZD0ibTg0LjI3OCAyODAuNTNoLTMuNSIvPjxnIHRyYW5zZm9ybT0idHJhbnNsYXRlKDM3LjIgMjczLjY5KSI+PHRleHQgZm9udC1zaXplPSIxOHB4IiBmb250LWZhbWlseT0iJ0RlamFWdSBTYW5zJyIgZmlsbD0iIzAwMDAwMCIgdHJhbnNmb3JtPSJzY2FsZSgxLC0xKSI+PHRzcGFuIHk9IjAiIHg9IjAgMTEuNDQ4IDE3LjE3MjAwMSAyOC42MjAwMDEiPjAuNjA8L3RzcGFuPjwvdGV4dD48L2c+PGcgY2xpcC1wYXRoPSJ1cmwoI2NsaXBQYXRoMzEwKSI+PHBhdGggc3Ryb2tlLXdpZHRoPSIuOCIgc3Ryb2tlLW9wYWNpdHk9Ii43IiBzdHJva2UtbWl0ZXJsaW1pdD0iMTAiIHN0cm9rZS1saW5lam9pbj0icm91bmQiIHN0cm9rZS1kYXNoYXJyYXk9IjIuOTYsIDEuMjgiIHN0cm9rZT0iI2IwYjBiMCIgZmlsbD0ibm9uZSIgZD0ibTg0LjI3OCAyMzQuNzFoNjEzLjgiLz48L2c+PHBhdGggc3Ryb2tlLXdpZHRoPSIuOCIgc3Ryb2tlLW1pdGVybGltaXQ9IjEwIiBzdHJva2UtbGluZWpvaW49InJvdW5kIiBzdHJva2U9IiMwMDAiIGQ9Im04NC4yNzggMjM0LjcxaC0zLjUiLz48ZyB0cmFuc2Zvcm09InRyYW5zbGF0ZSgzNy4yIDIyNy44NykiPjx0ZXh0IGZvbnQtc2l6ZT0iMThweCIgZm9udC1mYW1pbHk9IidEZWphVnUgU2FucyciIGZpbGw9IiMwMDAwMDAiIHRyYW5zZm9ybT0ic2NhbGUoMSwtMSkiPjx0c3BhbiB5PSIwIiB4PSIwIDExLjQ0OCAxNy4xNzIwMDEgMjguNjIwMDAxIj4wLjYyPC90c3Bhbj48L3RleHQ+PC9nPjxnIGNsaXAtcGF0aD0idXJsKCNjbGlwUGF0aDMzMCkiPjxwYXRoIHN0cm9rZS13aWR0aD0iLjgiIHN0cm9rZS1vcGFjaXR5PSIuNyIgc3Ryb2tlLW1pdGVybGltaXQ9IjEwIiBzdHJva2UtbGluZWpvaW49InJvdW5kIiBzdHJva2UtZGFzaGFycmF5PSIyLjk2LCAxLjI4IiBzdHJva2U9IiNiMGIwYjAiIGZpbGw9Im5vbmUiIGQ9Im04NC4yNzggMTg4Ljg5aDYxMy44Ii8+PC9nPjxwYXRoIHN0cm9rZS13aWR0aD0iLjgiIHN0cm9rZS1taXRlcmxpbWl0PSIxMCIgc3Ryb2tlLWxpbmVqb2luPSJyb3VuZCIgc3Ryb2tlPSIjMDAwIiBkPSJtODQuMjc4IDE4OC44OWgtMy41Ii8+PGcgdHJhbnNmb3JtPSJ0cmFuc2xhdGUoMzcuMiAxODIuMDYpIj48dGV4dCBmb250LXNpemU9IjE4cHgiIGZvbnQtZmFtaWx5PSInRGVqYVZ1IFNhbnMnIiBmaWxsPSIjMDAwMDAwIiB0cmFuc2Zvcm09InNjYWxlKDEsLTEpIj48dHNwYW4geT0iMCIgeD0iMCAxMS40NDggMTcuMTcyMDAxIDI4LjYyMDAwMSI+MC42NDwvdHNwYW4+PC90ZXh0PjwvZz48ZyBjbGlwLXBhdGg9InVybCgjY2xpcFBhdGgzNTApIj48cGF0aCBzdHJva2Utd2lkdGg9Ii44IiBzdHJva2Utb3BhY2l0eT0iLjciIHN0cm9rZS1taXRlcmxpbWl0PSIxMCIgc3Ryb2tlLWxpbmVqb2luPSJyb3VuZCIgc3Ryb2tlLWRhc2hhcnJheT0iMi45NiwgMS4yOCIgc3Ryb2tlPSIjYjBiMGIwIiBmaWxsPSJub25lIiBkPSJtODQuMjc4IDE0My4wN2g2MTMuOCIvPjwvZz48cGF0aCBzdHJva2Utd2lkdGg9Ii44IiBzdHJva2UtbWl0ZXJsaW1pdD0iMTAiIHN0cm9rZS1saW5lam9pbj0icm91bmQiIHN0cm9rZT0iIzAwMCIgZD0ibTg0LjI3OCAxNDMuMDdoLTMuNSIvPjxnIHRyYW5zZm9ybT0idHJhbnNsYXRlKDM3LjIgMTM2LjI0KSI+PHRleHQgZm9udC1zaXplPSIxOHB4IiBmb250LWZhbWlseT0iJ0RlamFWdSBTYW5zJyIgZmlsbD0iIzAwMDAwMCIgdHJhbnNmb3JtPSJzY2FsZSgxLC0xKSI+PHRzcGFuIHk9IjAiIHg9IjAgMTEuNDQ4IDE3LjE3MjAwMSAyOC42MjAwMDEiPjAuNjY8L3RzcGFuPjwvdGV4dD48L2c+PGcgY2xpcC1wYXRoPSJ1cmwoI2NsaXBQYXRoMzcwKSI+PHBhdGggc3Ryb2tlLXdpZHRoPSIuOCIgc3Ryb2tlLW9wYWNpdHk9Ii43IiBzdHJva2UtbWl0ZXJsaW1pdD0iMTAiIHN0cm9rZS1saW5lam9pbj0icm91bmQiIHN0cm9rZS1kYXNoYXJyYXk9IjIuOTYsIDEuMjgiIHN0cm9rZT0iI2IwYjBiMCIgZmlsbD0ibm9uZSIgZD0ibTg0LjI3OCA5Ny4yNTZoNjEzLjgiLz48L2c+PHBhdGggc3Ryb2tlLXdpZHRoPSIuOCIgc3Ryb2tlLW1pdGVybGltaXQ9IjEwIiBzdHJva2UtbGluZWpvaW49InJvdW5kIiBzdHJva2U9IiMwMDAiIGQ9Im04NC4yNzggOTcuMjU2aC0zLjUiLz48ZyB0cmFuc2Zvcm09InRyYW5zbGF0ZSgzNy4yIDkwLjQyKSI+PHRleHQgZm9udC1zaXplPSIxOHB4IiBmb250LWZhbWlseT0iJ0RlamFWdSBTYW5zJyIgZmlsbD0iIzAwMDAwMCIgdHJhbnNmb3JtPSJzY2FsZSgxLC0xKSI+PHRzcGFuIHk9IjAiIHg9IjAgMTEuNDQ4IDE3LjE3MjAwMSAyOC42MjAwMDEiPjAuNjg8L3RzcGFuPjwvdGV4dD48L2c+PGcgdHJhbnNmb3JtPSJyb3RhdGUoOTAgLTI3LjgyMyA1NS4wMjMpIj48dGV4dCBmb250LXNpemU9IjI2cHgiIGZvbnQtZmFtaWx5PSInRGVqYVZ1IFNhbnMnIiBmaWxsPSIjMDAwMDAwIiB0cmFuc2Zvcm09Im1hdHJpeCgxIDAgMCAtMSA0MC4xODEgLjI1KSI+PHRzcGFuIHk9IjAiIHg9IjAgMTYuNTAzOTA2IDMzLjAwNzgxMiA0OS4wMDM5MDYgNjUgODEuNTAzOTA2IDg5Ljc2ODU1NSAxMDYuMTk2MjkgMTE2Ljg4NTc0IDEyNy41NzUyIDE0My40ODI0MiAxNTQuMTcxODgiPlNwZWVkIEVycm9yIDwvdHNwYW4+PC90ZXh0PjxnIHRyYW5zZm9ybT0ibWF0cml4KC4wMjYgMCAwIC4wMjYgNS4wNjU0IC4yNSkiPjxnIGNsaXAtcGF0aD0idXJsKCNjbGlwUGF0aDM5OCkiPjxwYXRoIGQ9Im00OSAyOTJ2NDNsMTkyIDE5MiA1OC01OC0xMTMtMTE0aDU5NXYtODNoLTU5NWwxMTMtMTE0LTU4LTU4eiIvPjwvZz48L2c+PGcgdHJhbnNmb3JtPSJtYXRyaXgoLjAyNiAwIDAgLjAyNiAyMDcuNjggLjI1KSI+PGcgY2xpcC1wYXRoPSJ1cmwoI2NsaXBQYXRoNDEwKSI+PHBhdGggZD0ibTQ5IDI5MnY0M2wxOTIgMTkyIDU4LTU4LTExMy0xMTRoNTk1di04M2gtNTk1bDExMy0xMTQtNTgtNTh6Ii8+PC9nPjwvZz48L2c+PGcgc3Ryb2tlLXdpZHRoPSIuOCIgc3Ryb2tlLW1pdGVybGltaXQ9IjEwIiBzdHJva2UtbGluZWNhcD0ic3F1YXJlIiBzdHJva2U9IiMwMDAiIGZpbGw9Im5vbmUiPjxwYXRoIGQ9Im04NC4yNzggNjEuNzQ3djI3Ny4yIi8+PHBhdGggZD0ibTY5OC4wOCA2MS43NDd2Mjc3LjIiLz48cGF0aCBkPSJtODQuMjc4IDYxLjc0N2g2MTMuOCIvPjxwYXRoIGQ9Im04NC4yNzggMzM4Ljk1aDYxMy44Ii8+PC9nPjxwYXRoIHN0cm9rZS1vcGFjaXR5PSIuOCIgc3Ryb2tlLW1pdGVybGltaXQ9IjEwIiBzdHJva2U9IiNjY2MiIGZpbGwtb3BhY2l0eT0iLjgiIGZpbGw9IiNmZmYiIGQ9Im0xMDYuOTggMjEzLjk1aDkyLjk0N2MyLjI2NjcgMCAzLjQgMS4xMzMzIDMuNCAzLjR2ODIuOTg4YzAgMi4yNjY3LTEuMTMzMyAzLjQtMy40IDMuNGgtOTIuOTQ3Yy0yLjI2NjcgMC0zLjQtMS4xMzMzLTMuNC0zLjR2LTgyLjk4OGMwLTIuMjY2NyAxLjEzMzMtMy40IDMuNC0zLjR6Ii8+PHBhdGggc3Ryb2tlLW1pdGVybGltaXQ9IjEwIiBzdHJva2UtbGluZWpvaW49InJvdW5kIiBzdHJva2U9IiNmZWJmNWEiIGZpbGw9IiNmZWJmNWEiIGQ9Im0xMjcuMzggMjczLjI4YzIuNjUyIDAgNS4xOTU4IDEuMDUzNyA3LjA3MTEgMi45Mjg5czIuOTI4OSA0LjQxOSAyLjkyODkgNy4wNzExYzAgMi42NTItMS4wNTM3IDUuMTk1OC0yLjkyODkgNy4wNzExcy00LjQxOSAyLjkyODktNy4wNzExIDIuOTI4OWMtMi42NTIgMC01LjE5NTgtMS4wNTM3LTcuMDcxMS0yLjkyODlzLTIuOTI4OS00LjQxOS0yLjkyODktNy4wNzExYzAtMi42NTIgMS4wNTM3LTUuMTk1OCAyLjkyODktNy4wNzExczQuNDE5LTIuOTI4OSA3LjA3MTEtMi45Mjg5eiIvPjxnIHRyYW5zZm9ybT0idHJhbnNsYXRlKDc2MC45OCAyOTguMzIpIj48dGV4dCBmb250LXNpemU9IjE3cHgiIGZvbnQtZmFtaWx5PSInRGVqYVZ1IFNhbnMgTW9ubyciIGZpbGw9IiMwMDAwMDAiIHk9IjE5LjUiIHg9Ii02OTkiIHRyYW5zZm9ybT0ic2NhbGUoMSwtMSkiPjx0c3BhbiB4PSItNjE3LjEyODA1IC02MDYuODk0MDQgLTU5Ni42NjAwMyAtNTg2LjQyNjAzIC01NzYuMTkyMDIiPmludDggPC90c3Bhbj48L3RleHQ+PC9nPjxwYXRoIHN0cm9rZS1taXRlcmxpbWl0PSIxMCIgc3Ryb2tlLWxpbmVqb2luPSJyb3VuZCIgc3Ryb2tlPSIjZjQzZDI1IiBmaWxsPSIjZjQzZDI1IiBkPSJtMTI3LjM4IDI0OC4yNWMyLjY1MiAwIDUuMTk1OCAxLjA1MzcgNy4wNzExIDIuOTI4OXMyLjkyODkgNC40MTkgMi45Mjg5IDcuMDcxMWMwIDIuNjUyLTEuMDUzNyA1LjE5NTgtMi45Mjg5IDcuMDcxMXMtNC40MTkgMi45Mjg5LTcuMDcxMSAyLjkyODljLTIuNjUyIDAtNS4xOTU4LTEuMDUzNy03LjA3MTEtMi45Mjg5cy0yLjkyODktNC40MTktMi45Mjg5LTcuMDcxMWMwLTIuNjUyIDEuMDUzNy01LjE5NTggMi45Mjg5LTcuMDcxMXM0LjQxOS0yLjkyODkgNy4wNzExLTIuOTI4OXoiLz48ZyB0cmFuc2Zvcm09InRyYW5zbGF0ZSg3NjAuOTggMjczLjI4KSI+PHRleHQgZm9udC1zaXplPSIxN3B4IiBmb250LWZhbWlseT0iJ0RlamFWdSBTYW5zIE1vbm8nIiBmaWxsPSIjMDAwMDAwIiB5PSIxOS41IiB4PSItNjk5IiB0cmFuc2Zvcm09InNjYWxlKDEsLTEpIj48dHNwYW4geD0iLTYxNy4xMjgwNSAtNjA2Ljg5NDA0IC01OTYuNjYwMDMgLTU4Ni40MjYwMyAtNTc2LjE5MjAyIj5mcDE2IDwvdHNwYW4+PC90ZXh0PjwvZz48cGF0aCBzdHJva2UtbWl0ZXJsaW1pdD0iMTAiIHN0cm9rZS1saW5lam9pbj0icm91bmQiIHN0cm9rZT0iIzgwMDAyNiIgZmlsbD0iIzgwMDAyNiIgZD0ibTEyNy4zOCAyMjMuMjJjMi42NTIgMCA1LjE5NTggMS4wNTM3IDcuMDcxMSAyLjkyODlzMi45Mjg5IDQuNDE5IDIuOTI4OSA3LjA3MTFjMCAyLjY1Mi0xLjA1MzcgNS4xOTU4LTIuOTI4OSA3LjA3MTFzLTQuNDE5IDIuOTI4OS03LjA3MTEgMi45Mjg5Yy0yLjY1MiAwLTUuMTk1OC0xLjA1MzctNy4wNzExLTIuOTI4OXMtMi45Mjg5LTQuNDE5LTIuOTI4OS03LjA3MTFjMC0yLjY1MiAxLjA1MzctNS4xOTU4IDIuOTI4OS03LjA3MTFzNC40MTktMi45Mjg5IDcuMDcxMS0yLjkyODl6Ii8+PGcgdHJhbnNmb3JtPSJ0cmFuc2xhdGUoNzYwLjk4IDI0OC4yNSkiPjx0ZXh0IGZvbnQtc2l6ZT0iMTdweCIgZm9udC1mYW1pbHk9IidEZWphVnUgU2FucyBNb25vJyIgZmlsbD0iIzAwMDAwMCIgeT0iMTkuNSIgeD0iLTY5OSIgdHJhbnNmb3JtPSJzY2FsZSgxLC0xKSI+PHRzcGFuIHg9Ii02MTcuMTI4MDUgLTYwNi44OTQwNCAtNTk2LjY2MDAzIC01ODYuNDI2MDMgLTU3Ni4xOTIwMiI+ZnAzMiA8L3RzcGFuPjwvdGV4dD48L2c+PC9nPjwvc3ZnPg==;" vertex="1" parent="1">
          <mxGeometry x="-280" y="120" width="929" height="444" as="geometry" />
        </mxCell>
        <mxCell id="laaQjbmQhp61hDoVbtKr-4" value="" style="endArrow=classic;html=1;rounded=0;endSize=16;startSize=16;endFill=1;dashed=1;dashPattern=8 8;jumpSize=6;strokeWidth=3;strokeColor=#808080;" edge="1" parent="1">
          <mxGeometry width="50" height="50" relative="1" as="geometry">
            <mxPoint x="22" y="137" as="sourcePoint" />
            <mxPoint x="161" y="137" as="targetPoint" />
          </mxGeometry>
        </mxCell>
        <mxCell id="laaQjbmQhp61hDoVbtKr-5" value="" style="endArrow=classic;html=1;rounded=0;endSize=16;startSize=16;endFill=1;dashed=1;dashPattern=8 8;jumpSize=6;strokeWidth=3;strokeColor=#808080;" edge="1" parent="1">
          <mxGeometry width="50" height="50" relative="1" as="geometry">
            <mxPoint x="207" y="137" as="sourcePoint" />
            <mxPoint x="440" y="193" as="targetPoint" />
          </mxGeometry>
        </mxCell>
        <mxCell id="laaQjbmQhp61hDoVbtKr-6" value="" style="endArrow=classic;html=1;rounded=0;endSize=16;startSize=16;endFill=1;dashed=1;dashPattern=8 8;jumpSize=6;strokeWidth=3;strokeColor=#808080;" edge="1" parent="1">
          <mxGeometry width="50" height="50" relative="1" as="geometry">
            <mxPoint x="247" y="320" as="sourcePoint" />
            <mxPoint x="340" y="320" as="targetPoint" />
          </mxGeometry>
        </mxCell>
        <mxCell id="laaQjbmQhp61hDoVbtKr-7" value="" style="endArrow=classic;html=1;rounded=0;endSize=16;startSize=16;endFill=1;dashed=1;dashPattern=8 8;jumpSize=6;strokeWidth=3;strokeColor=#808080;" edge="1" parent="1">
          <mxGeometry width="50" height="50" relative="1" as="geometry">
            <mxPoint x="382" y="320" as="sourcePoint" />
            <mxPoint x="591" y="346" as="targetPoint" />
          </mxGeometry>
        </mxCell>
        <mxCell id="laaQjbmQhp61hDoVbtKr-8" value="" style="endArrow=classic;html=1;rounded=0;endSize=16;startSize=16;endFill=1;dashed=1;dashPattern=8 8;jumpSize=6;strokeWidth=3;strokeColor=#808080;" edge="1" parent="1">
          <mxGeometry width="50" height="50" relative="1" as="geometry">
            <mxPoint x="-111" y="381" as="sourcePoint" />
            <mxPoint x="28" y="381" as="targetPoint" />
          </mxGeometry>
        </mxCell>
        <mxCell id="laaQjbmQhp61hDoVbtKr-9" value="" style="endArrow=classic;html=1;rounded=0;endSize=16;startSize=16;endFill=1;dashed=1;dashPattern=8 8;jumpSize=6;strokeWidth=3;strokeColor=#808080;" edge="1" parent="1">
          <mxGeometry width="50" height="50" relative="1" as="geometry">
            <mxPoint x="-41" y="472" as="sourcePoint" />
            <mxPoint x="72" y="472" as="targetPoint" />
          </mxGeometry>
        </mxCell>
        <mxCell id="laaQjbmQhp61hDoVbtKr-11" value="&lt;font data-font-src=&quot;https://fonts.googleapis.com/css?family=Space+Mono&quot; face=&quot;Space Mono&quot; style=&quot;font-size: 28px;&quot;&gt;Small&lt;/font&gt;" style="text;html=1;align=center;verticalAlign=middle;whiteSpace=wrap;rounded=0;" vertex="1" parent="1">
          <mxGeometry x="237" y="167" width="60" height="30" as="geometry" />
        </mxCell>
        <mxCell id="laaQjbmQhp61hDoVbtKr-12" value="&lt;font style=&quot;font-size: 28px;&quot; face=&quot;Space Mono&quot;&gt;Nano&lt;/font&gt;" style="text;html=1;align=center;verticalAlign=middle;whiteSpace=wrap;rounded=0;" vertex="1" parent="1">
          <mxGeometry x="461" y="350" width="60" height="30" as="geometry" />
        </mxCell>
        <mxCell id="laaQjbmQhp61hDoVbtKr-13" value="&lt;font data-font-src=&quot;https://fonts.googleapis.com/css?family=Space+Mono&quot; face=&quot;Space Mono&quot; style=&quot;font-size: 28px;&quot;&gt;Large&lt;/font&gt;" style="text;html=1;align=center;verticalAlign=middle;whiteSpace=wrap;rounded=0;" vertex="1" parent="1">
          <mxGeometry x="-75" y="339" width="60" height="30" as="geometry" />
        </mxCell>
        <mxCell id="laaQjbmQhp61hDoVbtKr-14" value="&lt;font style=&quot;font-size: 28px;&quot; face=&quot;Space Mono&quot;&gt;Medium&lt;/font&gt;" style="text;html=1;align=center;verticalAlign=middle;whiteSpace=wrap;rounded=0;" vertex="1" parent="1">
          <mxGeometry x="-11" y="427" width="60" height="30" as="geometry" />
        </mxCell>
      </root>
    </mxGraphModel>
  </diagram>
</mxfile>
